<svg width="20" height="20" viewBox="0 0 20 20" fill="none" xmlns="http://www.w3.org/2000/svg">
<path d="M4.16928 17.4998V9.99984H3.6696C3.33197 9.99984 3.03383 10.0006 2.78826 9.98275C2.5354 9.96438 2.26951 9.92305 2.00782 9.80452C1.62532 9.63126 1.29576 9.34637 1.08253 8.97445C0.931202 8.71045 0.878837 8.4401 0.85629 8.19482C0.834943 7.96258 0.835945 7.68404 0.835945 7.38835V2.49984C0.835945 2.0396 1.20904 1.6665 1.66928 1.6665C2.12952 1.6665 2.50261 2.0396 2.50261 2.49984V7.38835C2.50261 7.71465 2.50376 7.90355 2.51645 8.04183C2.52733 8.16022 2.54223 8.1707 2.53109 8.14925C2.55822 8.19447 2.61033 8.24735 2.69548 8.28597C2.70118 8.28855 2.74467 8.30824 2.9087 8.32015C3.07993 8.33258 3.30737 8.33317 3.6696 8.33317H4.16928V2.49984C4.16928 2.0396 4.54238 1.66651 5.00261 1.6665C5.46285 1.6665 5.83595 2.0396 5.83595 2.49984V8.33317H6.33562C6.69785 8.33317 6.92529 8.33258 7.09652 8.32015C7.26055 8.30824 7.30404 8.28855 7.30974 8.28597C7.39467 8.24746 7.44613 8.19439 7.47332 8.14925C7.47694 8.13503 7.48321 8.10236 7.48878 8.04183C7.50146 7.90355 7.50261 7.71465 7.50261 7.38835V2.49984C7.50261 2.0396 7.87571 1.6665 8.33595 1.6665C8.79618 1.6665 9.16928 2.0396 9.16928 2.49984V7.38835C9.16928 7.68404 9.17028 7.96258 9.14893 8.19482C9.12639 8.4401 9.07402 8.71045 8.9227 8.97445C8.70946 9.34637 8.3799 9.63126 7.9974 9.80452C7.73571 9.92305 7.46982 9.96438 7.21697 9.98275C7.09415 9.99166 6.95827 9.99611 6.81088 9.99821L6.33562 9.99984H5.83595V17.4998C5.83595 17.9601 5.46285 18.3332 5.00261 18.3332C4.54238 18.3332 4.16928 17.9601 4.16928 17.4998ZM11.6693 1.6665C11.9888 1.6665 12.4848 1.75591 12.9885 1.89111C13.5116 2.03156 14.1252 2.24357 14.6877 2.53158C15.7977 3.10004 16.7645 3.92442 17.514 4.9388C18.2633 5.95295 18.7762 7.13049 19.0155 8.37956C19.2547 9.62872 19.2142 10.9185 18.8967 12.1491C18.5791 13.3797 17.9926 14.5205 17.1803 15.4824C16.3679 16.4445 15.3509 17.2022 14.2067 17.6943C13.0624 18.1865 11.8227 18.3995 10.5845 18.3153C9.37232 18.2327 8.58208 18.0355 7.49041 17.381C7.09595 17.1443 6.96817 16.6322 7.20476 16.2376C7.44151 15.8432 7.95354 15.7154 8.34815 15.952C9.17486 16.4476 9.69943 16.5847 10.6976 16.6527C11.6702 16.7189 12.6457 16.5518 13.5483 16.1636C14.451 15.7753 15.2584 15.1751 15.9067 14.4074C16.5553 13.6395 17.027 12.7241 17.2829 11.7324C17.5387 10.7408 17.5718 9.70091 17.3789 8.69368C17.186 7.68634 16.773 6.74028 16.1737 5.9292C15.5745 5.11828 14.8054 4.4643 13.9284 4.01514C13.4974 3.79441 12.9999 3.61988 12.5563 3.50081C12.0932 3.37649 11.7664 3.33317 11.6693 3.33317C11.209 3.33317 10.8359 2.96007 10.8359 2.49984C10.8359 2.0396 11.209 1.6665 11.6693 1.6665Z" fill="#0A6B94"/>
</svg>
