<svg width="20" height="20" viewBox="0 0 20 20" fill="none" xmlns="http://www.w3.org/2000/svg">
<path d="M17.5026 5C17.5026 4.53976 17.1295 4.16667 16.6693 4.16667H3.33594C2.8757 4.16667 2.5026 4.53976 2.5026 5V14.1667C2.5026 14.6269 2.8757 15 3.33594 15H16.6693C17.1295 15 17.5026 14.6269 17.5026 14.1667V5ZM5.83594 7.5V11.6667H10.8359V7.5H5.83594ZM14.1693 12.5V6.66667C14.1693 6.20643 14.5424 5.83333 15.0026 5.83333C15.4628 5.83333 15.8359 6.20643 15.8359 6.66667V12.5C15.8359 12.9602 15.4628 13.3333 15.0026 13.3333C14.5424 13.3333 14.1693 12.9602 14.1693 12.5ZM12.5026 11.6667C12.5026 12.5871 11.7564 13.3333 10.8359 13.3333H5.83594C4.91546 13.3333 4.16927 12.5871 4.16927 11.6667V7.5C4.16927 6.57953 4.91546 5.83333 5.83594 5.83333H10.8359C11.7564 5.83333 12.5026 6.57952 12.5026 7.5V11.6667ZM19.1693 14.1667C19.1693 15.5474 18.05 16.6667 16.6693 16.6667H15.8359V17.5C15.8359 17.9602 15.4628 18.3333 15.0026 18.3333C14.5424 18.3333 14.1693 17.9602 14.1693 17.5V16.6667H5.83594V17.5C5.83594 17.9602 5.46284 18.3333 5.0026 18.3333C4.54237 18.3333 4.16927 17.9602 4.16927 17.5V16.6667H3.33594C1.95523 16.6667 0.835938 15.5474 0.835938 14.1667V5C0.835938 3.61929 1.95523 2.5 3.33594 2.5H16.6693C18.05 2.5 19.1693 3.61929 19.1693 5V14.1667Z" fill="#0A6B94"/>
</svg>
