<svg width="20" height="20" viewBox="0 0 20 20" fill="none" xmlns="http://www.w3.org/2000/svg">
<g clip-path="url(#clip0_5601_27789)">
<path d="M12.3358 10.8335C12.7888 10.8335 13.179 10.8326 13.4988 10.8587C13.8281 10.8857 14.156 10.9455 14.4713 11.1061C14.9414 11.3458 15.3237 11.7281 15.5634 12.1982C15.724 12.5135 15.7839 12.8414 15.8108 13.1707C15.8335 13.4484 15.8341 13.7791 15.8344 14.1579C16.05 14.1502 16.1681 14.1365 16.2673 14.1099C16.8425 13.9558 17.2916 13.5066 17.4457 12.9315C17.4953 12.7463 17.5027 12.4955 17.5027 11.6668V9.83334C17.5027 9.11968 17.5024 8.63448 17.4717 8.25944C17.4419 7.8941 17.3876 7.707 17.3212 7.57666C17.1614 7.26312 16.9064 7.00809 16.5928 6.84831C16.4625 6.7819 16.2754 6.72761 15.9101 6.69776C15.535 6.66712 15.0498 6.66683 14.3362 6.66683H5.66918C4.95552 6.66683 4.47032 6.66712 4.09528 6.69776C3.72994 6.72761 3.54284 6.7819 3.4125 6.84831C3.09896 7.00809 2.84393 7.26312 2.68415 7.57666C2.61774 7.707 2.56345 7.8941 2.5336 8.25944C2.50296 8.63448 2.50267 9.11968 2.50267 9.83334V11.6668C2.50267 12.4955 2.51001 12.7463 2.55964 12.9315C2.71375 13.5066 3.16287 13.9558 3.73803 14.1099C3.83714 14.1364 3.95501 14.1502 4.17015 14.1579C4.17042 13.7791 4.17189 13.4484 4.19457 13.1707C4.22149 12.8414 4.28134 12.5135 4.44196 12.1982C4.68161 11.7281 5.0639 11.3458 5.53409 11.1061C5.84933 10.9455 6.1772 10.8857 6.50658 10.8587C6.82631 10.8326 7.21654 10.8335 7.6695 10.8335H12.3358ZM7.6695 12.5002C7.18904 12.5002 6.8786 12.5012 6.64249 12.5205C6.41616 12.539 6.33212 12.5703 6.29092 12.5913C6.13428 12.6712 6.00702 12.7984 5.92715 12.9551C5.90616 12.9963 5.87485 13.0803 5.85635 13.3066C5.83706 13.5428 5.83601 13.8532 5.83601 14.3337V15.6667C5.83601 16.1471 5.83706 16.4576 5.85635 16.6937C5.87485 16.92 5.90616 17.0041 5.92715 17.0453C6.00702 17.2019 6.13428 17.3292 6.29092 17.409C6.33212 17.43 6.41616 17.4613 6.64249 17.4798C6.8786 17.4991 7.18904 17.5002 7.6695 17.5002H12.3358C12.8163 17.5002 13.1267 17.4991 13.3629 17.4798C13.5892 17.4613 13.6732 17.43 13.7144 17.409C13.8711 17.3292 13.9983 17.2019 14.0782 17.0453C14.0992 17.0041 14.1305 16.92 14.149 16.6937C14.1683 16.4576 14.1693 16.1471 14.1693 15.6667V14.3337C14.1693 13.8532 14.1683 13.5428 14.149 13.3066C14.1305 13.0803 14.0992 12.9963 14.0782 12.9551C13.9983 12.7984 13.8711 12.6712 13.7144 12.5913C13.6732 12.5703 13.5892 12.539 13.3629 12.5205C13.1267 12.5012 12.8163 12.5002 12.3358 12.5002H7.6695ZM15.0027 7.91683C15.4629 7.91683 15.836 8.28993 15.836 8.75017C15.836 9.2104 15.4629 9.5835 15.0027 9.5835H12.5027C12.0424 9.5835 11.6693 9.2104 11.6693 8.75017C11.6693 8.28993 12.0424 7.91683 12.5027 7.91683H15.0027ZM14.1693 4.33366C14.1693 3.8532 14.1683 3.54276 14.149 3.30664C14.1305 3.08032 14.0992 2.99628 14.0782 2.95508C13.9983 2.79844 13.8711 2.67118 13.7144 2.59131C13.6732 2.57032 13.5892 2.53901 13.3629 2.52051C13.1267 2.50122 12.8163 2.50017 12.3358 2.50017H7.6695C7.18904 2.50017 6.8786 2.50122 6.64249 2.52051C6.41616 2.53901 6.33212 2.57032 6.29092 2.59131C6.13428 2.67118 6.00702 2.79844 5.92715 2.95508C5.90616 2.99628 5.87485 3.08032 5.85635 3.30664C5.83706 3.54276 5.83601 3.8532 5.83601 4.33366V5.00017H14.1693V4.33366ZM15.836 5.02458C15.9083 5.02857 15.9784 5.03126 16.046 5.03679C16.5143 5.07506 16.9453 5.15706 17.3497 5.36312C17.9768 5.68268 18.4868 6.19274 18.8064 6.81983C19.0124 7.22425 19.0944 7.65516 19.1327 8.12354C19.1702 8.58219 19.1693 9.1471 19.1693 9.83334V11.6668C19.1693 12.3882 19.1761 12.9122 19.0554 13.3628C18.7472 14.5131 17.8489 15.4113 16.6986 15.7196C16.442 15.7883 16.1616 15.8138 15.8344 15.8245C15.8342 16.2108 15.8338 16.5476 15.8108 16.8296C15.7839 17.159 15.724 17.4868 15.5634 17.8021C15.3237 18.2723 14.9414 18.6546 14.4713 18.8942C14.156 19.0548 13.8281 19.1147 13.4988 19.1416C13.179 19.1677 12.7888 19.1668 12.3358 19.1668H7.6695C7.21654 19.1668 6.82631 19.1677 6.50658 19.1416C6.1772 19.1147 5.84933 19.0548 5.53409 18.8942C5.0639 18.6546 4.68161 18.2723 4.44196 17.8021C4.28134 17.4868 4.22149 17.159 4.19457 16.8296C4.17153 16.5476 4.17036 16.2108 4.17015 15.8245C3.84333 15.8138 3.56313 15.7883 3.30671 15.7196C2.1564 15.4113 1.25816 14.5131 0.94994 13.3628C0.829203 12.9122 0.836007 12.3882 0.836007 11.6668V9.83334C0.836007 9.1471 0.835155 8.58219 0.872628 8.12354C0.910903 7.65516 0.9929 7.22425 1.19896 6.81983C1.51852 6.19274 2.02858 5.68268 2.65567 5.36312C3.06009 5.15706 3.491 5.07506 3.95938 5.03679C4.02698 5.03126 4.09708 5.02857 4.16934 5.02458V4.33366C4.16934 3.8807 4.16845 3.49047 4.19457 3.17074C4.22149 2.84136 4.28134 2.51349 4.44196 2.19825C4.68161 1.72806 5.0639 1.34577 5.53409 1.10612C5.84933 0.945497 6.1772 0.885653 6.50658 0.858728C6.82631 0.832605 7.21654 0.8335 7.6695 0.8335H12.3358C12.7888 0.8335 13.179 0.832605 13.4988 0.858728C13.8281 0.885653 14.156 0.945497 14.4713 1.10612C14.9414 1.34577 15.3237 1.72806 15.5634 2.19825C15.724 2.51349 15.7839 2.84136 15.8108 3.17074C15.8369 3.49047 15.836 3.8807 15.836 4.33366V5.02458Z" fill="#0A6B94"/>
</g>
<defs>
<clipPath id="clip0_5601_27789">
<rect width="20" height="20" fill="white"/>
</clipPath>
</defs>
</svg>
