<svg width="20" height="20" viewBox="0 0 20 20" fill="none" xmlns="http://www.w3.org/2000/svg">
<path d="M2.5 16.6667V3.33333C2.5 2.8731 2.8731 2.5 3.33333 2.5C3.79357 2.5 4.16667 2.8731 4.16667 3.33333V16.6667C4.16667 17.1269 3.79357 17.5 3.33333 17.5C2.8731 17.5 2.5 17.1269 2.5 16.6667ZM5.83333 16.6667V6.66667C5.83333 6.20643 6.20643 5.83333 6.66667 5.83333C7.1269 5.83333 7.5 6.20643 7.5 6.66667V16.6667C7.5 17.1269 7.1269 17.5 6.66667 17.5C6.20643 17.5 5.83333 17.1269 5.83333 16.6667ZM9.16667 16.6667V5C9.16667 4.53976 9.53976 4.16667 10 4.16667C10.4602 4.16667 10.8333 4.53976 10.8333 5V16.6667C10.8333 17.1269 10.4602 17.5 10 17.5C9.53976 17.5 9.16667 17.1269 9.16667 16.6667ZM13.1047 4.1984C13.5471 4.07218 14.0085 4.3289 14.1349 4.77132L17.4683 16.438C17.5945 16.8804 17.3378 17.3419 16.8953 17.4683C16.4529 17.5945 15.9915 17.3378 15.8651 16.8953L12.5317 5.22868C12.4055 4.78625 12.6622 4.32481 13.1047 4.1984Z" fill="#0A6B94"/>
</svg>
