<svg width="20" height="20" viewBox="0 0 20 20" fill="none" xmlns="http://www.w3.org/2000/svg">
<path d="M6.99772 15.8333C5.40015 15.8333 4.66583 15.8343 4.11686 15.8895C3.78112 15.9233 3.51782 15.9698 3.33073 16.0148V17.0239L4.72314 16.3745L4.81185 16.3387C5.0232 16.2682 5.25583 16.2853 5.45638 16.3883L7.43636 17.4048L9.64502 16.3745L9.73047 16.3403C9.93251 16.272 10.1544 16.2833 10.3498 16.3745L12.5576 17.4048L14.5384 16.3883L14.6263 16.3493C14.8347 16.271 15.0675 16.2792 15.2716 16.3745L16.6641 17.0239V16.0148C16.477 15.9698 16.2137 15.9233 15.8779 15.8895C15.329 15.8343 14.5946 15.8333 12.9971 15.8333H6.99772ZM15.8307 5.78612C15.2051 5.83303 14.3853 5.83332 12.9971 5.83332H6.99772C5.60947 5.83332 4.78973 5.83303 4.16406 5.78612V14.213C4.78972 14.1661 5.60951 14.1667 6.99772 14.1667H12.9971C14.3853 14.1667 15.2051 14.1661 15.8307 14.213V5.78612ZM11.2205 6.83267C11.4044 6.69505 11.6386 6.63849 11.8675 6.67968C12.129 6.72674 12.3524 6.89578 12.4689 7.13459C12.7052 7.61963 12.9536 8.40337 12.9645 9.25617C12.9755 10.1208 12.7391 11.1335 11.9082 11.9254C11.0773 12.7172 10.0548 12.904 9.19173 12.8516C8.34048 12.7998 7.57014 12.5143 7.097 12.255C6.86391 12.1273 6.70586 11.8961 6.67139 11.6325C6.63699 11.369 6.72971 11.1046 6.92204 10.9212L11.1449 6.89696L11.2205 6.83267ZM9.08024 11.167C9.15025 11.1761 9.22113 11.1838 9.29264 11.1881C9.8487 11.2219 10.3609 11.0973 10.7583 10.7186C11.1557 10.3398 11.305 9.8344 11.2979 9.27733C11.2969 9.2054 11.2923 9.13395 11.2865 9.0633L9.08024 11.167ZM10.3498 3.62548C10.1264 3.72971 9.86839 3.72971 9.64502 3.62548L7.43636 2.59439L5.45638 3.61164C5.22728 3.7293 4.95652 3.73438 4.72314 3.62548L3.33073 2.97525V3.98436C3.51783 4.02934 3.78101 4.0767 4.11686 4.1105C4.66583 4.16572 5.40015 4.16665 6.99772 4.16666H12.9971C14.5946 4.16666 15.329 4.16572 15.8779 4.1105C16.2138 4.0767 16.477 4.02934 16.6641 3.98436V2.97525L15.2716 3.62548C15.0383 3.73438 14.7675 3.7293 14.5384 3.61164L12.5576 2.59439L10.3498 3.62548ZM18.3307 4.21792C18.3293 4.35773 18.3157 4.58424 18.229 4.7941C18.0726 5.17218 17.7682 5.36522 17.4974 5.47118V14.528C17.7682 14.6339 18.0726 14.8277 18.229 15.2059C18.3157 15.4157 18.3293 15.6422 18.3307 15.7821V18.3333C18.3307 18.6182 18.1853 18.8835 17.945 19.0364C17.7048 19.1894 17.403 19.2089 17.145 19.0885L14.9364 18.0574L12.9564 19.0747C12.7273 19.1924 12.4565 19.1974 12.2231 19.0885L9.9974 18.0493L7.77165 19.0885C7.53828 19.1974 7.2675 19.1924 7.03841 19.0747L5.05762 18.0574L2.84977 19.0885C2.59175 19.2089 2.29 19.1894 2.0498 19.0364C1.80954 18.8835 1.66406 18.6182 1.66406 18.3333V15.7821C1.6655 15.6422 1.67906 15.4157 1.76579 15.2059C1.92223 14.8277 2.22656 14.6339 2.4974 14.528V5.47118C2.22663 5.36522 1.92217 5.17218 1.76579 4.7941C1.67906 4.58424 1.6655 4.35773 1.66406 4.21792V1.66666C1.66406 1.38182 1.80954 1.11652 2.0498 0.96353C2.29 0.810626 2.59175 0.791054 2.84977 0.911447L5.05762 1.94172L7.03841 0.925282L7.1263 0.886219C7.33472 0.807963 7.56749 0.816189 7.77165 0.911447L9.9974 1.94986L12.2231 0.911447L12.3118 0.87564C12.5232 0.805176 12.7558 0.82229 12.9564 0.925282L14.9364 1.94172L17.145 0.911447C17.403 0.791054 17.7048 0.810627 17.945 0.96353C18.1853 1.11652 18.3307 1.38182 18.3307 1.66666V4.21792Z" fill="#0A6B94"/>
</svg>
