<svg width="29" height="29" viewBox="0 0 29 29" fill="none" xmlns="http://www.w3.org/2000/svg">
<path d="M24.8809 0.799805C26.7017 0.799805 28.1982 2.2929 28.1982 4.11426L28.2002 24.8848C28.2 26.704 26.7036 28.2001 24.8828 28.2002H11.5342C9.71349 28.2001 8.21704 26.7057 8.2168 24.8848V21.8799C8.21515 21.6007 8.32666 21.3325 8.52344 21.1357C8.72059 20.9386 8.989 20.8281 9.26758 20.8281C9.54652 20.8282 9.81294 20.939 10.0098 21.1357C10.2069 21.3329 10.3174 21.6013 10.3174 21.8799V24.8848C10.3176 25.5646 10.8532 26.0996 11.5332 26.0996H24.8809C25.5608 26.0996 26.0955 25.5647 26.0957 24.8848V4.11523C26.0955 3.43583 25.5629 2.9043 24.8809 2.9043H11.5332C10.8527 2.9043 10.3176 3.43598 10.3174 4.11523V7.24512C10.3173 7.52213 10.2067 7.79038 10.0098 7.9873C9.81279 8.1842 9.54461 8.29488 9.26758 8.29492C8.98854 8.29492 8.72129 8.18418 8.52441 7.9873C8.37539 7.8382 8.27595 7.64804 8.23633 7.44434H8.21582V4.11523C8.21608 2.2941 9.71255 0.801758 11.5332 0.801758L24.8809 0.799805ZM11.9248 8.74512C12.2028 8.74393 12.4697 8.85508 12.666 9.05078H12.667L17.4219 13.7529L17.4229 13.7539C17.4556 13.7867 17.4864 13.8211 17.5156 13.8604C17.5723 13.9338 17.6177 14.0151 17.6523 14.1006H17.6514L17.6914 14.208L17.6924 14.2139L17.6953 14.2188L17.7012 14.2402C17.711 14.2795 17.7186 14.3194 17.7246 14.3613L17.7256 14.3672C17.7356 14.4539 17.7355 14.5422 17.7256 14.6299L17.7246 14.6406C17.7238 14.6455 17.7225 14.6504 17.7217 14.6553C17.721 14.6592 17.7194 14.663 17.7188 14.667C17.7146 14.694 17.7086 14.7205 17.7041 14.7402L17.7051 14.7412C17.6996 14.7685 17.6904 14.7921 17.6855 14.8066C17.6782 14.8307 17.6701 14.8582 17.6582 14.8867L17.6572 14.8857C17.6548 14.8926 17.6509 14.9013 17.6465 14.9111L17.6475 14.9121C17.6335 14.9469 17.6182 14.9784 17.6035 15.0059L17.5986 15.0146C17.5981 15.0155 17.5976 15.017 17.5957 15.0205C17.5945 15.0228 17.5912 15.0253 17.5889 15.0293L17.5898 15.0303C17.5753 15.0569 17.5587 15.0802 17.5479 15.0957V15.1064L17.499 15.1631C17.4761 15.1898 17.4517 15.2157 17.4307 15.2383L17.4258 15.2441L17.4238 15.2451L17.083 15.5869V15.5811L12.668 19.9492C12.4709 20.1458 12.2022 20.2569 11.9229 20.2549C11.6802 20.253 11.4444 20.1679 11.2578 20.0127L11.1807 19.9424C10.7729 19.5282 10.779 18.8633 11.1914 18.457L14.1279 15.5518H1.85059C1.57342 15.5518 1.30444 15.4402 1.10742 15.2432C0.910631 15.0462 0.79981 14.7779 0.799805 14.501C0.799805 14.2221 0.910787 13.9556 1.10742 13.7588C1.30444 13.5618 1.57344 13.4502 1.85059 13.4502H14.1279L11.1914 10.5439C10.7798 10.1364 10.7727 9.47162 11.1816 9.05859C11.3772 8.85786 11.646 8.74512 11.9248 8.74512Z" fill="#b0b0b0" stroke="#b0b0b0" stroke-width="0.4"/>
</svg>
