<svg width="29" height="29" viewBox="0 0 29 29" fill="none" xmlns="http://www.w3.org/2000/svg">
<path d="M17.4658 0.799805C19.287 0.799805 20.7803 2.29317 20.7803 4.11426V7.24316C20.7802 7.82204 20.3105 8.29092 19.7324 8.29297H19.7314C19.1512 8.29279 18.6817 7.82347 18.6816 7.24316V4.11426C18.6816 3.43478 18.1466 2.90234 17.4658 2.90234H4.11426C3.43351 2.90234 2.89941 3.43479 2.89941 4.11426V24.8848C2.89964 25.5648 3.43273 26.0996 4.11426 26.0996H17.4658C18.1458 26.0996 18.6814 25.5646 18.6816 24.8848V21.8799C18.6817 21.6013 18.7921 21.3329 18.9893 21.1357C19.1861 20.939 19.4526 20.8282 19.7314 20.8281H19.7324C20.3127 20.8302 20.7803 21.2998 20.7803 21.8799V24.8848C20.78 26.7038 19.2871 28.2002 17.4658 28.2002H4.11426C2.29308 28.2002 0.800046 26.7055 0.799805 24.8848V4.11523C0.80006 2.29435 2.29323 0.801758 4.11426 0.801758L17.4658 0.799805ZM22.54 8.75879H22.6152L22.6299 8.76074C22.8773 8.79781 23.0006 8.92411 23.1289 9.05078L23.1299 9.05176L27.8594 13.7285L27.8623 13.7305L27.8857 13.7529C27.9026 13.7698 27.9176 13.7871 27.9326 13.8047L27.9502 13.8242L27.96 13.834L27.9658 13.8408C27.9867 13.8658 28.0043 13.8935 28.0176 13.9141C28.0202 13.9173 28.0233 13.9199 28.0254 13.9229C28.032 13.9321 28.0373 13.9403 28.04 13.9453C28.0421 13.9491 28.0433 13.9528 28.0439 13.9541L28.0459 13.958H28.0449C28.0602 13.9825 28.0752 14.007 28.0879 14.0332C28.1092 14.0734 28.1258 14.1145 28.1367 14.1426L28.1504 14.1777V14.1924C28.1803 14.2899 28.2002 14.3928 28.2002 14.501C28.2001 14.7967 28.0745 15.0777 27.8555 15.2764L27.8447 15.2861L23.1309 19.9482L23.1318 19.9492C22.7194 20.3575 22.0545 20.3533 21.6465 19.9434V19.9424C21.2382 19.5301 21.2415 18.8637 21.6543 18.457L24.5918 15.5508H12.3125C12.0335 15.5507 11.7671 15.44 11.5703 15.2432C11.3742 15.047 11.2608 14.7809 11.2607 14.501C11.2607 14.2214 11.3739 13.9533 11.5703 13.7568C11.7668 13.5604 12.033 13.4486 12.3125 13.4502H24.5908L21.6543 10.5439C21.2421 10.1359 21.2381 9.47111 21.6465 9.05859C21.8802 8.82137 22.2117 8.71164 22.54 8.75879Z" fill="#0EA041" stroke="#0EA041" stroke-width="0.4"/>
</svg>
