<svg width="45" height="46" viewBox="0 0 45 46" fill="none" xmlns="http://www.w3.org/2000/svg">
<path d="M19.2734 42.8662C19.2734 44.5231 20.6166 45.8662 22.2734 45.8662C23.9303 45.8662 25.2734 44.5231 25.2734 42.8662L19.2734 42.8662ZM24.3948 1.56712C23.2232 0.395542 21.3237 0.395542 20.1521 1.56712L1.06024 20.659C-0.111339 21.8306 -0.111339 23.7301 1.06023 24.9016C2.23181 26.0732 4.1313 26.0732 5.30288 24.9016L22.2734 7.93108L39.244 24.9016C40.4156 26.0732 42.3151 26.0732 43.4866 24.9016C44.6582 23.7301 44.6582 21.8306 43.4866 20.659L24.3948 1.56712ZM22.2734 42.8662L25.2734 42.8662L25.2734 3.68843L22.2734 3.68843L19.2734 3.68843L19.2734 42.8662L22.2734 42.8662Z" fill="#0EA041"/>
</svg>
