<svg width="23" height="25" viewBox="0 0 23 25" fill="none" xmlns="http://www.w3.org/2000/svg">
<path d="M9.63379 6.83324H4.98307L8.82487 2.99145C9.28048 2.53584 9.28048 1.79732 8.82487 1.34171C8.36926 0.886097 7.63074 0.886097 7.17513 1.34171L1.3418 7.17504L1.26432 7.26049C1.09418 7.46811 1 7.72914 1 7.99991C1 8.30933 1.123 8.60599 1.3418 8.82478L7.17513 14.6581L7.264 14.7379C7.72223 15.1116 8.39773 15.0853 8.82487 14.6581C9.252 14.231 9.27836 13.5555 8.90462 13.0972L8.82487 13.0084L4.98307 9.16658H9.63379C11.613 9.16658 13.0277 9.16714 14.1364 9.25772C15.231 9.34719 15.9245 9.51877 16.4811 9.80232C17.5787 10.3616 18.4717 11.2545 19.0309 12.3521C19.3145 12.9088 19.4861 13.6023 19.5755 14.6969C19.6661 15.8055 19.6667 17.2203 19.6667 19.1995V23.1666L19.6724 23.2862C19.7322 23.8744 20.2294 24.3332 20.8333 24.3332C21.4777 24.3332 22 23.8109 22 23.1666V19.1995C22 17.259 22.001 15.7334 21.9009 14.5077C21.7996 13.2684 21.5893 12.233 21.1102 11.2926C20.3272 9.7559 19.0773 8.50602 17.5407 7.72306C16.6002 7.24392 15.5648 7.03362 14.3255 6.93237C13.0999 6.83226 11.5743 6.83324 9.63379 6.83324Z" fill="#0EA041" stroke="#0EA041" stroke-width="0.5" stroke-linecap="round" stroke-linejoin="round"/>
</svg>
