<svg width="23" height="25" viewBox="0 0 23 25" fill="none" xmlns="http://www.w3.org/2000/svg">
<path d="M13.3662 6.83324H18.0169L14.1751 2.99145C13.7195 2.53584 13.7195 1.79732 14.1751 1.34171C14.6307 0.886097 15.3693 0.886097 15.8249 1.34171L21.6582 7.17504L21.7357 7.26049C21.9058 7.46811 22 7.72914 22 7.99991C22 8.30933 21.877 8.60599 21.6582 8.82478L15.8249 14.6581L15.736 14.7379C15.2778 15.1116 14.6023 15.0853 14.1751 14.6581C13.748 14.231 13.7216 13.5555 14.0954 13.0972L14.1751 13.0084L18.0169 9.16658H13.3662C11.387 9.16658 9.97226 9.16714 8.86361 9.25772C7.76902 9.34719 7.07555 9.51877 6.51888 9.80232C5.42127 10.3616 4.52834 11.2545 3.96908 12.3521C3.68553 12.9088 3.51394 13.6023 3.42448 14.6969C3.3339 15.8055 3.33333 17.2203 3.33333 19.1995V23.1666L3.32764 23.2862C3.26775 23.8744 2.77062 24.3332 2.16667 24.3332C1.52234 24.3332 1 23.8109 1 23.1666V19.1995C0.999998 17.259 0.999012 15.7334 1.09912 14.5077C1.20037 13.2684 1.41068 12.233 1.88981 11.2926C2.67278 9.7559 3.92265 8.50602 5.45931 7.72306C6.3998 7.24392 7.4352 7.03362 8.67448 6.93237C9.90011 6.83226 11.4257 6.83324 13.3662 6.83324Z" fill="#b0b0b0" stroke="#b0b0b0" stroke-width="0.5" stroke-linecap="round" stroke-linejoin="round"/>
</svg>
