<svg width="21" height="16" viewBox="0 0 21 16" fill="none" xmlns="http://www.w3.org/2000/svg">
<g id="Group 362">
<g id="Group 361">
<path id="Union" fill-rule="evenodd" clip-rule="evenodd" d="M8.01671 13.1713C7.78653 14.343 6.75379 15.2269 5.51461 15.2269C4.27543 15.2269 3.2427 14.343 3.01252 13.1713H1.35637C1.09052 13.1713 0.875 12.9558 0.875 12.6899C0.875 12.424 1.09052 12.2085 1.35637 12.2085H3.00756C3.22749 11.0239 4.2663 10.127 5.51461 10.127C6.76292 10.127 7.80173 11.0239 8.02166 12.2085H20.5072C20.7731 12.2085 20.9886 12.424 20.9886 12.6899C20.9886 12.9558 20.7731 13.1713 20.5072 13.1713H8.01671ZM6.96898 12.6769C6.96898 13.4817 6.3166 14.134 5.51185 14.134C4.7071 14.134 4.05472 13.4817 4.05472 12.6769C4.05472 11.8722 4.7071 11.2198 5.51185 11.2198C6.3166 11.2198 6.96898 11.8722 6.96898 12.6769Z" fill="white"/>
<path id="Union_2" fill-rule="evenodd" clip-rule="evenodd" d="M12.3545 7.39509C12.5847 6.22339 13.6174 5.3395 14.8566 5.3395C16.0958 5.3395 17.1285 6.22339 17.3587 7.39509H20.5186C20.7845 7.39509 21 7.61061 21 7.87646C21 8.14232 20.7845 8.35784 20.5186 8.35784H17.3637C17.1438 9.54245 16.1049 10.4395 14.8566 10.4395C13.6083 10.4395 12.5695 9.54245 12.3496 8.35784L1.36778 8.35784C1.10192 8.35784 0.886404 8.14232 0.886404 7.87646C0.886404 7.61061 1.10192 7.39509 1.36778 7.39509L12.3545 7.39509ZM13.4022 7.8895C13.4022 7.08475 14.0546 6.43237 14.8594 6.43237C15.6641 6.43237 16.3165 7.08475 16.3165 7.8895C16.3165 8.69425 15.6641 9.34663 14.8594 9.34663C14.0546 9.34663 13.4022 8.69425 13.4022 7.8895Z" fill="white"/>
<path id="Union_3" fill-rule="evenodd" clip-rule="evenodd" d="M8.01669 3.5444C7.78648 4.71608 6.75377 5.59995 5.51461 5.59995C4.27546 5.59995 3.24274 4.71608 3.01253 3.5444H1.35637C1.09052 3.5444 0.875 3.32888 0.875 3.06303C0.875 2.79717 1.09052 2.58165 1.35637 2.58165H3.00755C3.22745 1.39702 4.26628 0.5 5.51461 0.5C6.76295 0.5 7.80178 1.39702 8.02168 2.58165H20.5072C20.7731 2.58165 20.9886 2.79717 20.9886 3.06303C20.9886 3.32888 20.7731 3.5444 20.5072 3.5444H8.01669ZM6.96898 3.04996C6.96898 3.85471 6.3166 4.50709 5.51185 4.50709C4.7071 4.50709 4.05472 3.85471 4.05472 3.04996C4.05472 2.24521 4.7071 1.59283 5.51185 1.59283C6.3166 1.59283 6.96898 2.24521 6.96898 3.04996Z" fill="white"/>
</g>
</g>
</svg>
