<svg width="21" height="21" viewBox="0 0 21 21" fill="none" xmlns="http://www.w3.org/2000/svg">
<path d="M11.025 0C11.3035 0 11.5705 0.110625 11.7675 0.307538C11.9644 0.504451 12.075 0.771523 12.075 1.05V8.925L19.95 8.925C20.2285 8.925 20.4956 9.03562 20.6925 9.23254C20.8894 9.42945 21 9.69652 21 9.975V11.025C21 11.3035 20.8894 11.5705 20.6925 11.7675C20.4956 11.9644 20.2285 12.075 19.95 12.075L12.075 12.075L12.075 19.95C12.075 20.2285 11.9644 20.4956 11.7675 20.6925C11.5705 20.8894 11.3035 21 11.025 21H9.975C9.69652 21 9.42945 20.8894 9.23254 20.6925C9.03562 20.4956 8.925 20.2285 8.925 19.95L8.925 12.075H1.05C0.771523 12.075 0.504451 11.9644 0.307538 11.7675C0.110625 11.5705 0 11.3035 0 11.025L0 9.975C0 9.69652 0.110625 9.42945 0.307538 9.23254C0.504451 9.03562 0.771523 8.925 1.05 8.925H8.925V1.05C8.925 0.771523 9.03562 0.504451 9.23254 0.307538C9.42945 0.110625 9.69652 0 9.975 0L11.025 0Z" fill="white"/>
</svg>
