<svg width="28" height="28" viewBox="0 0 28 28" fill="none" xmlns="http://www.w3.org/2000/svg">
<path d="M14.7729 3.52295C14.7729 3.25171 14.6645 2.99087 14.4727 2.79907C14.2809 2.60759 14.021 2.5 13.75 2.5C13.479 2.5 13.2191 2.60759 13.0273 2.79907C12.8355 2.99087 12.7271 3.25171 12.7271 3.52295V3.7207C12.7246 4.3299 12.5445 4.92536 12.2083 5.43335C11.8718 5.94138 11.3938 6.34071 10.8337 6.58081C10.7335 6.62378 10.6275 6.65067 10.52 6.66626C10.0125 6.84297 9.46711 6.88715 8.93555 6.79077C8.32116 6.67937 7.75349 6.38755 7.30713 5.95093L7.29736 5.94116L7.23022 5.8728L7.229 5.87158C7.13409 5.77666 7.02098 5.70204 6.89697 5.65063C6.77284 5.59919 6.6395 5.57251 6.50513 5.57251C6.37098 5.57258 6.23844 5.59929 6.1145 5.65063C5.99052 5.70203 5.87737 5.77668 5.78247 5.87158L5.78125 5.8728C5.68618 5.96777 5.61055 6.08071 5.55908 6.20483C5.50761 6.32899 5.48096 6.46228 5.48096 6.59668C5.48097 6.73105 5.50763 6.8644 5.55908 6.98853C5.59776 7.08176 5.65023 7.16841 5.71411 7.24609L5.78125 7.32056L5.85938 7.39868C6.2959 7.84494 6.58898 8.41166 6.70044 9.02588C6.81184 9.64026 6.73649 10.2747 6.48438 10.8459L6.48315 10.8447C6.26208 11.4021 5.88775 11.8856 5.39917 12.2351C4.88929 12.5998 4.28147 12.8026 3.65479 12.8174C3.64521 12.8176 3.63507 12.8186 3.62549 12.8186H3.52295C3.25171 12.8186 2.99087 12.9259 2.79907 13.1177C2.60754 13.3093 2.50015 13.5694 2.5 13.8403C2.5 14.1115 2.60738 14.3724 2.79907 14.5642C2.99087 14.756 3.25171 14.8633 3.52295 14.8633H3.7207C4.33002 14.8657 4.9253 15.0469 5.43335 15.3833C5.93775 15.7173 6.33408 16.1907 6.57471 16.7456H6.57593C6.82787 17.3167 6.90213 17.9502 6.79077 18.5645C6.67937 19.1788 6.38755 19.7465 5.95093 20.1929L5.94116 20.2026L5.8728 20.2698L5.87158 20.271C5.77666 20.3659 5.70204 20.479 5.65063 20.603C5.59919 20.7272 5.57251 20.8605 5.57251 20.9949C5.57258 21.129 5.59929 21.2616 5.65063 21.3855C5.70203 21.5095 5.77669 21.6226 5.87158 21.7175L5.8728 21.7188C5.96776 21.8138 6.08071 21.8894 6.20483 21.9409C6.32899 21.9924 6.46227 22.019 6.59668 22.019C6.73105 22.019 6.8644 21.9924 6.98853 21.9409C7.11259 21.8895 7.22563 21.8138 7.32056 21.7188L7.39868 21.6406C7.84494 21.2041 8.41166 20.911 9.02588 20.7996C9.64026 20.6882 10.2747 20.7635 10.8459 21.0156H10.8447C11.4023 21.2367 11.8855 21.6121 12.2351 22.1008C12.5998 22.6107 12.8026 23.2185 12.8174 23.8452C12.8176 23.8548 12.8186 23.8649 12.8186 23.8745V23.9771C12.8186 24.2483 12.9259 24.5091 13.1177 24.7009C13.3093 24.8925 13.5694 24.9998 13.8403 25C14.1115 25 14.3724 24.8926 14.5642 24.7009C14.756 24.5091 14.8633 24.2483 14.8633 23.9771V23.7793C14.8657 23.17 15.0469 22.5747 15.3833 22.0667C15.7174 21.5621 16.1905 21.1647 16.7456 20.9241L16.9617 20.8386C17.4742 20.6567 18.0267 20.6117 18.5645 20.7092C19.1021 20.8067 19.6036 21.0427 20.0195 21.3928L20.1929 21.5491L20.2026 21.5588L20.2698 21.6272L20.271 21.6284C20.3659 21.7233 20.479 21.798 20.603 21.8494C20.7272 21.9008 20.8605 21.9275 20.9949 21.9275C21.129 21.9274 21.2616 21.9007 21.3855 21.8494C21.5095 21.798 21.6226 21.7233 21.7175 21.6284L21.7188 21.6272C21.8138 21.5322 21.8895 21.4193 21.9409 21.2952C21.9924 21.171 22.019 21.0377 22.019 20.9033C22.019 20.7689 21.9924 20.6356 21.9409 20.5115C21.9022 20.4182 21.8498 20.3316 21.7859 20.2539L21.7188 20.1794L21.6406 20.1013C21.2041 19.6551 20.911 19.0883 20.7996 18.4741C20.7021 17.9366 20.7472 17.3837 20.929 16.8713L21.0156 16.6541C21.2563 16.0993 21.6527 15.6257 22.157 15.2917C22.665 14.9554 23.2604 14.7755 23.8696 14.7729H23.9771C24.2483 14.7729 24.5091 14.6645 24.7009 14.4727C24.8924 14.2809 25 14.021 25 13.75C25 13.479 24.8924 13.2191 24.7009 13.0273C24.5091 12.8355 24.2483 12.7271 23.9771 12.7271H23.7793C23.1701 12.7246 22.5746 12.5445 22.0667 12.2083C21.5586 11.8718 21.1593 11.3938 20.9192 10.8337C20.8762 10.7334 20.8481 10.6275 20.8325 10.52C20.6559 10.0126 20.6129 9.46697 20.7092 8.93555C20.8206 8.32116 21.1124 7.75349 21.5491 7.30713L21.5588 7.29736L21.6272 7.23022L21.6284 7.229C21.7233 7.13409 21.798 7.02097 21.8494 6.89697C21.9008 6.77284 21.9275 6.6395 21.9275 6.50513C21.9274 6.37098 21.9007 6.23843 21.8494 6.1145C21.798 5.99053 21.7233 5.87737 21.6284 5.78247L21.6272 5.78125C21.5322 5.68618 21.4193 5.61055 21.2952 5.55908C21.171 5.50761 21.0377 5.48096 20.9033 5.48096C20.7689 5.48097 20.6356 5.50763 20.5115 5.55908C20.4182 5.59776 20.3316 5.65023 20.2539 5.71411L20.1794 5.78125L20.1013 5.85938C19.6551 6.2959 19.0883 6.58898 18.4741 6.70044C17.8597 6.81184 17.2253 6.73649 16.6541 6.48438V6.48315C16.0995 6.2425 15.6256 5.84718 15.2917 5.34302C14.9554 4.83505 14.7755 4.2396 14.7729 3.63037V3.52295ZM16.25 13.75C16.25 12.3693 15.1307 11.25 13.75 11.25C12.3693 11.25 11.25 12.3693 11.25 13.75C11.25 15.1307 12.3693 16.25 13.75 16.25C15.1307 16.25 16.25 15.1307 16.25 13.75ZM18.75 13.75C18.75 16.5114 16.5114 18.75 13.75 18.75C10.9886 18.75 8.75 16.5114 8.75 13.75C8.75 10.9886 10.9886 8.75 13.75 8.75C16.5114 8.75 18.75 10.9886 18.75 13.75ZM17.2729 3.62061L17.2803 3.71094C17.2938 3.80045 17.3263 3.88631 17.3767 3.9624C17.444 4.06398 17.5394 4.14387 17.6514 4.19189L17.6636 4.19678C17.7777 4.24715 17.9046 4.26291 18.0273 4.24072C18.1502 4.21844 18.264 4.15959 18.3533 4.07227L18.4119 4.01367C18.7389 3.68648 19.1271 3.42666 19.5544 3.24951C19.982 3.07227 20.4404 2.98097 20.9033 2.98096C21.3662 2.98096 21.8246 3.0723 22.2522 3.24951C22.6795 3.42664 23.0678 3.68653 23.3948 4.01367L23.6279 4.27002C23.8473 4.53713 24.026 4.83583 24.1589 5.15625C24.3361 5.58373 24.4274 6.04238 24.4275 6.50513C24.4275 6.96807 24.3362 7.42757 24.1589 7.85522C24.026 8.17563 23.8473 8.47435 23.6279 8.74146L23.3948 8.9978L23.3276 9.06616C23.2456 9.15375 23.1905 9.26288 23.1689 9.3811C23.1467 9.50385 23.1614 9.63073 23.2117 9.74487C23.2425 9.81482 23.2649 9.88816 23.2825 9.96216C23.3269 10.025 23.3813 10.0804 23.446 10.1233C23.5477 10.1906 23.6672 10.2266 23.7891 10.2271H23.9771C24.9113 10.2271 25.8079 10.598 26.4685 11.2585C27.1291 11.9192 27.5 12.8157 27.5 13.75C27.5 14.6843 27.1291 15.5808 26.4685 16.2415C25.8079 16.902 24.9113 17.2729 23.9771 17.2729H23.8794L23.7891 17.2803C23.6996 17.2938 23.6137 17.3263 23.5376 17.3767C23.436 17.444 23.3561 17.5394 23.3081 17.6514L23.3032 17.6636C23.2528 17.7777 23.2371 17.9046 23.2593 18.0273C23.2816 18.1502 23.3404 18.264 23.4277 18.3533L23.4851 18.4106C23.8126 18.7378 24.0732 19.1268 24.2505 19.5544C24.4277 19.982 24.519 20.4404 24.519 20.9033C24.519 21.3662 24.4277 21.8246 24.2505 22.2522C24.0734 22.6795 23.8123 23.0666 23.4851 23.3936L23.4863 23.3948C23.1593 23.7221 22.7711 23.9817 22.3438 24.1589C21.9163 24.3361 21.4576 24.4274 20.9949 24.4275C20.5319 24.4275 20.0724 24.3362 19.6448 24.1589C19.3244 24.026 19.0256 23.8473 18.7585 23.6279L18.5022 23.3948L18.4338 23.3276H18.4326C18.3451 23.246 18.2368 23.1904 18.1189 23.1689C17.9962 23.1467 17.8693 23.1614 17.7551 23.2117L17.7429 23.2178V23.2166C17.6309 23.2646 17.5343 23.3445 17.467 23.446C17.3997 23.5477 17.3638 23.6672 17.3633 23.7891V23.9771C17.3633 24.9113 16.9924 25.8079 16.3318 26.4685C15.6712 27.129 14.7745 27.5 13.8403 27.5C12.9064 27.4998 12.0106 27.1289 11.3501 26.4685C10.6895 25.8079 10.3186 24.9113 10.3186 23.9771V23.9038L10.3088 23.811C10.2927 23.7192 10.2573 23.6311 10.2026 23.5547C10.1297 23.4528 10.0272 23.3758 9.90967 23.3325C9.88509 23.3235 9.86039 23.3138 9.83643 23.3032C9.72229 23.2528 9.59543 23.2371 9.47266 23.2593C9.34978 23.2816 9.236 23.3404 9.14673 23.4277L9.08813 23.4863C8.76112 23.8135 8.37289 24.0733 7.94556 24.2505C7.51795 24.4277 7.05956 24.519 6.59668 24.519C6.13383 24.519 5.67539 24.4277 5.2478 24.2505C4.82015 24.0732 4.43117 23.8126 4.104 23.4851V23.4839C3.77755 23.1573 3.51798 22.7703 3.34106 22.3438C3.16386 21.9163 3.07258 21.4576 3.07251 20.9949C3.07251 20.5319 3.16379 20.0724 3.34106 19.6448C3.51832 19.2174 3.77791 18.8292 4.10522 18.5022L4.17236 18.4338C4.25435 18.3463 4.30954 18.2371 4.33105 18.1189C4.35331 17.9962 4.33862 17.8693 4.28833 17.7551L4.28223 17.7429V17.7417C4.23418 17.6301 4.15529 17.5342 4.05396 17.467C3.97765 17.4165 3.89106 17.3841 3.80127 17.3706L3.71094 17.3633H3.52295C2.58866 17.3633 1.69213 16.9924 1.03149 16.3318C0.370966 15.6712 0 14.7745 0 13.8403C0.000152751 12.9064 0.371123 12.0106 1.03149 11.3501C1.69213 10.6895 2.58866 10.3186 3.52295 10.3186H3.59619C3.72142 10.3156 3.84342 10.2755 3.94531 10.2026C4.04719 10.1297 4.12418 10.0272 4.16748 9.90967L4.19678 9.83643C4.24715 9.72228 4.26291 9.59543 4.24072 9.47266C4.21844 9.34978 4.15959 9.236 4.07227 9.14673L4.01367 9.08813V9.08691C3.68677 8.76003 3.42655 8.37263 3.24951 7.94556C3.07227 7.51796 2.98097 7.05956 2.98096 6.59668C2.98096 6.13383 3.0723 5.67539 3.24951 5.2478C3.42679 4.82015 3.68736 4.43117 4.01489 4.104C4.34163 3.77727 4.72942 3.51809 5.15625 3.34106C5.58373 3.16386 6.04237 3.07258 6.50513 3.07251C6.96807 3.07251 7.42757 3.16379 7.85522 3.34106C8.28258 3.51832 8.67082 3.77791 8.9978 4.10522L9.06372 4.16992C9.15172 4.25322 9.26175 4.30934 9.3811 4.33105C9.50384 4.35331 9.63072 4.33862 9.74487 4.28833L9.86694 4.24194C9.89827 4.23186 9.93017 4.22388 9.96216 4.21631C10.0247 4.17198 10.0805 4.11847 10.1233 4.05396C10.1897 3.95369 10.2256 3.836 10.2271 3.71582V3.52295C10.2271 2.58872 10.598 1.69212 11.2585 1.03149C11.9192 0.370855 12.8157 0 13.75 0C14.6843 0 15.5808 0.370855 16.2415 1.03149C16.902 1.69212 17.2729 2.58872 17.2729 3.52295V3.62061Z" fill="white"/>
</svg>
