<svg width="21" height="27" viewBox="0 0 21 27" fill="none" xmlns="http://www.w3.org/2000/svg">
<path d="M8.71422 7.59037C8.81915 10.0593 8.2022 11.1386 6.9767 11.9657H6.98089C6.66226 12.1356 6.31293 12.2424 5.95265 12.28L6.37234 24.517C6.37791 24.7483 6.33696 24.9784 6.25187 25.194C6.16677 25.4097 6.0392 25.6066 5.87652 25.7734C5.71383 25.9403 5.51924 26.0737 5.30397 26.1661C5.0887 26.2585 4.857 26.308 4.62222 26.3118H4.42916C4.22012 26.3091 4.0137 26.2655 3.8219 26.1836C3.63009 26.1017 3.45672 25.983 3.31185 25.8345C3.16698 25.6859 3.05351 25.5105 2.97802 25.3184C2.90253 25.1264 2.86652 24.9214 2.8721 24.7155L3.34635 12.2842C3.05862 12.2469 2.77667 12.1747 2.50697 12.0691C1.101 11.4571 0.630941 10.022 0.601562 8.25618L0.803015 2.18114C0.828196 1.56081 0.710682 0.828829 1.28986 0.464905C1.41623 0.378902 1.5633 0.327101 1.71637 0.314683C1.86943 0.302265 2.02312 0.329665 2.16207 0.394143C2.30101 0.458621 2.42034 0.557917 2.50812 0.6821C2.5959 0.806282 2.64905 0.950998 2.66225 1.10177L2.5993 6.39107C2.58434 6.48102 2.58942 6.5731 2.61417 6.66092C2.63892 6.74874 2.68276 6.83021 2.74265 6.89968C2.80254 6.96914 2.87704 7.02494 2.96099 7.06321C3.04494 7.10148 3.13634 7.1213 3.22884 7.1213C3.32134 7.1213 3.41273 7.10148 3.49669 7.06321C3.58064 7.02494 3.65514 6.96914 3.71503 6.89968C3.77491 6.83021 3.81875 6.74874 3.84351 6.66092C3.86826 6.5731 3.87333 6.48102 3.85838 6.39107C3.85838 4.9147 3.92133 2.54506 3.92133 1.06455C3.93812 0.0182714 5.52036 0.113388 5.52036 1.06455L5.45741 6.39107C5.45741 6.58301 5.53479 6.76709 5.67253 6.90281C5.81027 7.03854 5.99708 7.11479 6.19187 7.11479C6.38666 7.11479 6.57348 7.03854 6.71121 6.90281C6.84895 6.76709 6.92633 6.58301 6.92633 6.39107L6.98929 1.24238C7.06903 0.249859 8.71422 0.357382 8.71422 1.24238V7.59037Z" fill="white"/>
<path d="M14.5102 13.347L14.5312 24.2688H14.5186C14.5186 27.0934 17.9475 26.8577 17.8761 24.3226L17.511 13.3056C22.4634 12.0278 21.7793 0.38633 16.0211 0.320162C11.2827 0.262265 9.77185 10.6506 14.5102 13.347Z" fill="white"/>
</svg>
