<svg width="27" height="21" viewBox="0 0 27 21" fill="none" xmlns="http://www.w3.org/2000/svg">
<path d="M13.4612 0.986328C13.1322 0.986328 12.8072 1.0466 12.4985 1.16283L1.10342 5.52383C0.717494 5.67451 0.461563 6.06196 0.461563 6.49677C0.461563 6.93158 0.717494 7.31903 1.10342 7.46971L3.45555 8.36946C2.78932 9.48016 2.41152 10.7932 2.41152 12.1751V13.3848C2.41152 14.6075 1.97278 15.8688 1.5056 16.8633C1.24154 17.4229 0.940926 17.974 0.59156 18.482C0.461563 18.6671 0.425001 18.9082 0.498124 19.1277C0.571248 19.3473 0.741869 19.5109 0.953113 19.5668L3.55305 20.2557C3.72367 20.303 3.90648 20.2686 4.05679 20.1696C4.2071 20.0705 4.31272 19.9069 4.34522 19.7218C4.69459 17.8793 4.5199 16.2261 4.25991 15.0423C4.12991 14.4309 3.95523 13.8067 3.71148 13.2341V12.1751C3.71148 10.875 4.12585 9.64805 4.84489 8.66651C5.36894 7.99922 6.04737 7.4611 6.8436 7.12961L13.2216 4.4734C13.5547 4.33564 13.9325 4.50784 14.0625 4.86086C14.1925 5.21387 14.03 5.61424 13.6969 5.752L7.3189 8.4082C6.81516 8.61915 6.37236 8.94203 6.0108 9.33809L12.4944 11.8178C12.8031 11.934 13.1281 11.9943 13.4572 11.9943C13.7862 11.9943 14.1112 11.934 14.42 11.8178L25.8191 7.46971C26.205 7.32334 26.4609 6.93158 26.4609 6.49677C26.4609 6.06196 26.205 5.67451 25.8191 5.52383L14.424 1.16283C14.1153 1.0466 13.7903 0.986328 13.4612 0.986328ZM5.66144 17.1732C5.66144 18.6929 9.15511 20.2729 13.4612 20.2729C17.7674 20.2729 21.2611 18.6929 21.2611 17.1732L20.6395 10.9137L14.8628 13.1265C14.4119 13.2987 13.9366 13.3848 13.4612 13.3848C12.9859 13.3848 12.5066 13.2987 12.0597 13.1265L6.28299 10.9137L5.66144 17.1732Z" fill="white"/>
</svg>
