<svg width="21" height="20" viewBox="0 0 21 20" fill="none" xmlns="http://www.w3.org/2000/svg">
<path d="M11.2619 2.70673C11.2619 2.51329 11.1845 2.32728 11.0477 2.1905C10.911 2.05394 10.7257 1.97721 10.5324 1.97721C10.3391 1.97721 10.1538 2.05394 10.017 2.1905C9.88024 2.32728 9.80287 2.51329 9.80287 2.70673V2.84776C9.80114 3.28221 9.67268 3.70686 9.43289 4.06913C9.19295 4.43143 8.85204 4.71622 8.45265 4.88745C8.38115 4.91809 8.30555 4.93727 8.22892 4.94838C7.86699 5.07441 7.47804 5.10591 7.09895 5.03718C6.66081 4.95774 6.25597 4.74962 5.93765 4.43824L5.93068 4.43128L5.8828 4.38253L5.88193 4.38166C5.81425 4.31396 5.73358 4.26075 5.64514 4.22409C5.55662 4.1874 5.46153 4.16838 5.3657 4.16838C5.27003 4.16843 5.17551 4.18747 5.08712 4.22409C4.99871 4.26074 4.91801 4.31398 4.85034 4.38166L4.84947 4.38253C4.78167 4.45025 4.72773 4.5308 4.69103 4.61932C4.65432 4.70786 4.63531 4.80291 4.63531 4.89876C4.63532 4.99459 4.65433 5.08969 4.69103 5.17821C4.71861 5.2447 4.75603 5.3065 4.80159 5.36189L4.84947 5.415L4.90518 5.47071C5.21649 5.78896 5.4255 6.19312 5.50499 6.63115C5.58443 7.0693 5.53069 7.52175 5.3509 7.92913L5.35003 7.92826C5.19237 8.32576 4.92542 8.67056 4.57698 8.91981C4.21337 9.17988 3.77989 9.32453 3.33298 9.33506C3.32614 9.33522 3.31892 9.33593 3.31208 9.33593H3.23896C3.04552 9.33593 2.8595 9.41243 2.72272 9.54922C2.58613 9.68589 2.50955 9.87136 2.50944 10.0646C2.50944 10.258 2.58602 10.444 2.72272 10.5808C2.8595 10.7176 3.04552 10.7941 3.23896 10.7941H3.37998C3.81452 10.7958 4.23904 10.9251 4.60136 11.1649C4.96107 11.4032 5.24372 11.7408 5.41532 12.1365H5.41619C5.59587 12.5438 5.64882 12.9956 5.56941 13.4336C5.48996 13.8717 5.28185 14.2766 4.97047 14.5949L4.96351 14.6019L4.91476 14.6497L4.91389 14.6506C4.84619 14.7183 4.79298 14.799 4.75632 14.8874C4.71963 14.9759 4.7006 15.071 4.7006 15.1668C4.70065 15.2625 4.7197 15.357 4.75632 15.4454C4.79297 15.5338 4.84621 15.6145 4.91389 15.6822L4.91476 15.6831C4.98248 15.7509 5.06302 15.8048 5.15154 15.8415C5.24009 15.8782 5.33514 15.8972 5.43099 15.8972C5.52682 15.8972 5.62191 15.8782 5.71043 15.8415C5.79891 15.8048 5.87953 15.7508 5.94722 15.6831L6.00294 15.6274C6.32119 15.3161 6.72534 15.107 7.16338 15.0276C7.60152 14.9481 8.05397 15.0019 8.46136 15.1816H8.46049C8.85811 15.3393 9.20272 15.607 9.45204 15.9556C9.71211 16.3192 9.85675 16.7527 9.86729 17.1996C9.86745 17.2064 9.86816 17.2136 9.86816 17.2205V17.2936C9.86816 17.487 9.94466 17.673 10.0814 17.8098C10.2181 17.9464 10.4036 18.023 10.5968 18.0231C10.7902 18.0231 10.9763 17.9465 11.113 17.8098C11.2498 17.673 11.3263 17.487 11.3263 17.2936V17.1526C11.3281 16.718 11.4573 16.2935 11.6972 15.9312C11.9355 15.5714 12.2729 15.2879 12.6687 15.1164L12.8228 15.0554C13.1883 14.9257 13.5823 14.8936 13.9658 14.9631C14.3492 15.0327 14.7069 15.2009 15.0035 15.4506L15.1271 15.5621L15.1341 15.569L15.182 15.6178L15.1828 15.6187C15.2505 15.6864 15.3312 15.7396 15.4196 15.7762C15.5082 15.8129 15.6032 15.8319 15.6991 15.8319C15.7947 15.8319 15.8893 15.8128 15.9776 15.7762C16.0661 15.7396 16.1468 15.6863 16.2144 15.6187L16.2153 15.6178C16.2831 15.5501 16.337 15.4695 16.3737 15.381C16.4104 15.2925 16.4295 15.1974 16.4295 15.1016C16.4295 15.0057 16.4104 14.9106 16.3737 14.8221C16.3462 14.7556 16.3087 14.6938 16.2632 14.6384L16.2153 14.5853L16.1596 14.5296C15.8483 14.2114 15.6393 13.8072 15.5598 13.3692C15.4903 12.9858 15.5225 12.5915 15.6521 12.2261L15.7139 12.0712C15.8855 11.6756 16.1682 11.3378 16.5278 11.0997C16.8901 10.8598 17.3147 10.7315 17.7492 10.7297H17.8258C18.0193 10.7297 18.2053 10.6523 18.342 10.5155C18.4786 10.3788 18.5553 10.1934 18.5553 10.0002C18.5553 9.80689 18.4786 9.62154 18.342 9.4848C18.2053 9.34801 18.0193 9.27064 17.8258 9.27064H17.6848C17.2503 9.26891 16.8257 9.14045 16.4634 8.90066C16.1011 8.66073 15.8163 8.31981 15.6451 7.92043C15.6144 7.84888 15.5944 7.77337 15.5833 7.6967C15.4573 7.33484 15.4267 6.94572 15.4954 6.56673C15.5748 6.12858 15.7829 5.72374 16.0943 5.40542L16.1013 5.39846L16.15 5.35058L16.1509 5.34971C16.2186 5.28202 16.2718 5.20135 16.3085 5.11292C16.3451 5.02439 16.3642 4.9293 16.3642 4.83347C16.3641 4.7378 16.3451 4.64328 16.3085 4.5549C16.2718 4.46648 16.2186 4.38579 16.1509 4.31811L16.15 4.31724C16.0823 4.24944 16.0017 4.1955 15.9132 4.1588C15.8247 4.1221 15.7296 4.10308 15.6338 4.10308C15.538 4.10309 15.4429 4.1221 15.3543 4.1588C15.2878 4.18638 15.226 4.2238 15.1707 4.26936L15.1175 4.31724L15.0618 4.37295C14.7436 4.68426 14.3394 4.89327 13.9014 4.97276C13.4632 5.0522 13.0108 4.99847 12.6034 4.81867V4.8178C12.208 4.64618 11.87 4.36426 11.6319 4.00471C11.392 3.64245 11.2637 3.21781 11.2619 2.78334V2.70673ZM12.3153 10.0002C12.3153 9.0155 11.517 8.21728 10.5324 8.21728C9.54773 8.21728 8.74951 9.0155 8.74951 10.0002C8.74951 10.9848 9.54773 11.783 10.5324 11.783C11.517 11.783 12.3153 10.9848 12.3153 10.0002ZM14.0981 10.0002C14.0981 11.9695 12.5017 13.5659 10.5324 13.5659C8.56307 13.5659 6.96663 11.9695 6.96663 10.0002C6.96663 8.03085 8.56307 6.43441 10.5324 6.43441C12.5017 6.43441 14.0981 8.03085 14.0981 10.0002ZM13.0448 2.77637L13.05 2.84079C13.0597 2.90463 13.0829 2.96586 13.1188 3.02013C13.1668 3.09257 13.2348 3.14954 13.3146 3.18379L13.3234 3.18727C13.4048 3.2232 13.4952 3.23444 13.5828 3.21861C13.6704 3.20272 13.7515 3.16075 13.8152 3.09848L13.857 3.05669C14.0902 2.82335 14.3671 2.63806 14.6718 2.51173C14.9768 2.38533 15.3037 2.32022 15.6338 2.32021C15.9639 2.32021 16.2908 2.38535 16.5957 2.51173C16.9005 2.63805 17.1774 2.82339 17.4106 3.05669L17.5768 3.2395C17.7333 3.42999 17.8608 3.64301 17.9555 3.87152C18.0819 4.17638 18.147 4.50346 18.147 4.83347C18.147 5.16362 18.082 5.49131 17.9555 5.7963C17.8608 6.02479 17.7333 6.23783 17.5768 6.42831L17.4106 6.61113L17.3627 6.65988C17.3042 6.72234 17.2649 6.80017 17.2495 6.88448C17.2336 6.97201 17.2441 7.0625 17.28 7.1439C17.302 7.19378 17.318 7.24608 17.3305 7.29886C17.3621 7.34364 17.401 7.38316 17.4471 7.41377C17.5196 7.46176 17.6048 7.48742 17.6918 7.48777H17.8258C18.4921 7.48777 19.1315 7.75229 19.6026 8.22338C20.0737 8.69451 20.3382 9.33387 20.3382 10.0002C20.3382 10.6664 20.0737 11.3058 19.6026 11.7769C19.1315 12.248 18.4921 12.5126 17.8258 12.5126H17.7562L17.6918 12.5178C17.6279 12.5274 17.5667 12.5506 17.5124 12.5865C17.44 12.6345 17.383 12.7026 17.3488 12.7824L17.3453 12.7911C17.3093 12.8725 17.2981 12.963 17.3139 13.0506C17.3298 13.1382 17.3718 13.2193 17.4341 13.283L17.475 13.3239C17.7086 13.5572 17.8944 13.8346 18.0208 14.1396C18.1472 14.4445 18.2123 14.7715 18.2123 15.1016C18.2123 15.4316 18.1472 15.7586 18.0208 16.0635C17.8945 16.3682 17.7083 16.6443 17.475 16.8775L17.4759 16.8783C17.2427 17.1118 16.9658 17.2969 16.661 17.4233C16.3562 17.5497 16.0291 17.6148 15.6991 17.6148C15.3689 17.6148 15.0412 17.5497 14.7362 17.4233C14.5078 17.3285 14.2947 17.201 14.1042 17.0446L13.9214 16.8783L13.8727 16.8305H13.8718C13.8094 16.7722 13.7322 16.7326 13.6481 16.7173C13.5605 16.7014 13.47 16.7119 13.3886 16.7478L13.3799 16.7521V16.7512C13.3001 16.7855 13.2312 16.8425 13.1832 16.9149C13.1352 16.9874 13.1095 17.0726 13.1092 17.1595V17.2936C13.1092 17.9599 12.8447 18.5992 12.3736 19.0704C11.9025 19.5414 11.263 19.806 10.5968 19.806C9.93074 19.8059 9.29192 19.5413 8.82089 19.0704C8.34976 18.5992 8.08528 17.9599 8.08528 17.2936V17.2414L8.07832 17.1752C8.06684 17.1097 8.04157 17.0469 8.00258 16.9924C7.9506 16.9197 7.87748 16.8648 7.79365 16.8339C7.77612 16.8275 7.75851 16.8206 7.74142 16.813C7.66002 16.7771 7.56955 16.7659 7.48199 16.7817C7.39437 16.7976 7.31322 16.8396 7.24956 16.9018L7.20777 16.9436C6.97456 17.177 6.6977 17.3623 6.39294 17.4886C6.088 17.615 5.76109 17.6801 5.43099 17.6801C5.10091 17.6801 4.77397 17.615 4.46904 17.4886C4.16406 17.3622 3.88666 17.1763 3.65334 16.9428V16.9419C3.42053 16.709 3.23541 16.433 3.10925 16.1288C2.98287 15.8239 2.91778 15.4969 2.91773 15.1668C2.91773 14.8367 2.98282 14.509 3.10925 14.204C3.23565 13.8993 3.42078 13.6224 3.65421 13.3892L3.70209 13.3404C3.76056 13.278 3.79992 13.2002 3.81526 13.1158C3.83113 13.0283 3.82065 12.9378 3.78479 12.8564L3.78044 12.8477V12.8468C3.74617 12.7672 3.68991 12.6988 3.61764 12.651C3.56323 12.6149 3.50147 12.5918 3.43744 12.5822L3.37302 12.577H3.23896C2.57267 12.577 1.93331 12.3125 1.46217 11.8414C0.991117 11.3702 0.726562 10.7308 0.726562 10.0646C0.726671 9.39851 0.991229 8.75969 1.46217 8.28867C1.93331 7.81753 2.57267 7.55306 3.23896 7.55306H3.29119C3.3805 7.55091 3.4675 7.52233 3.54017 7.47035C3.61282 7.41837 3.66773 7.34525 3.6986 7.26142L3.7195 7.20919C3.75542 7.12779 3.76666 7.03732 3.75084 6.94977C3.73495 6.86214 3.69298 6.781 3.6307 6.71733L3.58892 6.67555V6.67468C3.35579 6.44156 3.17021 6.16528 3.04395 5.86072C2.91755 5.55577 2.85244 5.22887 2.85243 4.89876C2.85243 4.56868 2.91757 4.24174 3.04395 3.93681C3.17038 3.63183 3.35621 3.35443 3.58979 3.12111C3.8228 2.8881 4.09935 2.70326 4.40375 2.57702C4.7086 2.45064 5.03569 2.38555 5.3657 2.3855C5.69585 2.3855 6.02354 2.45059 6.32852 2.57702C6.63329 2.70343 6.91017 2.88855 7.14335 3.12198L7.19036 3.16812C7.25312 3.22752 7.33158 3.26754 7.4167 3.28303C7.50424 3.2989 7.59472 3.28842 7.67613 3.25256L7.76318 3.21948C7.78552 3.21229 7.80827 3.2066 7.83108 3.2012C7.8757 3.16959 7.91548 3.13143 7.946 3.08542C7.99335 3.01392 8.01898 2.92998 8.01999 2.84428V2.70673C8.01999 2.04048 8.28452 1.40107 8.7556 0.929947C9.22674 0.458811 9.8661 0.194336 10.5324 0.194336C11.1987 0.194336 11.838 0.458811 12.3092 0.929947C12.7803 1.40107 13.0448 2.04048 13.0448 2.70673V2.77637Z" fill="black"/>
</svg>
