<svg width="65" height="65" viewBox="0 0 65 65" fill="none" xmlns="http://www.w3.org/2000/svg">
<g filter="url(#filter0_d_21_324)">
<circle cx="32.5" cy="28.5" r="28.5" fill="#979797"/>
<path d="M25.4466 20.7041C25.6435 20.5072 25.9106 20.3966 26.1891 20.3966C26.4675 20.3966 26.7346 20.5072 26.9315 20.7041L32.5 26.2726L38.0685 20.7041C38.2654 20.5072 38.5325 20.3966 38.8109 20.3966C39.0894 20.3966 39.3565 20.5072 39.5534 20.7041L40.2959 21.4466C40.4928 21.6435 40.6034 21.9106 40.6034 22.1891C40.6034 22.4675 40.4928 22.7346 40.2959 22.9315L34.7274 28.5L40.2959 34.0685C40.4928 34.2654 40.6034 34.5325 40.6034 34.8109C40.6034 35.0894 40.4928 35.3565 40.2959 35.5534L39.5534 36.2959C39.3565 36.4928 39.0894 36.6034 38.8109 36.6034C38.5325 36.6034 38.2654 36.4928 38.0685 36.2959L32.5 30.7274L26.9315 36.2959C26.7346 36.4928 26.4675 36.6034 26.1891 36.6034C25.9106 36.6034 25.6435 36.4928 25.4466 36.2959L24.7041 35.5534C24.5072 35.3565 24.3966 35.0894 24.3966 34.8109C24.3966 34.5325 24.5072 34.2654 24.7041 34.0685L30.2726 28.5L24.7041 22.9315C24.5072 22.7346 24.3966 22.4675 24.3966 22.1891C24.3966 21.9106 24.5072 21.6435 24.7041 21.4466L25.4466 20.7041Z" fill="#FDFDFD"/>
</g>
<defs>
<filter id="filter0_d_21_324" x="0" y="0" width="65" height="65" filterUnits="userSpaceOnUse" color-interpolation-filters="sRGB">
<feFlood flood-opacity="0" result="BackgroundImageFix"/>
<feColorMatrix in="SourceAlpha" type="matrix" values="0 0 0 0 0 0 0 0 0 0 0 0 0 0 0 0 0 0 127 0" result="hardAlpha"/>
<feOffset dy="4"/>
<feGaussianBlur stdDeviation="2"/>
<feComposite in2="hardAlpha" operator="out"/>
<feColorMatrix type="matrix" values="0 0 0 0 0 0 0 0 0 0 0 0 0 0 0 0 0 0 0.25 0"/>
<feBlend mode="normal" in2="BackgroundImageFix" result="effect1_dropShadow_21_324"/>
<feBlend mode="normal" in="SourceGraphic" in2="effect1_dropShadow_21_324" result="shape"/>
</filter>
</defs>
</svg>
