<?xml version="1.0" encoding="UTF-8" standalone="no" ?>
<!DOCTYPE svg PUBLIC "-//W3C//DTD SVG 1.1//EN" "http://www.w3.org/Graphics/SVG/1.1/DTD/svg11.dtd">
<svg xmlns="http://www.w3.org/2000/svg" xmlns:xlink="http://www.w3.org/1999/xlink" version="1.1" width="57" height="57" viewBox="0 0 57 57" xml:space="preserve">
<desc>Created with Fabric.js 5.2.4</desc>
<defs>
</defs>
<rect x="0" y="0" width="100%" height="100%" fill="transparent"></rect>
<g transform="matrix(1 0 0 1 28.5 28.5)" id="f945a92a-191e-4ea9-b49f-cf5860cb5db9"  >
<rect style="stroke: none; stroke-width: 1; stroke-dasharray: none; stroke-linecap: butt; stroke-dashoffset: 0; stroke-linejoin: miter; stroke-miterlimit: 4; fill: rgb(255,255,255); fill-rule: nonzero; opacity: 1; visibility: hidden;" vector-effect="non-scaling-stroke"  x="-28.5" y="-28.5" rx="0" ry="0" width="57" height="57" />
</g>
<g transform="matrix(Infinity NaN NaN Infinity 0 0)" id="cb306681-4441-47e0-a448-6dcfe0ad10e6"  >
</g>
<g transform="matrix(1 0 0 1 28.5 28.5)"  >
<g style="" vector-effect="non-scaling-stroke"   >
		<g transform="matrix(1 0 0 1 0 0)"  >
<circle style="stroke: none; stroke-width: 1; stroke-dasharray: none; stroke-linecap: butt; stroke-dashoffset: 0; stroke-linejoin: miter; stroke-miterlimit: 4; fill: rgb(151,151,151); fill-rule: nonzero; opacity: 1;" vector-effect="non-scaling-stroke"  cx="0" cy="0" r="28.5" />
</g>
		<g transform="matrix(1 0 0 1 -0.18 -3.84)"  >
<path style="stroke: none; stroke-width: 1; stroke-dasharray: none; stroke-linecap: butt; stroke-dashoffset: 0; stroke-linejoin: miter; stroke-miterlimit: 4; fill: rgb(177,181,188); fill-rule: nonzero; opacity: 1;" vector-effect="non-scaling-stroke"  transform=" translate(-32.32, -24.66)" d="M 29.7167 40.2978 C 27.7425 37.1834 25.6026 35.7264 23.2255 33.4408 C 20.8483 31.1551 19.622 29.6531 18.6541 26.5838 C 17.7726 23.7883 17.9227 20.9153 18.2884 19.0868 C 18.6541 17.2583 20.1997 14.3285 22.494 12.1384 C 24.5539 10.1722 26.0465 9.19805 28.8025 8.48135 C 31.3941 7.80738 33.0518 7.87255 35.6594 8.48135 C 38.6148 9.17132 40.3478 10.0153 42.5164 12.1384 C 44.7318 14.3073 45.9906 17.0755 46.3563 19.0868 C 46.7221 21.0982 46.8413 23.7787 45.9906 26.5838 C 45.0735 29.608 43.8878 31.338 41.6936 33.4408 C 39.4994 35.5436 36.9505 37.1557 34.8366 40.2978 C 33.5797 42.1659 32.6282 40.9136 32.1711 40.9135 C 31.714 40.9135 30.9052 42.1725 29.7167 40.2978 Z" stroke-linecap="round" />
</g>
		<g transform="matrix(1 0 0 1 3.55 -3.84)"  >
<path style="stroke: none; stroke-width: 1; stroke-dasharray: none; stroke-linecap: butt; stroke-dashoffset: 0; stroke-linejoin: miter; stroke-miterlimit: 4; fill: rgb(229,231,232); fill-rule: nonzero; opacity: 1;" vector-effect="non-scaling-stroke"  transform=" translate(-36.05, -24.66)" d="M 29.9768 36.7079 C 31.3003 33.2662 28.1483 35.3365 25.7712 33.0509 C 23.394 30.7652 28.1105 28.8975 27.1426 25.8282 C 26.2611 23.0326 27.7825 22.8111 28.1482 20.9826 C 28.5139 19.1541 30.6081 19.3328 32.9024 17.1426 C 34.9623 15.1764 26.4121 9.19805 29.1681 8.48135 C 31.7597 7.80738 33.4174 7.87255 36.0251 8.48135 C 38.9805 9.17132 40.7134 10.0153 42.8821 12.1384 C 45.0975 14.3073 46.3563 17.0755 46.722 19.0868 C 47.0877 21.0982 47.207 23.7787 46.3563 26.5838 C 45.4391 29.608 44.2534 31.338 42.0592 33.4408 C 39.865 35.5436 37.3162 37.1557 35.2022 40.2978 C 33.9454 42.1659 32.9938 40.9136 32.5367 40.9135 C 32.0796 40.9135 29.1681 38.8107 29.9768 36.7079 Z" stroke-linecap="round" />
</g>
		<g transform="matrix(1 0 0 1 0.13 -5.51)"  >
<circle style="stroke: none; stroke-width: 1; stroke-dasharray: none; stroke-linecap: butt; stroke-dashoffset: 0; stroke-linejoin: miter; stroke-miterlimit: 4; fill: rgb(231,231,231); fill-rule: nonzero; opacity: 1;" vector-effect="non-scaling-stroke"  cx="0" cy="0" r="9.69121" />
</g>
		<g transform="matrix(1 0 0 1 0.24 17.4)"  >
<path style="stroke: none; stroke-width: 1; stroke-dasharray: none; stroke-linecap: butt; stroke-dashoffset: 0; stroke-linejoin: miter; stroke-miterlimit: 4; fill: rgb(255,255,255); fill-rule: nonzero; opacity: 1;" vector-effect="non-scaling-stroke"  transform=" translate(-32.74, -45.9)" d="M 29.8262 46.0561 C 29.5732 44.8164 30.5206 43.6562 31.7858 43.6562 L 33.6851 43.6562 C 34.9981 43.6562 35.9549 44.9 35.6182 46.1691 L 35.4909 46.649 C 35.2583 47.5257 34.4648 48.1361 33.5577 48.1361 L 31.8838 48.1361 C 30.9334 48.1361 30.1142 47.4672 29.9242 46.536 L 29.8262 46.0561 Z" stroke-linecap="round" />
</g>
		<g transform="matrix(1 0 0 1 0.13 -5.51)"  >
<path style="stroke: none; stroke-width: 1; stroke-dasharray: none; stroke-linecap: butt; stroke-dashoffset: 0; stroke-linejoin: miter; stroke-miterlimit: 4; fill: rgb(255,255,255); fill-rule: nonzero; opacity: 1;" vector-effect="non-scaling-stroke"  transform=" translate(-32.63, -22.99)" d="M 38.1139 22.9941 C 38.1139 26.0237 35.6579 28.4796 32.6283 28.4796 C 29.5987 28.4796 27.1427 26.0237 27.1427 22.9941 C 27.1427 19.9645 29.5987 17.5085 32.6283 17.5085 C 35.6579 17.5085 38.1139 19.9645 38.1139 22.9941 Z" stroke-linecap="round" />
</g>
</g>
</g>
</svg>