<svg width="22" height="22" viewBox="0 0 22 22" fill="none" xmlns="http://www.w3.org/2000/svg">
<path d="M1.78125 14.4418V6.95337C1.78125 6.21928 1.78034 5.61499 1.82043 5.12436C1.86137 4.62332 1.94908 4.16236 2.16952 3.72974C2.51135 3.05893 3.05698 2.51331 3.72779 2.17147C4.16041 1.95104 4.62137 1.86332 5.12241 1.82238C5.61303 1.78229 6.21733 1.7832 6.95142 1.7832H8.02132C8.51365 1.7832 8.91276 2.18232 8.91276 2.67464C8.91276 3.16697 8.51365 3.56608 8.02132 3.56608H6.95142C6.188 3.56608 5.66897 3.56639 5.26779 3.59916C4.87697 3.63109 4.67682 3.68918 4.5374 3.76021C4.20199 3.93113 3.92918 4.20395 3.75826 4.53935C3.68722 4.67877 3.62914 4.87892 3.59721 5.26974C3.56444 5.67092 3.56413 6.18996 3.56413 6.95337V14.4418C3.56413 15.2052 3.56444 15.7243 3.59721 16.1254C3.62914 16.5163 3.68722 16.7164 3.75826 16.8558C3.92918 17.1912 4.20199 17.464 4.5374 17.635C4.67682 17.706 4.87697 17.7641 5.26779 17.796C5.66897 17.8288 6.188 17.8291 6.95142 17.8291H8.02132C8.51365 17.8291 8.91276 18.2282 8.91276 18.7205C8.91276 19.2129 8.51365 19.612 8.02132 19.612H6.95142C6.21733 19.612 5.61303 19.6129 5.12241 19.5728C4.62137 19.5319 4.16041 19.4441 3.72779 19.2237C3.05698 18.8819 2.51135 18.3363 2.16952 17.6654C1.94908 17.2328 1.86137 16.7719 1.82043 16.2708C1.78034 15.7802 1.78125 15.1759 1.78125 14.4418ZM13.6311 5.61012C13.9575 5.28375 14.4736 5.26361 14.8238 5.54918L14.8917 5.61012L19.3489 10.0673C19.697 10.4154 19.697 10.9797 19.3489 11.3279L14.8917 15.7851C14.5435 16.1332 13.9792 16.1332 13.6311 15.7851C13.283 15.4369 13.283 14.8726 13.6311 14.5245L16.5666 11.589H8.02132C7.52899 11.589 7.12988 11.1899 7.12988 10.6976C7.12988 10.2053 7.52899 9.80615 8.02132 9.80615H16.5666L13.6311 6.87067L13.5702 6.80277C13.2846 6.45264 13.3047 5.93649 13.6311 5.61012Z" fill="black"/>
</svg>
