<svg width="20" height="20" viewBox="0 0 20 20" fill="none" xmlns="http://www.w3.org/2000/svg">
<path d="M1.66406 13.5003V10.0001C1.66406 9.53989 2.03716 9.1668 2.4974 9.1668C2.95763 9.1668 3.33073 9.53989 3.33073 10.0001V13.5003C3.33073 14.214 3.33102 14.6992 3.36166 15.0742C3.39151 15.4395 3.4458 15.6266 3.51221 15.757C3.67199 16.0705 3.92702 16.3255 4.24056 16.4853C4.37089 16.5517 4.558 16.606 4.92334 16.6359C5.29837 16.6665 5.78358 16.6668 6.49723 16.6668H13.4976C14.2112 16.6668 14.6964 16.6665 15.0715 16.6359C15.4368 16.606 15.6239 16.5517 15.7542 16.4853C16.0678 16.3255 16.3228 16.0705 16.4826 15.757C16.549 15.6266 16.6033 15.4395 16.6331 15.0742C16.6638 14.6992 16.6641 14.214 16.6641 13.5003V10.0001C16.6641 9.53989 17.0372 9.1668 17.4974 9.1668C17.9576 9.1668 18.3307 9.53989 18.3307 10.0001V13.5003C18.3307 14.1865 18.3316 14.7514 18.2941 15.2101C18.2558 15.6785 18.1738 16.1094 17.9678 16.5138C17.6482 17.1409 17.1382 17.651 16.5111 17.9705C16.1066 18.1766 15.6757 18.2586 15.2074 18.2968C14.7487 18.3343 14.1838 18.3335 13.4976 18.3335H6.49723C5.81099 18.3335 5.24609 18.3343 4.78744 18.2968C4.31906 18.2586 3.88815 18.1766 3.48373 17.9705C2.85664 17.651 2.34658 17.1409 2.02702 16.5138C1.82096 16.1094 1.73896 15.6785 1.70069 15.2101C1.66321 14.7514 1.66406 14.1865 1.66406 13.5003ZM9.16406 12.5001V4.51185L7.25326 6.42266C6.92782 6.74809 6.40031 6.74809 6.07487 6.42266C5.74943 6.09722 5.74943 5.56971 6.07487 5.24427L9.4082 1.91094L9.47168 1.85397C9.79899 1.58701 10.2815 1.60584 10.5866 1.91094L13.9199 5.24427L13.9769 5.30775C14.2438 5.63506 14.225 6.11756 13.9199 6.42266C13.6148 6.72775 13.1323 6.74658 12.805 6.47962L12.7415 6.42266L10.8307 4.51185V12.5001C10.8307 12.9604 10.4576 13.3335 9.9974 13.3335C9.53716 13.3335 9.16406 12.9604 9.16406 12.5001Z" fill="#1E1E1E"/>
</svg>
