<svg width="14" height="21" viewBox="0 0 14 21" fill="none" xmlns="http://www.w3.org/2000/svg">
<path d="M6.16406 2.72244C6.16406 2.22125 6.57037 1.81494 7.07156 1.81494C7.57277 1.81494 7.97906 2.22125 7.97906 2.72244V12.2512C7.97906 12.7524 7.57277 13.1587 7.07156 13.1587C6.57037 13.1587 6.16406 12.7524 6.16406 12.2512V2.72244Z" fill="white"/>
<path d="M7.65631 2.51216C8.04137 2.19129 8.09337 1.61906 7.77247 1.23403C7.45167 0.848996 6.8794 0.796974 6.49437 1.11783L3.77187 3.38658C3.38683 3.70744 3.33482 4.27968 3.65567 4.66471C3.97654 5.04975 4.54877 5.10176 4.9338 4.78091L7.65631 2.51216Z" fill="white"/>
<path d="M6.49062 2.51216C6.10559 2.19129 6.05357 1.61906 6.37442 1.23403C6.69529 0.848996 7.26752 0.796974 7.65257 1.11783L10.3751 3.38658C10.7601 3.70744 10.8121 4.27968 10.4912 4.66471C10.1704 5.04975 9.59816 5.10176 9.21311 4.78091L6.49062 2.51216Z" fill="white"/>
<path d="M9.79375 8.16754C9.29254 8.16754 8.88625 7.76123 8.88625 7.26004C8.88625 6.75884 9.29254 6.35254 9.79375 6.35254H10.7012C12.1744 6.35254 13.4237 7.4097 13.4237 8.79581V15.7068C13.4237 17.0929 12.1744 18.15 10.7012 18.15H3.44125C1.96812 18.15 0.71875 17.0929 0.71875 15.7068V8.79581C0.71875 7.4097 1.96812 6.35254 3.44125 6.35254H4.34875C4.84994 6.35254 5.25625 6.75884 5.25625 7.26004C5.25625 7.76123 4.84994 8.16754 4.34875 8.16754H3.44125C2.90958 8.16754 2.53375 8.48555 2.53375 8.79581V15.7068C2.53375 16.017 2.90958 16.335 3.44125 16.335H10.7012C11.233 16.335 11.6087 16.017 11.6087 15.7068V8.79581C11.6087 8.48555 11.233 8.16754 10.7012 8.16754H9.79375Z" fill="white"/>
</svg>
