<svg width="174" height="174" viewBox="0 0 174 174" fill="none" xmlns="http://www.w3.org/2000/svg">
<g filter="url(#filter0_d_3135_12342)">
<circle cx="86.7841" cy="86.7844" r="81.0668" transform="rotate(-1.95428 86.7841 86.7844)" fill="#CACACA"/>
</g>
<path d="M151.509 84.5737C152.728 120.32 124.739 150.288 88.9921 151.507C53.2454 152.727 23.2781 124.738 22.0584 88.9908C20.8387 53.2441 48.8283 23.2768 84.575 22.0571C120.322 20.8373 150.289 48.827 151.509 84.5737Z" fill="#6F6666"/>
<path d="M86.4625 55.4888C86.6442 54.9856 87.3558 54.9856 87.5375 55.4888L93.5992 72.2792C93.6809 72.5056 93.8959 72.6565 94.1366 72.6565H113.614C114.182 72.6565 114.402 73.3954 113.926 73.7062L98.2763 83.9396C98.0547 84.0846 97.9616 84.3628 98.0516 84.6119L104.053 101.236C104.239 101.752 103.662 102.208 103.203 101.908L87.3127 91.5176C87.1227 91.3933 86.8773 91.3933 86.6873 91.5176L70.7971 101.908C70.3379 102.208 69.7606 101.752 69.9469 101.236L75.9484 84.6119C76.0384 84.3628 75.9453 84.0846 75.7237 83.9396L60.0736 73.7062C59.5982 73.3954 59.8183 72.6565 60.3863 72.6565H79.8634C80.1041 72.6565 80.3191 72.5056 80.4008 72.2792L86.4625 55.4888Z" fill="white"/>
<path d="M48.4895 78.6645C48.5682 78.132 49.2723 77.9938 49.5465 78.457L55.7505 88.9359C55.8738 89.1442 56.1149 89.2522 56.3524 89.2056L69.1605 86.6904C69.7154 86.5814 70.0745 87.2584 69.673 87.6567L60.7413 96.5182C60.5554 96.7026 60.5187 96.9897 60.652 97.2149L66.7816 107.568C67.0614 108.041 66.5781 108.598 66.0707 108.387L54.2325 103.47C54.0196 103.382 53.7745 103.43 53.6108 103.593L44.511 112.621C44.121 113.008 43.4629 112.675 43.5433 112.132L45.3023 100.229C45.3406 99.9703 45.198 99.7184 44.9562 99.618L33.3367 94.7923C32.8144 94.5754 32.8908 93.8128 33.4457 93.7038L46.2539 91.1886C46.4913 91.142 46.6736 90.9509 46.709 90.7115L48.4895 78.6645Z" fill="white"/>
<path d="M124.422 78.6645C124.344 78.132 123.64 77.9938 123.365 78.457L117.161 88.9359C117.038 89.1442 116.797 89.2522 116.56 89.2056L103.751 86.6904C103.196 86.5814 102.837 87.2584 103.239 87.6567L112.171 96.5182C112.356 96.7026 112.393 96.9897 112.26 97.2149L106.13 107.568C105.85 108.041 106.334 108.598 106.841 108.387L118.679 103.47C118.892 103.382 119.137 103.43 119.301 103.593L128.401 112.621C128.791 113.008 129.449 112.675 129.369 112.132L127.61 100.229C127.571 99.9703 127.714 99.7184 127.956 99.618L139.575 94.7923C140.097 94.5754 140.021 93.8128 139.466 93.7038L126.658 91.1886C126.421 91.142 126.238 90.9509 126.203 90.7115L124.422 78.6645Z" fill="white"/>
<defs>
<filter id="filter0_d_3135_12342" x="0.0164309" y="0.0167971" width="173.535" height="173.535" filterUnits="userSpaceOnUse" color-interpolation-filters="sRGB">
<feFlood flood-opacity="0" result="BackgroundImageFix"/>
<feColorMatrix in="SourceAlpha" type="matrix" values="0 0 0 0 0 0 0 0 0 0 0 0 0 0 0 0 0 0 127 0" result="hardAlpha"/>
<feOffset/>
<feGaussianBlur stdDeviation="2.85"/>
<feComposite in2="hardAlpha" operator="out"/>
<feColorMatrix type="matrix" values="0 0 0 0 0 0 0 0 0 0 0 0 0 0 0 0 0 0 0.25 0"/>
<feBlend mode="normal" in2="BackgroundImageFix" result="effect1_dropShadow_3135_12342"/>
<feBlend mode="normal" in="SourceGraphic" in2="effect1_dropShadow_3135_12342" result="shape"/>
</filter>
</defs>
</svg>
