<svg width="180" height="180" viewBox="0 0 180 180" fill="none" xmlns="http://www.w3.org/2000/svg">
<g filter="url(#filter0_d_2834_12822)">
<circle cx="90.3551" cy="89.785" r="83.785" fill="#F5F5F5"/>
</g>
<path d="M157.289 89.784C157.289 126.751 127.321 156.718 90.3544 156.718C53.3876 156.718 23.42 126.751 23.42 89.784C23.42 52.8172 53.3876 22.8496 90.3544 22.8496C127.321 22.8496 157.289 52.8172 157.289 89.784Z" fill="#D00C0C"/>
<path d="M90.3535 52.7451L90.3643 69.5236C90.3645 69.9055 90.7321 70.1797 91.0983 70.0711L108.605 64.8772L91.1811 70.0672C90.7936 70.1827 90.6453 70.6531 90.8966 70.97L101.634 84.5074L90.8008 70.883C90.572 70.5952 90.135 70.5952 89.9062 70.883L79.0733 84.5074L89.8105 70.97C90.0618 70.6531 89.9135 70.1827 89.5259 70.0672L72.1018 64.8772L89.6088 70.0711C89.9749 70.1797 90.3425 69.9055 90.3427 69.5236L90.3535 52.7451Z" fill="#D00C0C"/>
<path d="M90.814 58.0391L122.411 79.4387V124.564H57.843V80.0599L90.814 58.0391Z" fill="white"/>
<path d="M57.843 80.0599L90.814 58.0391L122.411 79.4387M57.843 80.0599V124.564H122.411V79.4387M57.843 80.0599L122.411 79.4387M122.411 79.4387C116.826 79.4718 126.075 83.567 122.411 79.4387Z" stroke="white"/>
<path d="M90.1689 45.0122L47.5307 73.8321L51.3011 79.3397L90.1689 53.8516L90.1689 45.0122Z" fill="white" stroke="white"/>
<path d="M91.0806 45.0122L133.719 73.8321L129.948 79.3397L91.0806 53.8516L91.0806 45.0122Z" fill="white" stroke="white"/>
<defs>
<filter id="filter0_d_2834_12822" x="0.870069" y="0.3" width="178.97" height="178.97" filterUnits="userSpaceOnUse" color-interpolation-filters="sRGB">
<feFlood flood-opacity="0" result="BackgroundImageFix"/>
<feColorMatrix in="SourceAlpha" type="matrix" values="0 0 0 0 0 0 0 0 0 0 0 0 0 0 0 0 0 0 127 0" result="hardAlpha"/>
<feOffset/>
<feGaussianBlur stdDeviation="2.85"/>
<feComposite in2="hardAlpha" operator="out"/>
<feColorMatrix type="matrix" values="0 0 0 0 0 0 0 0 0 0 0 0 0 0 0 0 0 0 0.25 0"/>
<feBlend mode="normal" in2="BackgroundImageFix" result="effect1_dropShadow_2834_12822"/>
<feBlend mode="normal" in="SourceGraphic" in2="effect1_dropShadow_2834_12822" result="shape"/>
</filter>
</defs>
</svg>
