<svg width="180" height="180" viewBox="0 0 180 180" fill="none" xmlns="http://www.w3.org/2000/svg">
<g filter="url(#filter0_d_2834_12803)">
<circle cx="89.785" cy="89.785" r="83.785" fill="#D1D1D1"/>
</g>
<path d="M156.719 89.784C156.719 126.751 126.751 156.718 89.7844 156.718C52.8175 156.718 22.85 126.751 22.85 89.784C22.85 52.8172 52.8175 22.8496 89.7844 22.8496C126.751 22.8496 156.719 52.8172 156.719 89.784Z" fill="#6F6666"/>
<path d="M89.7834 52.7451L89.7942 69.5236C89.7945 69.9055 90.1621 70.1797 90.5282 70.0711L108.035 64.8772L90.6111 70.0672C90.2235 70.1827 90.0752 70.6531 90.3265 70.97L101.064 84.5074L90.2307 70.883C90.0019 70.5952 89.5649 70.5952 89.3362 70.883L78.5033 84.5074L89.2404 70.97C89.4917 70.6531 89.3434 70.1827 88.9558 70.0672L71.5317 64.8772L89.0387 70.0711C89.4048 70.1797 89.7724 69.9055 89.7727 69.5236L89.7834 52.7451Z" fill="#7C7070"/>
<path d="M90.2439 58.0391L121.841 79.4387V124.564H57.2729V80.0599L90.2439 58.0391Z" fill="white"/>
<path d="M57.2729 80.0599L90.2439 58.0391L121.841 79.4387M57.2729 80.0599V124.564H121.841V79.4387M57.2729 80.0599L121.841 79.4387M121.841 79.4387C116.256 79.4718 125.505 83.567 121.841 79.4387Z" stroke="white"/>
<path d="M89.5989 45.0122L46.9606 73.8321L50.731 79.3397L89.5989 53.8516L89.5989 45.0122Z" fill="white" stroke="white"/>
<path d="M90.5105 45.0122L133.149 73.8321L129.378 79.3397L90.5105 53.8516L90.5105 45.0122Z" fill="white" stroke="white"/>
<defs>
<filter id="filter0_d_2834_12803" x="0.3" y="0.3" width="178.97" height="178.97" filterUnits="userSpaceOnUse" color-interpolation-filters="sRGB">
<feFlood flood-opacity="0" result="BackgroundImageFix"/>
<feColorMatrix in="SourceAlpha" type="matrix" values="0 0 0 0 0 0 0 0 0 0 0 0 0 0 0 0 0 0 127 0" result="hardAlpha"/>
<feOffset/>
<feGaussianBlur stdDeviation="2.85"/>
<feComposite in2="hardAlpha" operator="out"/>
<feColorMatrix type="matrix" values="0 0 0 0 0 0 0 0 0 0 0 0 0 0 0 0 0 0 0.25 0"/>
<feBlend mode="normal" in2="BackgroundImageFix" result="effect1_dropShadow_2834_12803"/>
<feBlend mode="normal" in="SourceGraphic" in2="effect1_dropShadow_2834_12803" result="shape"/>
</filter>
</defs>
</svg>
