<svg width="180" height="180" viewBox="0 0 180 180" fill="none" xmlns="http://www.w3.org/2000/svg">
<g filter="url(#filter0_d_2834_12804)">
<circle cx="89.785" cy="89.785" r="83.785" fill="#D1D1D1"/>
</g>
<path d="M156.719 89.784C156.719 126.751 126.751 156.718 89.7844 156.718C52.8175 156.718 22.85 126.751 22.85 89.784C22.85 52.8172 52.8175 22.8496 89.7844 22.8496C126.751 22.8496 156.719 52.8172 156.719 89.784Z" fill="#6F6666"/>
<path d="M89.7834 52.7451L89.7942 69.5236C89.7945 69.9055 90.1621 70.1797 90.5282 70.0711L108.035 64.8772L90.6111 70.0672C90.2235 70.1827 90.0752 70.6531 90.3265 70.97L101.064 84.5074L90.2307 70.883C90.0019 70.5952 89.5649 70.5952 89.3362 70.883L78.5033 84.5074L89.2404 70.97C89.4917 70.6531 89.3434 70.1827 88.9558 70.0672L71.5317 64.8772L89.0387 70.0711C89.4048 70.1797 89.7724 69.9055 89.7727 69.5236L89.7834 52.7451Z" fill="#D00C0C"/>
<path d="M90.2439 58.0391L121.841 79.4387V124.564H57.2729V80.0599L90.2439 58.0391Z" fill="white"/>
<path d="M57.2729 80.0599L90.2439 58.0391L121.841 79.4387M57.2729 80.0599V124.564H121.841V79.4387M57.2729 80.0599L121.841 79.4387M121.841 79.4387C116.256 79.4718 125.505 83.567 121.841 79.4387Z" stroke="white"/>
<path d="M89.5989 45.0122L46.9606 73.8321L50.731 79.3397L89.5989 53.8516L89.5989 45.0122Z" fill="white" stroke="white"/>
<path d="M90.5105 45.0122L133.149 73.8321L129.378 79.3397L90.5105 53.8516L90.5105 45.0122Z" fill="white" stroke="white"/>
<path fill-rule="evenodd" clip-rule="evenodd" d="M66.1422 112.25C66.1976 108.227 66.9223 104.319 68.2917 100.653C68.8509 99.1855 69.4939 97.7763 70.2488 96.3965L70.5564 95.8387L71.1715 95.7799C72.3737 95.6919 74.275 95.4276 76.4279 94.6056C79.5593 93.4313 82.1036 91.5523 84.0049 89.0275C85.4867 87.0604 86.5212 84.7998 87.0804 82.275L84.564 72.9977L86.9406 71.3242L87.6116 71.8527C89.1494 73.0564 90.771 74.2014 92.4486 75.1702C93.5111 75.8161 94.6294 76.4033 95.7478 76.9317C97.9007 76.8436 100.082 76.6088 102.206 76.2858C104.863 75.8748 107.519 75.317 110.119 74.583L111.181 74.2894L111.545 75.4051C112.188 77.4602 112.468 79.574 112.356 81.7172C112.278 83.5899 110.375 88.5583 109.492 90.7595L109.559 90.7885L108.664 93.0785L103.631 90.9059C104.051 92.0803 104.414 93.284 104.75 94.4877C106.343 100.359 107.126 106.495 107.042 112.749H106.985V113.25H98.145V112.75H98.1233C98.1233 111.165 97.7598 110.049 97.0608 109.374C96.2957 108.626 95.2567 108.662 95.0716 108.669C95.0605 108.669 95.0525 108.669 95.0478 108.669H94.9639H94.908H78.0484H78.0205L78.0053 108.669C77.8326 108.666 76.5313 108.644 75.6439 109.491C75.057 110.078 74.7495 111.017 74.7492 112.25H74.7497V113.25H66.1388V112.749V112.25H66.1422ZM104.699 112.25C104.737 106.404 104.007 100.673 102.485 95.1923C102.066 93.695 101.59 92.1977 101.059 90.7298L100.807 90.0545L102.625 87.7939L107.287 89.8072C108.155 87.6462 109.933 83.0914 110.007 81.5704C110.091 80.1318 109.951 78.6932 109.616 77.284C107.295 77.9005 104.918 78.3996 102.542 78.7519C100.249 79.1043 97.9007 79.3098 95.5521 79.4272H95.2725L95.0209 79.3098C93.7627 78.6932 92.5045 78.0473 91.2743 77.3134C89.9882 76.5501 88.702 75.6987 87.4718 74.7885L89.5408 82.2163L89.4849 82.5098C88.8418 85.5338 87.6396 88.2348 85.8781 90.5541C83.6973 93.4606 80.7895 95.5744 77.2387 96.9249C75.1697 97.6882 73.3244 98.0406 71.9823 98.1873C71.4231 99.2736 70.9199 100.419 70.4725 101.564C69.2145 104.936 68.5459 108.524 68.4911 112.25H72.4006V112.222C72.4006 110.255 72.9598 108.699 74.0782 107.642C75.6719 106.145 77.7688 106.174 78.1882 106.203H94.852C95.2994 106.174 97.1167 106.115 98.5986 107.495C99.7387 108.583 100.375 110.176 100.462 112.25H104.699Z" fill="#7C7070"/>
<path d="M73.075 111.954L67.6802 112.75V106.377L71.5336 96.8175L77.699 95.2243L83.8645 91.241L88.4886 83.2746L86.9472 73.7148L95.4247 78.4947L110.068 76.1048L111.609 82.4779L107.756 91.241L103.132 89.6477L102.361 90.4444L106.214 111.954L100.049 112.75L97.7368 107.174L75.387 107.971L73.075 111.954Z" fill="#7C7070"/>
<defs>
<filter id="filter0_d_2834_12804" x="0.3" y="0.3" width="178.97" height="178.97" filterUnits="userSpaceOnUse" color-interpolation-filters="sRGB">
<feFlood flood-opacity="0" result="BackgroundImageFix"/>
<feColorMatrix in="SourceAlpha" type="matrix" values="0 0 0 0 0 0 0 0 0 0 0 0 0 0 0 0 0 0 127 0" result="hardAlpha"/>
<feOffset/>
<feGaussianBlur stdDeviation="2.85"/>
<feComposite in2="hardAlpha" operator="out"/>
<feColorMatrix type="matrix" values="0 0 0 0 0 0 0 0 0 0 0 0 0 0 0 0 0 0 0.25 0"/>
<feBlend mode="normal" in2="BackgroundImageFix" result="effect1_dropShadow_2834_12804"/>
<feBlend mode="normal" in="SourceGraphic" in2="effect1_dropShadow_2834_12804" result="shape"/>
</filter>
</defs>
</svg>
