<svg width="180" height="180" viewBox="0 0 180 180" fill="none" xmlns="http://www.w3.org/2000/svg">
<g filter="url(#filter0_d_2834_12835)">
<circle cx="90.3551" cy="89.785" r="83.785" fill="#F5F5F5"/>
</g>
<path d="M157.289 89.784C157.289 126.751 127.321 156.718 90.3544 156.718C53.3876 156.718 23.42 126.751 23.42 89.784C23.42 52.8172 53.3876 22.8496 90.3544 22.8496C127.321 22.8496 157.289 52.8172 157.289 89.784Z" fill="#D00C0C"/>
<path d="M90.3535 52.7451L90.3643 69.5236C90.3645 69.9055 90.7321 70.1797 91.0983 70.0711L108.605 64.8772L91.1811 70.0672C90.7936 70.1827 90.6453 70.6531 90.8966 70.97L101.634 84.5074L90.8008 70.883C90.572 70.5952 90.135 70.5952 89.9062 70.883L79.0733 84.5074L89.8105 70.97C90.0618 70.6531 89.9135 70.1827 89.5259 70.0672L72.1018 64.8772L89.6088 70.0711C89.9749 70.1797 90.3425 69.9055 90.3427 69.5236L90.3535 52.7451Z" fill="#D00C0C"/>
<path d="M90.814 58.0391L122.411 79.4387V124.564H57.843V80.0599L90.814 58.0391Z" fill="white"/>
<path d="M57.843 80.0599L90.814 58.0391L122.411 79.4387M57.843 80.0599V124.564H122.411V79.4387M57.843 80.0599L122.411 79.4387M122.411 79.4387C116.826 79.4718 126.075 83.567 122.411 79.4387Z" stroke="white"/>
<path d="M90.1689 45.0122L47.5307 73.8321L51.3011 79.3397L90.1689 53.8516L90.1689 45.0122Z" fill="white" stroke="white"/>
<path d="M91.0806 45.0122L133.719 73.8321L129.948 79.3397L91.0806 53.8516L91.0806 45.0122Z" fill="white" stroke="white"/>
<path fill-rule="evenodd" clip-rule="evenodd" d="M65.6098 114.655C65.6651 110.712 66.3761 106.88 67.7186 103.287C68.2672 101.846 68.8981 100.464 69.6388 99.1099L69.9406 98.5626L70.5441 98.505C71.7236 98.4186 73.589 98.1594 75.7013 97.3528C78.7736 96.2007 81.2699 94.3572 83.1353 91.88C84.5892 89.95 85.6042 87.7321 86.1528 85.2549L83.6839 76.1526L86.0156 74.5107L86.674 75.0292C88.1828 76.2102 89.7738 77.3336 91.4197 78.2842C92.4621 78.9179 93.5594 79.494 94.6567 80.0124C96.7689 79.926 98.9086 79.6956 100.993 79.3787C103.599 78.9755 106.205 78.4282 108.757 77.7081L109.799 77.42L110.156 78.5146C110.787 80.5309 111.061 82.6049 110.951 84.7076C110.875 86.5449 109.008 91.4192 108.141 93.579L108.207 93.6073L107.329 95.8541L102.391 93.7225C102.803 94.8747 103.159 96.0557 103.489 97.2367C105.052 102.998 105.82 109.018 105.738 115.153H105.681V115.655H97.0084V115.155H96.9872C96.9872 113.599 96.6306 112.505 95.9448 111.842C95.1941 111.109 94.1747 111.144 93.993 111.15C93.9822 111.151 93.9743 111.151 93.9697 111.151H93.8874H93.8325H77.2911H77.2637L77.2488 111.151C77.0793 111.148 75.8026 111.126 74.932 111.958C74.3575 112.532 74.0558 113.45 74.0542 114.655H74.0547V115.655H65.6063V115.154V114.655H65.6098ZM103.439 114.655C103.475 108.923 102.76 103.303 101.267 97.928C100.855 96.459 100.389 94.99 99.8676 93.5497L99.6207 92.8872L101.404 90.6692L105.978 92.6447C106.83 90.5243 108.575 86.0559 108.647 84.5636C108.729 83.1521 108.592 81.7407 108.263 80.3581C105.986 80.963 103.654 81.4527 101.323 81.7983C99.0732 82.144 96.7689 82.3456 94.4646 82.4608H94.1903L93.9434 82.3456C92.709 81.7407 91.4746 81.107 90.2676 80.3869C89.0057 79.638 87.7438 78.8026 86.5368 77.9097L88.5668 85.1973L88.5119 85.4853C87.881 88.4522 86.7014 91.1022 84.9732 93.3778C82.8335 96.2295 79.9806 98.3034 76.4968 99.6284C74.4668 100.377 72.6563 100.723 71.3396 100.867C70.7909 101.933 70.2972 103.056 69.8583 104.18C68.625 107.486 67.9691 111.003 67.9143 114.655H71.7499V114.636C71.7499 112.707 72.2985 111.18 73.3958 110.143C74.9594 108.674 77.0168 108.703 77.4283 108.731H93.7777C94.2166 108.703 95.9997 108.645 97.4535 109.999C98.5706 111.065 99.1942 112.625 99.281 114.655H103.439Z" fill="#D00C0C"/>
<path d="M72.4115 114.374L67.1185 115.156V108.903L70.8992 99.5232L76.9484 97.96L82.9975 94.0519L87.5343 86.2358L86.0221 76.8564L94.3396 81.5461L108.706 79.2013L110.219 85.4542L106.438 94.0519L101.901 92.4887L101.145 93.2703L104.926 114.374L98.8765 115.156L96.608 109.684L74.6799 110.466L72.4115 114.374Z" fill="#D00C0C"/>
<defs>
<filter id="filter0_d_2834_12835" x="0.870069" y="0.3" width="178.97" height="178.97" filterUnits="userSpaceOnUse" color-interpolation-filters="sRGB">
<feFlood flood-opacity="0" result="BackgroundImageFix"/>
<feColorMatrix in="SourceAlpha" type="matrix" values="0 0 0 0 0 0 0 0 0 0 0 0 0 0 0 0 0 0 127 0" result="hardAlpha"/>
<feOffset/>
<feGaussianBlur stdDeviation="2.85"/>
<feComposite in2="hardAlpha" operator="out"/>
<feColorMatrix type="matrix" values="0 0 0 0 0 0 0 0 0 0 0 0 0 0 0 0 0 0 0.25 0"/>
<feBlend mode="normal" in2="BackgroundImageFix" result="effect1_dropShadow_2834_12835"/>
<feBlend mode="normal" in="SourceGraphic" in2="effect1_dropShadow_2834_12835" result="shape"/>
</filter>
</defs>
</svg>
