<svg width="180" height="180" viewBox="0 0 180 180" fill="none" xmlns="http://www.w3.org/2000/svg">
<g filter="url(#filter0_d_3141_23129)">
<circle cx="89.785" cy="89.785" r="83.785" fill="white"/>
</g>
<path d="M156.719 89.784C156.719 126.751 126.751 156.718 89.7845 156.718C52.8176 156.718 22.8501 126.751 22.8501 89.784C22.8501 52.8172 52.8176 22.8496 89.7845 22.8496C126.751 22.8496 156.719 52.8172 156.719 89.784Z" fill="#D00C0C"/>
<path d="M56.9423 69.7617C56.9423 69.7617 57.0591 67.067 58.392 66.0362C59.7248 65.0054 62.1442 64.9834 62.1442 64.9834H118.683C118.683 64.9834 121.087 65.4141 122.179 66.3602C123.335 67.3612 123.97 69.7617 123.97 69.7617V80.0471C123.97 80.0471 123.849 81.6965 123.288 82.5577C122.767 83.3575 121.924 84.2585 120.474 85.2303C118.744 86.3898 116.87 87.9504 117.319 90.9805C117.682 93.4362 118.672 94.3334 120.474 95.6777C121.668 96.5686 122.771 97.1487 123.288 98.1074C123.73 98.9271 123.97 100.375 123.97 100.375V110.903C123.97 110.903 123.375 113.135 122.35 114.143C121.262 115.212 118.683 115.925 118.683 115.925H62.1442C62.1442 115.925 59.927 115.52 58.392 114.224C57.265 113.273 56.9423 110.903 56.9423 110.903V100.375C56.9423 100.375 56.9706 98.8248 57.454 98.0264C58.1129 96.9379 59.6461 96.3237 60.7797 95.6777C61.6325 95.1918 63.2958 93.2882 63.5086 90.9805C63.7569 88.289 62.728 87.093 61.6325 85.8782C60.7436 84.8924 58.1094 83.7776 57.454 82.6387C56.9426 81.7502 56.9423 80.0471 56.9423 80.0471V69.7617Z" fill="#F5F5F5"/>
<path d="M90.6188 73.4827C90.7988 72.9758 91.5157 72.9758 91.6957 73.4827L95.3309 83.7184C95.4118 83.9463 95.6275 84.0986 95.8693 84.0986H107.517C108.083 84.0986 108.305 84.8327 107.833 85.1459L98.5002 91.3498C98.2819 91.4949 98.1903 91.7699 98.278 92.0169L101.863 102.112C102.047 102.629 101.466 103.083 101.008 102.779L91.4736 96.441C91.2819 96.3136 91.0326 96.3136 90.8409 96.441L81.3062 102.779C80.8487 103.083 80.2675 102.629 80.4514 102.112L84.0365 92.0169C84.1242 91.7699 84.0326 91.4949 83.8143 91.3498L74.4811 85.1459C74.0099 84.8327 74.2317 84.0986 74.7975 84.0986H86.4451C86.687 84.0986 86.9027 83.9463 86.9836 83.7184L90.6188 73.4827Z" fill="#D00C0C"/>
<defs>
<filter id="filter0_d_3141_23129" x="0.3" y="0.3" width="178.97" height="178.97" filterUnits="userSpaceOnUse" color-interpolation-filters="sRGB">
<feFlood flood-opacity="0" result="BackgroundImageFix"/>
<feColorMatrix in="SourceAlpha" type="matrix" values="0 0 0 0 0 0 0 0 0 0 0 0 0 0 0 0 0 0 127 0" result="hardAlpha"/>
<feOffset/>
<feGaussianBlur stdDeviation="2.85"/>
<feComposite in2="hardAlpha" operator="out"/>
<feColorMatrix type="matrix" values="0 0 0 0 0 0 0 0 0 0 0 0 0 0 0 0 0 0 0.25 0"/>
<feBlend mode="normal" in2="BackgroundImageFix" result="effect1_dropShadow_3141_23129"/>
<feBlend mode="normal" in="SourceGraphic" in2="effect1_dropShadow_3141_23129" result="shape"/>
</filter>
</defs>
</svg>
