<svg width="21" height="16" viewBox="0 0 21 16" fill="none" xmlns="http://www.w3.org/2000/svg">
<path fill-rule="evenodd" clip-rule="evenodd" d="M7.14171 13.308C6.91153 14.4797 5.87879 15.3636 4.63961 15.3636C3.40043 15.3636 2.3677 14.4797 2.13752 13.308H0.481373C0.215518 13.308 0 13.0925 0 12.8266C0 12.5608 0.215518 12.3452 0.481373 12.3452H2.13256C2.35249 11.1607 3.3913 10.2637 4.63961 10.2637C5.88792 10.2637 6.92673 11.1607 7.14666 12.3452H19.6322C19.8981 12.3452 20.1136 12.5608 20.1136 12.8266C20.1136 13.0925 19.8981 13.308 19.6322 13.308H7.14171ZM6.09398 12.8136C6.09398 13.6184 5.4416 14.2708 4.63685 14.2708C3.8321 14.2708 3.17972 13.6184 3.17972 12.8136C3.17972 12.0089 3.8321 11.3565 4.63685 11.3565C5.4416 11.3565 6.09398 12.0089 6.09398 12.8136Z" fill="white"/>
<path fill-rule="evenodd" clip-rule="evenodd" d="M11.4812 7.53181C11.7114 6.36011 12.7442 5.47622 13.9833 5.47622C15.2225 5.47622 16.2552 6.36011 16.4854 7.53181H19.6453C19.9112 7.53181 20.1267 7.74733 20.1267 8.01318C20.1267 8.27904 19.9112 8.49455 19.6453 8.49455H16.4904C16.2705 9.67917 15.2316 10.5762 13.9833 10.5762C12.735 10.5762 11.6962 9.67917 11.4763 8.49455L0.494486 8.49455C0.228632 8.49455 0.013113 8.27904 0.013113 8.01318C0.013113 7.74733 0.228632 7.53181 0.494486 7.53181L11.4812 7.53181ZM12.529 8.02622C12.529 7.22147 13.1813 6.56909 13.9861 6.56909C14.7908 6.56909 15.4432 7.22147 15.4432 8.02622C15.4432 8.83097 14.7908 9.48335 13.9861 9.48335C13.1813 9.48335 12.529 8.83097 12.529 8.02622Z" fill="white"/>
<path fill-rule="evenodd" clip-rule="evenodd" d="M7.14169 3.68063C6.91148 4.85231 5.87877 5.73619 4.63961 5.73619C3.40046 5.73619 2.36774 4.85231 2.13753 3.68063H0.481373C0.215518 3.68063 0 3.46511 0 3.19926C0 2.9334 0.215518 2.71788 0.481373 2.71788H2.13255C2.35245 1.53325 3.39128 0.63623 4.63961 0.63623C5.88795 0.63623 6.92678 1.53325 7.14668 2.71788H19.6322C19.8981 2.71788 20.1136 2.9334 20.1136 3.19926C20.1136 3.46511 19.8981 3.68063 19.6322 3.68063H7.14169ZM6.09398 3.18619C6.09398 3.99094 5.4416 4.64332 4.63685 4.64332C3.8321 4.64332 3.17972 3.99094 3.17972 3.18619C3.17972 2.38144 3.8321 1.72906 4.63685 1.72906C5.4416 1.72906 6.09398 2.38144 6.09398 3.18619Z" fill="white"/>
</svg>
