<svg width="180" height="180" viewBox="0 0 180 180" fill="none" xmlns="http://www.w3.org/2000/svg">
<g filter="url(#filter0_d_3024_11873)">
<circle cx="89.5935" cy="89.5939" r="83.785" transform="rotate(-1.95428 89.5935 89.5939)" fill="#D1D1D1"/>
</g>
<path d="M156.489 87.3137C157.749 124.259 128.821 155.231 91.8757 156.492C54.9304 157.752 23.9583 128.824 22.6976 91.8789C21.437 54.9335 50.3652 23.9614 87.3105 22.7008C124.256 21.4402 155.228 50.3683 156.489 87.3137Z" fill="#6F6666"/>
<path d="M85.2682 82.716C85.5691 89.7429 83.7996 92.8149 80.2847 95.169H80.2968C79.3829 95.6526 78.381 95.9565 77.3476 96.0635L78.5513 130.892C78.5673 131.55 78.4499 132.205 78.2058 132.819C77.9617 133.432 77.5959 133.993 77.1293 134.468C76.6627 134.943 76.1046 135.322 75.4871 135.585C74.8697 135.848 74.2051 135.989 73.5318 136H72.9781C72.3785 135.992 71.7865 135.868 71.2363 135.635C70.6862 135.402 70.189 135.064 69.7735 134.642C69.358 134.219 69.0325 133.72 68.816 133.173C68.5995 132.626 68.4962 132.043 68.5122 131.457L69.8724 96.0753C69.0472 95.9693 68.2385 95.7637 67.465 95.4632C63.4324 93.7212 62.0843 89.6369 62 84.611L62.5778 67.3205C62.65 65.555 62.313 63.4716 63.9741 62.4359C64.3366 62.1911 64.7584 62.0436 65.1974 62.0083C65.6364 61.973 66.0772 62.0509 66.4757 62.2345C66.8743 62.418 67.2165 62.7006 67.4683 63.054C67.72 63.4075 67.8725 63.8193 67.9103 64.2485L67.7298 79.3026C67.6869 79.5586 67.7014 79.8207 67.7724 80.0707C67.8434 80.3206 67.9692 80.5525 68.1409 80.7502C68.3127 80.9479 68.5264 81.1067 68.7672 81.2157C69.0079 81.3246 69.2701 81.381 69.5354 81.381C69.8007 81.381 70.0628 81.3246 70.3036 81.2157C70.5444 81.1067 70.7581 80.9479 70.9298 80.7502C71.1016 80.5525 71.2273 80.3206 71.2983 80.0707C71.3693 79.8207 71.3839 79.5586 71.341 79.3026C71.341 75.1007 71.5215 68.3563 71.5215 64.1425C71.5697 61.1647 76.1078 61.4354 76.1078 64.1425L75.9272 79.3026C75.9272 79.8489 76.1491 80.3728 76.5442 80.7591C76.9392 81.1454 77.4751 81.3624 78.0337 81.3624C78.5924 81.3624 79.1282 81.1454 79.5233 80.7591C79.9183 80.3728 80.1403 79.8489 80.1403 79.3026L80.3208 64.6487C80.5495 61.8238 85.2682 62.1298 85.2682 64.6487V82.716Z" fill="white"/>
<path d="M101.892 99.1002L101.952 130.185H101.916C101.916 138.225 111.75 137.554 111.546 130.339L110.498 98.9825C124.703 95.3455 122.74 62.2122 106.225 62.0239C92.635 61.8591 88.3016 91.426 101.892 99.1002Z" fill="white"/>
<defs>
<filter id="filter0_d_3024_11873" x="0.107617" y="0.107617" width="178.972" height="178.972" filterUnits="userSpaceOnUse" color-interpolation-filters="sRGB">
<feFlood flood-opacity="0" result="BackgroundImageFix"/>
<feColorMatrix in="SourceAlpha" type="matrix" values="0 0 0 0 0 0 0 0 0 0 0 0 0 0 0 0 0 0 127 0" result="hardAlpha"/>
<feOffset/>
<feGaussianBlur stdDeviation="2.85"/>
<feComposite in2="hardAlpha" operator="out"/>
<feColorMatrix type="matrix" values="0 0 0 0 0 0 0 0 0 0 0 0 0 0 0 0 0 0 0.25 0"/>
<feBlend mode="normal" in2="BackgroundImageFix" result="effect1_dropShadow_3024_11873"/>
<feBlend mode="normal" in="SourceGraphic" in2="effect1_dropShadow_3024_11873" result="shape"/>
</filter>
</defs>
</svg>
