<svg width="180" height="180" viewBox="0 0 180 180" fill="none" xmlns="http://www.w3.org/2000/svg">
<g filter="url(#filter0_d_3024_11874)">
<circle cx="89.5935" cy="89.5939" r="83.785" transform="rotate(-1.95428 89.5935 89.5939)" fill="#F5F5F5"/>
</g>
<path d="M156.489 87.3137C157.749 124.259 128.821 155.231 91.8757 156.492C54.9304 157.752 23.9583 128.824 22.6976 91.8789C21.437 54.9335 50.3652 23.9614 87.3105 22.7008C124.256 21.4402 155.228 50.3683 156.489 87.3137Z" fill="#D00C0C"/>
<path d="M83.2682 79.716C83.5691 86.7429 81.7996 89.8149 78.2847 92.169H78.2968C77.3829 92.6526 76.381 92.9565 75.3476 93.0635L76.5513 127.892C76.5673 128.55 76.4499 129.205 76.2058 129.819C75.9617 130.432 75.5959 130.993 75.1293 131.468C74.6627 131.943 74.1046 132.322 73.4871 132.585C72.8697 132.848 72.2051 132.989 71.5318 133H70.9781C70.3785 132.992 69.7865 132.868 69.2363 132.635C68.6862 132.402 68.189 132.064 67.7735 131.642C67.358 131.219 67.0325 130.72 66.816 130.173C66.5995 129.626 66.4962 129.043 66.5122 128.457L67.8724 93.0753C67.0472 92.9693 66.2385 92.7637 65.465 92.4632C61.4324 90.7212 60.0843 86.6369 60 81.611L60.5778 64.3205C60.65 62.555 60.313 60.4716 61.9741 59.4359C62.3366 59.1911 62.7584 59.0436 63.1974 59.0083C63.6364 58.973 64.0772 59.0509 64.4757 59.2345C64.8743 59.418 65.2165 59.7006 65.4683 60.054C65.72 60.4075 65.8725 60.8193 65.9103 61.2485L65.7298 76.3026C65.6869 76.5586 65.7014 76.8207 65.7724 77.0707C65.8434 77.3206 65.9692 77.5525 66.1409 77.7502C66.3127 77.9479 66.5264 78.1067 66.7672 78.2157C67.0079 78.3246 67.2701 78.381 67.5354 78.381C67.8007 78.381 68.0628 78.3246 68.3036 78.2157C68.5444 78.1067 68.7581 77.9479 68.9298 77.7502C69.1016 77.5525 69.2273 77.3206 69.2983 77.0707C69.3693 76.8207 69.3839 76.5586 69.341 76.3026C69.341 72.1007 69.5215 65.3563 69.5215 61.1425C69.5697 58.1647 74.1078 58.4354 74.1078 61.1425L73.9272 76.3026C73.9272 76.8489 74.1491 77.3728 74.5442 77.7591C74.9392 78.1454 75.4751 78.3624 76.0337 78.3624C76.5924 78.3624 77.1282 78.1454 77.5233 77.7591C77.9183 77.3728 78.1403 76.8489 78.1403 76.3026L78.3208 61.6487C78.5495 58.8238 83.2682 59.1298 83.2682 61.6487V79.716Z" fill="white"/>
<path d="M99.8917 96.1002L99.9519 127.185H99.9158C99.9158 135.225 109.75 134.554 109.546 127.339L108.498 95.9825C122.703 92.3455 120.74 59.2122 104.225 59.0239C90.635 58.8591 86.3016 88.426 99.8917 96.1002Z" fill="white"/>
<defs>
<filter id="filter0_d_3024_11874" x="0.107617" y="0.107617" width="178.972" height="178.972" filterUnits="userSpaceOnUse" color-interpolation-filters="sRGB">
<feFlood flood-opacity="0" result="BackgroundImageFix"/>
<feColorMatrix in="SourceAlpha" type="matrix" values="0 0 0 0 0 0 0 0 0 0 0 0 0 0 0 0 0 0 127 0" result="hardAlpha"/>
<feOffset/>
<feGaussianBlur stdDeviation="2.85"/>
<feComposite in2="hardAlpha" operator="out"/>
<feColorMatrix type="matrix" values="0 0 0 0 0 0 0 0 0 0 0 0 0 0 0 0 0 0 0.25 0"/>
<feBlend mode="normal" in2="BackgroundImageFix" result="effect1_dropShadow_3024_11874"/>
<feBlend mode="normal" in="SourceGraphic" in2="effect1_dropShadow_3024_11874" result="shape"/>
</filter>
</defs>
</svg>
