<svg width="181" height="181" viewBox="0 0 181 181" fill="none" xmlns="http://www.w3.org/2000/svg">
<g filter="url(#filter0_d_2829_72004)">
<circle cx="90.7114" cy="90.7113" r="84.3437" transform="rotate(0.250296 90.7114 90.7113)" fill="#CACACA"/>
</g>
<path d="M158.091 91.0049C157.928 128.218 127.63 158.253 90.4165 158.091C53.2035 157.928 23.1682 127.629 23.3308 90.4162C23.4933 53.2032 53.7922 23.1679 91.0052 23.3305C128.218 23.493 158.254 53.7919 158.091 91.0049Z" fill="#6F6666"/>
<g filter="url(#filter1_d_2829_72004)">
<path fill-rule="evenodd" clip-rule="evenodd" d="M55.0576 83.5829C54.0434 81.4855 51.3922 81.7569 52.4031 83.8559L55.5989 90.4912C56.617 92.6052 58.4892 90.68 57.4678 88.5676L55.0576 83.5829ZM59.8232 91.713C60.2826 92.6631 61.3198 93.2788 62.2699 92.8194L63.6647 92.145C64.7825 91.6045 64.9266 90.186 64.3861 89.0682L58.948 77.8213C58.4157 76.7203 57.2308 75.9678 56.1298 76.5002L54.7349 77.1746C53.7686 77.6419 53.6079 78.8587 54.0751 79.8251L59.8232 91.713ZM65.9965 85.4637C66.9209 87.383 64.545 87.6708 63.6176 85.7529L61.0899 80.5252C60.1554 78.5924 61.8692 76.8942 62.8008 78.8284L65.9965 85.4637Z" fill="white"/>
<path fill-rule="evenodd" clip-rule="evenodd" d="M102.744 60.5283C101.729 58.4303 99.0772 58.7017 100.088 60.8012L103.284 67.4365C104.303 69.551 106.175 67.6252 105.153 65.5122L102.744 60.5283ZM107.509 68.6588C107.969 69.6086 109.005 70.2239 109.955 69.7647L111.35 69.0903C112.468 68.5497 112.612 67.1307 112.072 66.0127L106.634 54.767C106.102 53.6657 104.916 52.913 103.815 53.4455L102.42 54.1199C101.454 54.587 101.294 55.8033 101.761 56.7692L107.509 68.6588ZM113.682 62.409C114.606 64.328 112.231 64.6158 111.303 62.6983L108.776 57.47C107.841 55.5376 109.555 53.8398 110.486 55.7737L113.682 62.409Z" fill="white"/>
<rect width="37.6477" height="53.6043" rx="3" transform="matrix(0.900241 -0.435391 0.434011 0.900908 58.2544 64.9814)" fill="white"/>
<path fill-rule="evenodd" clip-rule="evenodd" d="M122.237 86.1053C123.961 86.2318 125.572 87.2479 126.381 88.9136L129.597 95.539C130.41 97.2138 130.203 99.1176 129.22 100.549L122.237 86.1053ZM128.696 101.19C128.299 101.601 127.824 101.95 127.279 102.214C127.033 102.333 126.737 102.246 126.582 102.02C125.253 100.08 123.374 98.6695 121.264 97.9002L116.709 88.4805C117.139 87.9866 117.674 87.5697 118.301 87.2664L119.696 86.592C120.249 86.3244 120.828 86.1679 121.406 86.1137L128.696 101.19ZM116.225 94.4399C116.999 96.0343 118.585 97.0115 120.273 97.5774L116.207 89.1681C115.358 90.5682 115.214 92.3571 115.983 93.941L116.225 94.4399Z" fill="white"/>
<path fill-rule="evenodd" clip-rule="evenodd" d="M70.9628 116.72C69.9486 114.622 67.2973 114.894 68.3083 116.993L71.504 123.628C72.5222 125.742 74.3944 123.817 73.373 121.704L70.9628 116.72ZM75.7284 124.85C76.1878 125.8 77.225 126.415 78.1751 125.956C78.4218 125.837 78.5375 125.55 78.4564 125.289C77.9701 123.718 77.854 122.097 78.0702 120.536C78.2486 119.247 78.2135 117.908 77.6472 116.736L74.8532 110.958C74.3208 109.857 73.1359 109.105 72.0349 109.637L70.6401 110.311C69.6737 110.779 69.5131 111.995 69.9803 112.962L75.7284 124.85ZM78.9467 112.465C79.7975 114.231 77.4554 114.614 76.6019 112.849C75.8371 111.267 77.2093 109.768 78.2426 111.189C78.4171 111.429 78.5726 111.688 78.7059 111.965L78.9467 112.465Z" fill="white"/>
<path fill-rule="evenodd" clip-rule="evenodd" d="M83.5285 114.659C80.0481 116.343 78.587 120.531 80.2649 124.014L83.748 131.244C84.9502 133.739 87.4376 135.196 90.0315 135.202C90.0244 135.188 90.0174 135.174 90.0106 135.16C89.4687 134.039 89.9379 132.691 91.0586 132.149L124.201 116.124C125.322 115.582 126.67 116.051 127.212 117.172C127.236 117.223 127.259 117.274 127.279 117.326C129.045 115.276 129.534 112.295 128.286 109.704L124.803 102.473C123.125 98.9905 118.943 97.5316 115.463 99.2148L83.5285 114.659Z" fill="white"/>
</g>
<defs>
<filter id="filter0_d_2829_72004" x="0.667676" y="0.667188" width="180.087" height="180.087" filterUnits="userSpaceOnUse" color-interpolation-filters="sRGB">
<feFlood flood-opacity="0" result="BackgroundImageFix"/>
<feColorMatrix in="SourceAlpha" type="matrix" values="0 0 0 0 0 0 0 0 0 0 0 0 0 0 0 0 0 0 127 0" result="hardAlpha"/>
<feOffset/>
<feGaussianBlur stdDeviation="2.85"/>
<feComposite in2="hardAlpha" operator="out"/>
<feColorMatrix type="matrix" values="0 0 0 0 0 0 0 0 0 0 0 0 0 0 0 0 0 0 0.25 0"/>
<feBlend mode="normal" in2="BackgroundImageFix" result="effect1_dropShadow_2829_72004"/>
<feBlend mode="normal" in="SourceGraphic" in2="effect1_dropShadow_2829_72004" result="shape"/>
</filter>
<filter id="filter1_d_2829_72004" x="41.5772" y="42.9967" width="99.1225" height="106.805" filterUnits="userSpaceOnUse" color-interpolation-filters="sRGB">
<feFlood flood-opacity="0" result="BackgroundImageFix"/>
<feColorMatrix in="SourceAlpha" type="matrix" values="0 0 0 0 0 0 0 0 0 0 0 0 0 0 0 0 0 0 127 0" result="hardAlpha"/>
<feOffset dy="4"/>
<feGaussianBlur stdDeviation="5.3"/>
<feComposite in2="hardAlpha" operator="out"/>
<feColorMatrix type="matrix" values="0 0 0 0 0 0 0 0 0 0 0 0 0 0 0 0 0 0 0.25 0"/>
<feBlend mode="normal" in2="BackgroundImageFix" result="effect1_dropShadow_2829_72004"/>
<feBlend mode="normal" in="SourceGraphic" in2="effect1_dropShadow_2829_72004" result="shape"/>
</filter>
</defs>
</svg>
