<svg width="170" height="170" viewBox="0 0 170 170" fill="none" xmlns="http://www.w3.org/2000/svg">
<circle cx="85.1341" cy="84.7113" r="84.3437" transform="rotate(0.250296 85.1341 84.7113)" fill="#F5F5F5"/>
<path d="M152.514 85.0049C152.351 122.218 122.052 152.253 84.8392 152.091C47.6262 151.928 17.5909 121.629 17.7535 84.4162C17.9161 47.2032 48.2149 17.1679 85.4279 17.3305C122.641 17.493 152.676 47.7919 152.514 85.0049Z" fill="#D00C0C"/>
<g filter="url(#filter0_d_2829_72174)">
<path fill-rule="evenodd" clip-rule="evenodd" d="M49.4803 77.5829C48.4662 75.4855 45.8149 75.7569 46.8258 77.8559L50.0216 84.4912C51.0398 86.6052 52.9119 84.68 51.8905 82.5676L49.4803 77.5829ZM54.2459 85.713C54.7053 86.6631 55.7425 87.2788 56.6926 86.8194L58.0875 86.145C59.2052 85.6045 59.3493 84.186 58.8089 83.0682L53.3707 71.8213C52.8384 70.7203 51.6535 69.9678 50.5525 70.5002L49.1576 71.1746C48.1913 71.6419 48.0306 72.8587 48.4979 73.8251L54.2459 85.713ZM60.4193 79.4637C61.3437 81.383 58.9677 81.6708 58.0404 79.7529L55.5126 74.5252C54.5781 72.5924 56.2919 70.8942 57.2235 72.8284L60.4193 79.4637Z" fill="#F5F5F5"/>
<path fill-rule="evenodd" clip-rule="evenodd" d="M97.1664 54.5283C96.152 52.4303 93.5 52.7017 94.5111 54.8012L97.7069 61.4365C98.7253 63.551 100.598 61.6252 99.5762 59.5122L97.1664 54.5283ZM101.932 62.6588C102.391 63.6086 103.428 64.2239 104.378 63.7647L105.773 63.0903C106.891 62.5497 107.035 61.1307 106.494 60.0127L101.057 48.767C100.524 47.6657 99.3391 46.913 98.2378 47.4455L96.8429 48.1199C95.877 48.587 95.7163 49.8033 96.1833 50.7692L101.932 62.6588ZM108.105 56.409C109.029 58.328 106.653 58.6158 105.726 56.6983L103.198 51.47C102.264 49.5376 103.977 47.8398 104.909 49.7737L108.105 56.409Z" fill="#F5F5F5"/>
<rect width="37.6477" height="53.6043" rx="3" transform="matrix(0.900241 -0.435391 0.434011 0.900908 52.6771 58.9814)" fill="#F5F5F5"/>
<path fill-rule="evenodd" clip-rule="evenodd" d="M118.941 84.8246C117.927 82.7271 119.786 80.8177 120.804 82.9136L124.02 89.539C125.044 91.6499 122.373 91.9217 121.351 89.8093L118.941 84.8246ZM122.354 93.6086C122.813 94.5588 122.652 95.7542 121.702 96.2136C121.455 96.3328 121.159 96.2457 121.005 96.0197C120.075 94.6629 118.877 93.5653 117.518 92.7648C116.398 92.1044 115.37 91.245 114.803 90.0738L112.009 84.2955C111.477 83.1946 111.623 81.7987 112.724 81.2664L114.119 80.592C115.085 80.1247 116.139 80.7545 116.606 81.7209L122.354 93.6086ZM110.648 88.4399C111.504 90.2038 113.259 88.6055 112.405 86.8403C111.64 85.2584 109.614 85.4034 110.086 87.0958C110.165 87.3817 110.272 87.6645 110.406 87.941L110.648 88.4399Z" fill="#F5F5F5"/>
<path fill-rule="evenodd" clip-rule="evenodd" d="M65.3856 110.72C64.3714 108.622 61.72 108.894 62.731 110.993L65.9267 117.628C66.9449 119.742 68.8171 117.817 67.7957 115.704L65.3856 110.72ZM70.1511 118.85C70.6105 119.8 71.6477 120.415 72.5978 119.956C72.8446 119.837 72.9602 119.55 72.8791 119.289C72.3928 117.718 72.2768 116.097 72.4929 114.536C72.6713 113.247 72.6362 111.908 72.0699 110.736L69.2759 104.958C68.7436 103.857 67.5587 103.105 66.4576 103.637L65.0628 104.311C64.0965 104.779 63.9358 105.995 64.403 106.962L70.1511 118.85ZM73.3695 106.465C74.2202 108.231 71.8781 108.614 71.0246 106.849C70.2598 105.267 71.632 103.768 72.6654 105.189C72.8398 105.429 72.9953 105.688 73.1287 105.965L73.3695 106.465Z" fill="#F5F5F5"/>
<path fill-rule="evenodd" clip-rule="evenodd" d="M77.9512 108.659C74.4709 110.343 73.0097 114.531 74.6876 118.014L78.1707 125.244C79.3729 127.739 81.8603 129.196 84.4542 129.202C84.4471 129.188 84.4401 129.174 84.4333 129.16C83.8914 128.039 84.3606 126.691 85.4813 126.149L118.624 110.124C119.745 109.582 121.093 110.051 121.635 111.172C121.659 111.223 121.682 111.274 121.702 111.326C123.468 109.276 123.957 106.295 122.708 103.704L119.225 96.4734C117.547 92.9905 113.366 91.5316 109.885 93.2148L77.9512 108.659Z" fill="#F5F5F5"/>
</g>
<defs>
<filter id="filter0_d_2829_72174" x="36" y="36.9967" width="98.8498" height="106.805" filterUnits="userSpaceOnUse" color-interpolation-filters="sRGB">
<feFlood flood-opacity="0" result="BackgroundImageFix"/>
<feColorMatrix in="SourceAlpha" type="matrix" values="0 0 0 0 0 0 0 0 0 0 0 0 0 0 0 0 0 0 127 0" result="hardAlpha"/>
<feOffset dy="4"/>
<feGaussianBlur stdDeviation="5.3"/>
<feComposite in2="hardAlpha" operator="out"/>
<feColorMatrix type="matrix" values="0 0 0 0 0 0 0 0 0 0 0 0 0 0 0 0 0 0 0.25 0"/>
<feBlend mode="normal" in2="BackgroundImageFix" result="effect1_dropShadow_2829_72174"/>
<feBlend mode="normal" in="SourceGraphic" in2="effect1_dropShadow_2829_72174" result="shape"/>
</filter>
</defs>
</svg>
