<svg width="177" height="177" viewBox="0 0 177 177" fill="none" xmlns="http://www.w3.org/2000/svg">
<g filter="url(#filter0_d_3131_12248)">
<circle cx="88.5" cy="88.5" r="82.5" fill="#D1D1D1"/>
</g>
<path d="M154.407 88.4986C154.407 124.899 124.899 154.406 88.4994 154.406C52.0995 154.406 22.5916 124.899 22.5916 88.4986C22.5916 52.0988 52.0995 22.5908 88.4994 22.5908C124.899 22.5908 154.407 52.0988 154.407 88.4986Z" fill="#6F6666"/>
<path d="M88.4985 52.0283L88.5091 68.5377C88.5094 68.9196 88.877 69.1938 89.2431 69.0852L106.47 63.9744L89.3259 69.081C88.9383 69.1965 88.79 69.667 89.0413 69.9838L99.6057 83.3034L88.9458 69.8966C88.717 69.6089 88.28 69.6089 88.0512 69.8966L77.3913 83.3034L87.9557 69.9838C88.207 69.667 88.0587 69.1965 87.6712 69.081L70.5267 63.9744L87.7539 69.0852C88.1201 69.1938 88.4877 68.9196 88.4879 68.5377L88.4985 52.0283Z" fill="#D00C0C"/>
<path d="M76.1991 49.1419C74.7064 56.4071 71.8345 61.3826 69.4702 66.2485C65.2359 74.9634 54.8902 81.0915 43.9409 87.5786M76.1991 49.1419C76.1991 49.1419 58.4059 50.2191 53.0472 54.6327C47.6885 59.0463 43.6519 87.8364 43.9409 87.5786M76.1991 49.1419C86.9729 46.2019 92.5917 46.7351 102.316 49.1419M43.9409 87.5786C56.9884 98.1152 65.6973 104.782 67.3014 125.941M43.9409 87.5786L48.494 122.878L67.3014 125.941M67.3014 125.941C87.2318 130.968 109.376 126.763 109.376 126.763M102.316 49.1419C108.461 74.2915 120.884 82.2566 135.763 87.5786M102.316 49.1419C102.316 49.1419 122.86 53.0638 125.898 54.6327C128.936 56.2016 135.763 87.5786 135.763 87.5786M135.763 87.5786C120.877 99.8466 110.586 108.364 109.376 126.763M135.763 87.5786L128.175 122.878L109.376 126.763" stroke="white"/>
<path d="M48.4965 66.3987L44.7021 86.7938L59.1205 78.1651L67.468 69.5364L72.7801 60.9078L75.8155 49.9258L64.4326 50.7102L55.3262 53.8479L52.2908 56.2012L48.4965 66.3987Z" fill="white"/>
<path d="M45.4608 75.0281L48.4963 66.3994L51.5317 56.9863L53.8083 57.7708L50.7729 67.1839L46.9786 84.4413L43.9431 86.7945V83.6568L45.4608 75.0281Z" fill="white"/>
<path d="M66.709 126.016L49.2552 122.878L43.9431 88.3633H45.4608L56.0849 97.7764L62.9147 108.758L66.709 118.171V126.016Z" fill="white"/>
<path d="M128.177 122.878L109.964 126.016L111.482 114.249L119.07 103.267L128.177 93.8543L135.765 88.3633L128.177 122.878Z" fill="white"/>
<path d="M115.276 51.4946L103.134 49.9258L105.411 60.1233L113 72.6742L122.865 81.3029L135.765 87.5783L130.453 66.3987L125.9 54.6323L115.276 51.4946Z" fill="white"/>
<path d="M89.5 50L73 52L57 55.7647L51.5 56L54 54L59 52L79 48.5L89.5 47L106.5 50V52L89.5 50Z" fill="white"/>
<path d="M91 126.5L62 122.5V124.5L76 127.5L90 128.5L104 127.5L119 124.5L120.5 122.5L91 126.5Z" fill="white"/>
<defs>
<filter id="filter0_d_3131_12248" x="0.3" y="0.3" width="176.4" height="176.4" filterUnits="userSpaceOnUse" color-interpolation-filters="sRGB">
<feFlood flood-opacity="0" result="BackgroundImageFix"/>
<feColorMatrix in="SourceAlpha" type="matrix" values="0 0 0 0 0 0 0 0 0 0 0 0 0 0 0 0 0 0 127 0" result="hardAlpha"/>
<feOffset/>
<feGaussianBlur stdDeviation="2.85"/>
<feComposite in2="hardAlpha" operator="out"/>
<feColorMatrix type="matrix" values="0 0 0 0 0 0 0 0 0 0 0 0 0 0 0 0 0 0 0.25 0"/>
<feBlend mode="normal" in2="BackgroundImageFix" result="effect1_dropShadow_3131_12248"/>
<feBlend mode="normal" in="SourceGraphic" in2="effect1_dropShadow_3131_12248" result="shape"/>
</filter>
</defs>
</svg>
