<svg width="180" height="180" viewBox="0 0 180 180" fill="none" xmlns="http://www.w3.org/2000/svg">
<g filter="url(#filter0_d_3024_11882)">
<circle cx="89.7805" cy="89.5939" r="83.785" transform="rotate(-1.95428 89.7805 89.5939)" fill="#F5F5F5"/>
</g>
<path d="M156.676 87.3137C157.936 124.259 129.008 155.231 92.0627 156.492C55.1174 157.752 24.1453 128.824 22.8847 91.8789C21.624 54.9335 50.5522 23.9614 87.4975 22.7008C124.443 21.4402 155.415 50.3683 156.676 87.3137Z" fill="#D00C0C"/>
<g filter="url(#filter1_d_3024_11882)">
<path d="M70.289 93.9591L55.6688 92.3834L72.2554 131.249L80.7197 132.3L70.289 93.9591Z" fill="white"/>
<path d="M99.1872 91.6832L80.7197 93.9591L86.1916 133H94.8268L99.1872 91.6832Z" fill="white"/>
<path d="M100.983 132.3L110.216 88.7945L124.837 82.1418L107.224 131.249L100.983 132.3Z" fill="white"/>
<path d="M128 74.0009L95.2543 71.725L49 86.0809L93.2879 60.1703L91.6634 44.3264L89.9535 43.1884L91.6634 41L93.9719 42.2255L92.7749 44.3264L98.2468 45.9895L103.12 45.0266L103.89 51.6794L99.8712 52.117H94.3993L95.2543 60.9581L128 74.0009Z" fill="white"/>
</g>
<defs>
<filter id="filter0_d_3024_11882" x="0.294629" y="0.107617" width="178.972" height="178.972" filterUnits="userSpaceOnUse" color-interpolation-filters="sRGB">
<feFlood flood-opacity="0" result="BackgroundImageFix"/>
<feColorMatrix in="SourceAlpha" type="matrix" values="0 0 0 0 0 0 0 0 0 0 0 0 0 0 0 0 0 0 127 0" result="hardAlpha"/>
<feOffset/>
<feGaussianBlur stdDeviation="2.85"/>
<feComposite in2="hardAlpha" operator="out"/>
<feColorMatrix type="matrix" values="0 0 0 0 0 0 0 0 0 0 0 0 0 0 0 0 0 0 0.25 0"/>
<feBlend mode="normal" in2="BackgroundImageFix" result="effect1_dropShadow_3024_11882"/>
<feBlend mode="normal" in="SourceGraphic" in2="effect1_dropShadow_3024_11882" result="shape"/>
</filter>
<filter id="filter1_d_3024_11882" x="38.1" y="34.1" width="100.8" height="113.8" filterUnits="userSpaceOnUse" color-interpolation-filters="sRGB">
<feFlood flood-opacity="0" result="BackgroundImageFix"/>
<feColorMatrix in="SourceAlpha" type="matrix" values="0 0 0 0 0 0 0 0 0 0 0 0 0 0 0 0 0 0 127 0" result="hardAlpha"/>
<feOffset dy="4"/>
<feGaussianBlur stdDeviation="5.45"/>
<feComposite in2="hardAlpha" operator="out"/>
<feColorMatrix type="matrix" values="0 0 0 0 0 0 0 0 0 0 0 0 0 0 0 0 0 0 0.25 0"/>
<feBlend mode="normal" in2="BackgroundImageFix" result="effect1_dropShadow_3024_11882"/>
<feBlend mode="normal" in="SourceGraphic" in2="effect1_dropShadow_3024_11882" result="shape"/>
</filter>
</defs>
</svg>
