<svg width="180" height="180" viewBox="0 0 180 180" fill="none" xmlns="http://www.w3.org/2000/svg">
<g filter="url(#filter0_d_3024_11879)">
<circle cx="89.785" cy="89.785" r="83.785" fill="#CACACA"/>
</g>
<path d="M156.719 89.784C156.719 126.751 126.751 156.718 89.7842 156.718C52.8174 156.718 22.8499 126.751 22.8499 89.784C22.8499 52.8172 52.8174 22.8496 89.7842 22.8496C126.751 22.8496 156.719 52.8172 156.719 89.784Z" fill="#6F6666"/>
<path d="M49.3807 72.4489C49.3807 72.4489 49.2703 70.6877 50.3784 69.8728C51.4864 69.0579 53.6449 68.7783 53.6449 68.7783L104.13 62.5795C104.13 62.5795 106.311 62.5953 107.362 63.0895C108.473 63.6123 109.232 65.1001 109.232 65.1001L110.051 71.7736C110.051 71.7736 110.074 72.8571 109.642 73.4773C109.241 74.0534 108.559 74.7304 107.342 75.5199C105.89 76.4619 104.341 77.6799 104.983 79.5967C105.503 81.1502 106.458 81.6238 108.174 82.2985C109.311 82.7456 110.342 83.001 110.881 83.5663C111.341 84.0497 111.67 84.9629 111.67 84.9629L112.509 91.7939C112.509 91.7939 112.155 93.3073 111.32 94.0735C110.434 94.8866 108.188 95.6315 108.188 95.6315L57.7032 101.83C57.7032 101.83 55.6911 101.811 54.2173 101.138C53.1352 100.644 52.6583 99.1427 52.6583 99.1427L51.8195 92.3116C51.8195 92.3116 51.7213 91.3027 52.0893 90.7317C52.591 89.9532 53.911 89.3866 54.8719 88.8432C55.5946 88.4344 56.9281 87.0169 56.9343 85.4963C56.9416 83.7228 55.9276 83.0596 54.8526 82.3915C53.9803 81.8494 51.5395 81.4148 50.8634 80.7477C50.336 80.2273 50.2001 79.1224 50.2001 79.1224L49.3807 72.4489Z" fill="#A09393"/>
<path d="M79.4985 73.4158C79.6137 72.8904 80.325 72.8007 80.567 73.2811L83.3698 78.844C83.4786 79.06 83.7116 79.1841 83.9516 79.1538L90.5297 78.3242C91.091 78.2534 91.4029 78.954 90.9746 79.3237L86.1807 83.4617C85.9823 83.633 85.9258 83.9173 86.0438 84.1514L88.7792 89.5808C89.0264 90.0714 88.5066 90.5941 88.0146 90.3497L82.1267 87.4237C81.9206 87.3213 81.6732 87.3525 81.499 87.5029L76.5219 91.7991C76.1061 92.158 75.4728 91.7807 75.5904 91.2441L76.8922 85.3056C76.9483 85.0495 76.823 84.7881 76.5883 84.6715L70.9172 81.8533C70.4105 81.6015 70.5386 80.8454 71.0999 80.7746L77.6781 79.945C77.918 79.9147 78.1129 79.7367 78.1647 79.5004L79.4985 73.4158Z" fill="white"/>
<path d="M70 88.8014C70 88.8014 70.1046 87.0558 71.2977 86.3881C72.4908 85.7203 74.6565 85.7061 74.6565 85.7061H125.267C125.267 85.7061 127.419 85.985 128.397 86.5979C129.431 87.2464 130 88.8014 130 88.8014V95.4644C130 95.4644 129.891 96.5329 129.389 97.0908C128.923 97.6089 128.168 98.1925 126.87 98.8221C125.322 99.5732 123.644 100.584 124.046 102.547C124.371 104.138 125.258 104.719 126.87 105.59C127.939 106.167 128.926 106.543 129.389 107.164C129.785 107.695 130 108.633 130 108.633V115.453C130 115.453 129.467 116.899 128.55 117.552C127.576 118.245 125.267 118.706 125.267 118.706H74.6565C74.6565 118.706 72.6718 118.444 71.2977 117.604C70.2889 116.988 70 115.453 70 115.453V108.633C70 108.633 70.0254 107.629 70.4581 107.111C71.0479 106.406 72.4203 106.008 73.4351 105.59C74.1985 105.275 75.6873 104.042 75.8779 102.547C76.1001 100.804 75.1791 100.029 74.1985 99.2418C73.4027 98.6032 71.0448 97.881 70.4581 97.1433C70.0003 96.5677 70 95.4644 70 95.4644V88.8014Z" fill="white"/>
<path d="M99.464 93.0802C99.6424 92.5727 100.359 92.5703 100.541 93.0767L102.645 98.9397C102.727 99.1674 102.943 99.3189 103.185 99.3181L109.815 99.2964C110.381 99.2945 110.605 100.028 110.135 100.343L104.872 103.866C104.654 104.011 104.564 104.287 104.652 104.533L106.706 110.256C106.891 110.773 106.311 111.228 105.853 110.926L100.365 107.304C100.173 107.177 99.9241 107.178 99.7328 107.306L94.2693 110.964C93.8128 111.269 93.2301 110.818 93.4123 110.299L95.4281 104.564C95.515 104.316 95.4225 104.042 95.2038 103.897L89.9183 100.409C89.4461 100.097 89.6655 99.3625 90.2312 99.3606L96.8614 99.3389C97.1033 99.3381 97.3184 99.1851 97.3986 98.9569L99.464 93.0802Z" fill="#6F6666"/>
<defs>
<filter id="filter0_d_3024_11879" x="0.3" y="0.3" width="178.97" height="178.97" filterUnits="userSpaceOnUse" color-interpolation-filters="sRGB">
<feFlood flood-opacity="0" result="BackgroundImageFix"/>
<feColorMatrix in="SourceAlpha" type="matrix" values="0 0 0 0 0 0 0 0 0 0 0 0 0 0 0 0 0 0 127 0" result="hardAlpha"/>
<feOffset/>
<feGaussianBlur stdDeviation="2.85"/>
<feComposite in2="hardAlpha" operator="out"/>
<feColorMatrix type="matrix" values="0 0 0 0 0 0 0 0 0 0 0 0 0 0 0 0 0 0 0.25 0"/>
<feBlend mode="normal" in2="BackgroundImageFix" result="effect1_dropShadow_3024_11879"/>
<feBlend mode="normal" in="SourceGraphic" in2="effect1_dropShadow_3024_11879" result="shape"/>
</filter>
</defs>
</svg>
