<svg width="180" height="180" viewBox="0 0 180 180" fill="none" xmlns="http://www.w3.org/2000/svg">
<g filter="url(#filter0_d_3024_11878)">
<circle cx="90.3551" cy="89.785" r="83.785" fill="#F5F5F5"/>
</g>
<path d="M157.289 89.784C157.289 126.751 127.321 156.718 90.3543 156.718C53.3875 156.718 23.4199 126.751 23.4199 89.784C23.4199 52.8172 53.3875 22.8496 90.3543 22.8496C127.321 22.8496 157.289 52.8172 157.289 89.784Z" fill="#4A8CF8"/>
<path d="M50.3807 72.4489C50.3807 72.4489 50.2703 70.6877 51.3784 69.8728C52.4864 69.0579 54.6449 68.7783 54.6449 68.7783L105.13 62.5795C105.13 62.5795 107.311 62.5953 108.362 63.0895C109.473 63.6123 110.232 65.1001 110.232 65.1001L111.051 71.7736C111.051 71.7736 111.074 72.8571 110.642 73.4773C110.241 74.0534 109.559 74.7304 108.342 75.5199C106.89 76.4619 105.341 77.6799 105.983 79.5967C106.503 81.1502 107.458 81.6238 109.174 82.2985C110.311 82.7456 111.342 83.001 111.881 83.5663C112.341 84.0497 112.67 84.9629 112.67 84.9629L113.509 91.7939C113.509 91.7939 113.155 93.3073 112.32 94.0735C111.434 94.8866 109.188 95.6315 109.188 95.6315L58.7032 101.83C58.7032 101.83 56.6911 101.811 55.2173 101.138C54.1352 100.644 53.6583 99.1427 53.6583 99.1427L52.8195 92.3116C52.8195 92.3116 52.7213 91.3027 53.0893 90.7317C53.591 89.9532 54.911 89.3866 55.8719 88.8432C56.5946 88.4344 57.9281 87.0169 57.9343 85.4963C57.9416 83.7228 56.9276 83.0596 55.8526 82.3915C54.9803 81.8494 52.5395 81.4148 51.8634 80.7477C51.336 80.2273 51.2001 79.1224 51.2001 79.1224L50.3807 72.4489Z" fill="#ACC6F3"/>
<path d="M80.4985 73.4153C80.6137 72.8898 81.325 72.8001 81.567 73.2805L84.3697 78.8434C84.4786 79.0594 84.7116 79.1835 84.9516 79.1533L91.5297 78.3237C92.091 78.2529 92.4028 78.9535 91.9745 79.3232L87.1807 83.4612C86.9823 83.6325 86.9258 83.9168 87.0437 84.1509L89.7792 89.5803C90.0264 90.0708 89.5065 90.5936 89.0146 90.3491L83.1267 87.4232C82.9206 87.3208 82.6732 87.352 82.499 87.5023L77.5219 91.7985C77.1061 92.1574 76.4727 91.7801 76.5903 91.2436L77.8921 85.305C77.9483 85.049 77.823 84.7876 77.5883 84.6709L71.9171 81.8527C71.4105 81.6009 71.5386 80.8448 72.0999 80.774L78.678 79.9444C78.918 79.9142 79.1129 79.7361 79.1647 79.4999L80.4985 73.4153Z" fill="white"/>
<path d="M71 88.8014C71 88.8014 71.1046 87.0558 72.2977 86.3881C73.4908 85.7203 75.6565 85.7061 75.6565 85.7061H126.267C126.267 85.7061 128.419 85.985 129.397 86.5979C130.431 87.2464 131 88.8014 131 88.8014V95.4644C131 95.4644 130.891 96.5329 130.389 97.0908C129.923 97.6089 129.168 98.1925 127.87 98.8221C126.322 99.5732 124.644 100.584 125.046 102.547C125.371 104.138 126.258 104.719 127.87 105.59C128.939 106.167 129.926 106.543 130.389 107.164C130.785 107.695 131 108.633 131 108.633V115.453C131 115.453 130.467 116.899 129.55 117.552C128.576 118.245 126.267 118.706 126.267 118.706H75.6565C75.6565 118.706 73.6718 118.444 72.2977 117.604C71.2889 116.988 71 115.453 71 115.453V108.633C71 108.633 71.0254 107.629 71.4581 107.111C72.0479 106.406 73.4203 106.008 74.4351 105.59C75.1985 105.275 76.6873 104.042 76.8779 102.547C77.1001 100.804 76.1791 100.029 75.1985 99.2418C74.4027 98.6032 72.0448 97.881 71.4581 97.1433C71.0003 96.5677 71 95.4644 71 95.4644V88.8014Z" fill="white"/>
<path d="M100.464 93.08C100.642 92.5725 101.359 92.5701 101.541 93.0765L103.645 98.9395C103.727 99.1672 103.943 99.3187 104.185 99.3179L110.815 99.2962C111.381 99.2943 111.605 100.028 111.134 100.342L105.872 103.865C105.654 104.011 105.564 104.287 105.652 104.533L107.705 110.256C107.891 110.773 107.311 111.228 106.853 110.925L101.365 107.304C101.173 107.177 100.924 107.178 100.733 107.306L95.2692 110.963C94.8127 111.269 94.2301 110.817 94.4122 110.299L96.4281 104.563C96.515 104.316 96.4225 104.041 96.2037 103.897L90.9183 100.409C90.4461 100.097 90.6654 99.3623 91.2312 99.3604L97.8614 99.3387C98.1032 99.3379 98.3184 99.1849 98.3986 98.9567L100.464 93.08Z" fill="#4A8CF8"/>
<defs>
<filter id="filter0_d_3024_11878" x="0.870069" y="0.3" width="178.97" height="178.97" filterUnits="userSpaceOnUse" color-interpolation-filters="sRGB">
<feFlood flood-opacity="0" result="BackgroundImageFix"/>
<feColorMatrix in="SourceAlpha" type="matrix" values="0 0 0 0 0 0 0 0 0 0 0 0 0 0 0 0 0 0 127 0" result="hardAlpha"/>
<feOffset/>
<feGaussianBlur stdDeviation="2.85"/>
<feComposite in2="hardAlpha" operator="out"/>
<feColorMatrix type="matrix" values="0 0 0 0 0 0 0 0 0 0 0 0 0 0 0 0 0 0 0.25 0"/>
<feBlend mode="normal" in2="BackgroundImageFix" result="effect1_dropShadow_3024_11878"/>
<feBlend mode="normal" in="SourceGraphic" in2="effect1_dropShadow_3024_11878" result="shape"/>
</filter>
</defs>
</svg>
