<svg width="180" height="180" viewBox="0 0 180 180" fill="none" xmlns="http://www.w3.org/2000/svg">
<g filter="url(#filter0_d_3143_15800)">
<circle cx="89.785" cy="89.785" r="83.785" fill="#F5F5F5"/>
</g>
<path d="M156.719 89.784C156.719 126.751 126.751 156.718 89.7842 156.718C52.8174 156.718 22.8499 126.751 22.8499 89.784C22.8499 52.8172 52.8174 22.8496 89.7842 22.8496C126.751 22.8496 156.719 52.8172 156.719 89.784Z" fill="#D00C0C"/>
<path d="M49.8106 72.4489C49.8106 72.4489 49.7003 70.6877 50.8083 69.8728C51.9163 69.0579 54.0748 68.7783 54.0748 68.7783L104.56 62.5795C104.56 62.5795 106.741 62.5953 107.791 63.0895C108.903 63.6123 109.661 65.1001 109.661 65.1001L110.481 71.7736C110.481 71.7736 110.504 72.8571 110.072 73.4773C109.67 74.0534 108.989 74.7304 107.772 75.5199C106.32 76.4619 104.771 77.6799 105.413 79.5967C105.933 81.1502 106.888 81.6238 108.604 82.2985C109.741 82.7456 110.772 83.001 111.311 83.5663C111.771 84.0497 112.1 84.9629 112.1 84.9629L112.939 91.7939C112.939 91.7939 112.585 93.3073 111.75 94.0735C110.864 94.8866 108.618 95.6315 108.618 95.6315L58.1331 101.83C58.1331 101.83 56.1211 101.811 54.6472 101.138C53.5651 100.644 53.0882 99.1427 53.0882 99.1427L52.2494 92.3116C52.2494 92.3116 52.1512 91.3027 52.5192 90.7317C53.0209 89.9532 54.341 89.3866 55.3018 88.8432C56.0245 88.4344 57.358 87.0169 57.3643 85.4963C57.3715 83.7228 56.3575 83.0596 55.2826 82.3915C54.4103 81.8494 51.9694 81.4148 51.2934 80.7477C50.766 80.2273 50.63 79.1224 50.63 79.1224L49.8106 72.4489Z" fill="white"/>
<path d="M79.9285 73.4148C80.0437 72.8894 80.7549 72.7997 80.997 73.2801L83.7997 78.843C83.9085 79.059 84.1416 79.1831 84.3815 79.1528L90.9596 78.3233C91.521 78.2525 91.8328 78.9531 91.4045 79.3228L86.6106 83.4608C86.4122 83.632 86.3558 83.9164 86.4737 84.1504L89.2092 89.5798C89.4563 90.0704 88.9365 90.5931 88.4446 90.3487L82.5567 87.4228C82.3506 87.3203 82.1032 87.3515 81.929 87.5019L76.9519 91.7981C76.536 92.157 75.9027 91.7797 76.0203 91.2432L77.3221 85.3046C77.3782 85.0485 77.253 84.7872 77.0182 84.6705L71.3471 81.8523C70.8404 81.6005 70.9686 80.8444 71.5299 80.7736L78.108 79.944C78.348 79.9138 78.5429 79.7357 78.5947 79.4995L79.9285 73.4148Z" fill="#D00C0C"/>
<path d="M70.4299 88.8014C70.4299 88.8014 70.5345 87.0558 71.7276 86.3881C72.9208 85.7203 75.0864 85.7061 75.0864 85.7061H125.697C125.697 85.7061 127.849 85.985 128.827 86.5979C129.861 87.2464 130.43 88.8014 130.43 88.8014V95.4644C130.43 95.4644 130.321 96.5329 129.819 97.0908C129.353 97.6089 128.598 98.1925 127.3 98.8221C125.752 99.5732 124.074 100.584 124.476 102.547C124.801 104.138 125.688 104.719 127.3 105.59C128.369 106.167 129.356 106.543 129.819 107.164C130.215 107.695 130.43 108.633 130.43 108.633V115.453C130.43 115.453 129.897 116.899 128.98 117.552C128.006 118.245 125.697 118.706 125.697 118.706H75.0864C75.0864 118.706 73.1017 118.444 71.7276 117.604C70.7188 116.988 70.4299 115.453 70.4299 115.453V108.633C70.4299 108.633 70.4553 107.629 70.888 107.111C71.4779 106.406 72.8502 106.008 73.865 105.59C74.6284 105.275 76.1172 104.042 76.3078 102.547C76.53 100.804 75.609 100.029 74.6284 99.2418C73.8327 98.6032 71.4747 97.881 70.888 97.1433C70.4302 96.5677 70.4299 95.4644 70.4299 95.4644V88.8014Z" fill="white"/>
<path d="M99.894 93.0802C100.072 92.5727 100.789 92.5703 100.971 93.0767L103.075 98.9397C103.157 99.1674 103.373 99.3189 103.615 99.3181L110.245 99.2964C110.81 99.2945 111.035 100.028 110.564 100.343L105.302 103.866C105.084 104.011 104.994 104.287 105.082 104.533L107.135 110.256C107.321 110.773 106.741 111.228 106.283 110.926L100.795 107.304C100.603 107.177 100.354 107.178 100.163 107.306L94.6992 110.964C94.2427 111.269 93.6601 110.818 93.8422 110.299L95.858 104.564C95.9449 104.316 95.8525 104.042 95.6337 103.897L90.3483 100.409C89.8761 100.097 90.0954 99.3625 90.6612 99.3606L97.2913 99.3389C97.5332 99.3381 97.7484 99.1851 97.8286 98.9569L99.894 93.0802Z" fill="#D00C0C"/>
<defs>
<filter id="filter0_d_3143_15800" x="0.3" y="0.3" width="178.97" height="178.97" filterUnits="userSpaceOnUse" color-interpolation-filters="sRGB">
<feFlood flood-opacity="0" result="BackgroundImageFix"/>
<feColorMatrix in="SourceAlpha" type="matrix" values="0 0 0 0 0 0 0 0 0 0 0 0 0 0 0 0 0 0 127 0" result="hardAlpha"/>
<feOffset/>
<feGaussianBlur stdDeviation="2.85"/>
<feComposite in2="hardAlpha" operator="out"/>
<feColorMatrix type="matrix" values="0 0 0 0 0 0 0 0 0 0 0 0 0 0 0 0 0 0 0.25 0"/>
<feBlend mode="normal" in2="BackgroundImageFix" result="effect1_dropShadow_3143_15800"/>
<feBlend mode="normal" in="SourceGraphic" in2="effect1_dropShadow_3143_15800" result="shape"/>
</filter>
</defs>
</svg>
