<svg width="22" height="22" viewBox="0 0 22 22" fill="none" xmlns="http://www.w3.org/2000/svg">
<path d="M20.5529 15.0465C21.0468 14.7995 21.6477 14.9998 21.8947 15.4937C22.1414 15.9876 21.9411 16.5876 21.4474 16.8346L11.8048 21.6558C11.7254 21.6956 11.5151 21.8113 11.2765 21.856C11.0939 21.8903 10.9064 21.8903 10.7238 21.856C10.4852 21.8113 10.2749 21.6956 10.1954 21.6558L0.552867 16.8346C0.0591632 16.5876 -0.14109 15.9876 0.105601 15.4937C0.352591 14.9998 0.95342 14.7995 1.4474 15.0465L11.0001 19.8219L20.5529 15.0465ZM20.5529 10.0465C21.0468 9.79948 21.6477 9.99975 21.8947 10.4937C22.1414 10.9876 21.9411 11.5876 21.4474 11.8346L11.8048 16.6558C11.7254 16.6956 11.5151 16.8113 11.2765 16.856C11.0939 16.8903 10.9064 16.8903 10.7238 16.856C10.4852 16.8113 10.2749 16.6956 10.1954 16.6558L0.552867 11.8346C0.0591629 11.5876 -0.14109 10.9876 0.105601 10.4937C0.352591 9.99975 0.95342 9.79948 1.4474 10.0465L11.0001 14.8219L20.5529 10.0465ZM11.1388 0.00642715L11.2765 0.0249818L11.4484 0.0699037C11.612 0.123035 11.7452 0.195346 11.8048 0.225177L21.4474 5.04647C21.7861 5.21589 22.0001 5.56229 22.0001 5.941C22 6.31952 21.7859 6.66518 21.4474 6.83455L11.8048 11.6558C11.7254 11.6956 11.5151 11.8113 11.2765 11.856C11.0939 11.8903 10.9064 11.8903 10.7238 11.856C10.4852 11.8113 10.2749 11.6956 10.1954 11.6558L0.552867 6.83455C0.214337 6.66518 0.000292073 6.31952 0.000132684 5.941C0.000132684 5.56229 0.214181 5.21589 0.552867 5.04647L10.1954 0.225177C10.2749 0.185425 10.4852 0.0697381 10.7238 0.0249818L10.8615 0.00642715C10.9537 -0.00214238 11.0465 -0.00214238 11.1388 0.00642715ZM3.23548 5.94002L11.0001 9.82186L18.7638 5.94002L11.0001 2.05818L3.23548 5.94002Z" fill="white"/>
</svg>
