<svg width="42" height="43" viewBox="0 0 42 43" fill="none" xmlns="http://www.w3.org/2000/svg">
<path d="M36.5312 0.506836C39.2818 0.647507 41.497 2.94389 41.4971 5.72852L41.5 37.2686L41.4932 37.5361C41.3522 40.2851 39.0503 42.4998 36.2666 42.5H15.9971C13.1237 42.5 10.7627 40.1427 10.7627 37.2686V32.7061C10.7603 32.23 10.9498 31.7729 11.2852 31.4375C11.6216 31.1011 12.0798 30.9131 12.5547 30.9131C13.0303 30.9132 13.4847 31.1021 13.8203 31.4375C14.1566 31.7738 14.3456 32.2314 14.3457 32.7061V37.2686C14.3457 38.1928 15.0699 38.9179 15.9941 38.918H36.2637C37.188 38.918 37.9121 38.1929 37.9121 37.2686V5.73145C37.9121 4.80827 37.1917 4.08789 36.2637 4.08789H15.9941C15.0684 4.08795 14.3457 4.80869 14.3457 5.73145V10.4824C14.3457 10.9553 14.1564 11.413 13.8203 11.749C13.4844 12.0849 13.0273 12.2743 12.5547 12.2744C12.0788 12.2744 11.6238 12.0847 11.2881 11.749C11.0731 11.534 10.9195 11.2691 10.8359 10.9824H10.7607V5.73145C10.7607 2.85702 13.1211 0.502958 15.9941 0.50293L36.2637 0.5L36.5312 0.506836ZM16.583 12.5654C17.0595 12.5619 17.5174 12.7509 17.8535 13.0859L25.0742 20.2256L25.0762 20.2275C25.131 20.2824 25.1838 20.3416 25.2344 20.4092C25.3286 20.5313 25.4039 20.6651 25.4619 20.8047H25.4629C25.464 20.8072 25.4647 20.81 25.4658 20.8125C25.4668 20.8148 25.4678 20.817 25.4688 20.8193H25.4678C25.4938 20.8802 25.5134 20.9394 25.5264 20.9805L25.5381 21.0039L25.5508 21.0576C25.5673 21.1236 25.5807 21.1909 25.5908 21.2617L25.5928 21.2754C25.6099 21.4225 25.6096 21.5718 25.5928 21.7197L25.5918 21.7324L25.5898 21.7451C25.5873 21.7602 25.5846 21.7759 25.582 21.791C25.5738 21.8426 25.5622 21.8905 25.5557 21.9189L25.5547 21.918C25.5449 21.9629 25.5327 22.0013 25.5254 22.0234L25.5264 22.0244C25.5171 22.0545 25.504 22.0894 25.4893 22.1279C25.4891 22.1284 25.4884 22.1313 25.4873 22.1348C25.4838 22.1439 25.4815 22.1537 25.4775 22.1631L25.4746 22.1621C25.4707 22.1725 25.4648 22.184 25.459 22.1973L25.4619 22.1992C25.4369 22.2618 25.4093 22.3161 25.3857 22.3604L25.374 22.3818C25.3736 22.3825 25.3728 22.3834 25.3721 22.3848C25.3705 22.3875 25.3668 22.3923 25.3633 22.3984C25.3615 22.4016 25.3592 22.4051 25.3574 22.4082C25.3559 22.4108 25.3552 22.4142 25.3535 22.417L25.3525 22.416C25.3431 22.4325 25.3333 22.4478 25.3242 22.4619V22.4941L25.2031 22.6338C25.1653 22.6779 25.1262 22.721 25.0947 22.7549L25.0879 22.7617L25.082 22.7686L25.0791 22.7705L24.2256 23.624V23.6123L17.8564 29.915C17.5204 30.25 17.0624 30.438 16.5859 30.4346C16.114 30.4311 15.655 30.2441 15.3193 29.9014V29.9004C14.625 29.1941 14.6348 28.0617 15.3379 27.3691L19.458 23.293H1.29102C0.818274 23.2929 0.360415 23.1036 0.0244141 22.7676C-0.311424 22.4315 -0.5 21.9736 -0.5 21.501C-0.499875 21.0254 -0.310934 20.5709 0.0244141 20.2354C0.360419 19.8993 0.818305 19.71 1.29102 19.71H19.458L15.3369 15.6328C14.6355 14.9384 14.6234 13.8045 15.3213 13.0996C15.6539 12.7586 16.1097 12.5671 16.583 12.5654Z" fill="white" stroke="white"/>
</svg>
