<svg width="53" height="53" viewBox="0 0 53 53" fill="none" xmlns="http://www.w3.org/2000/svg">
<path d="M44.1641 41.9582V11.0415C44.1641 10.4558 43.9312 9.89429 43.5171 9.48014C43.103 9.066 42.5414 8.83317 41.9557 8.83317H33.1224C31.9028 8.83317 30.9141 7.84447 30.9141 6.62484C30.9141 5.40521 31.9028 4.4165 33.1224 4.4165H41.9557C43.7128 4.4165 45.3974 5.11499 46.6398 6.35742C47.8822 7.59985 48.5807 9.28444 48.5807 11.0415V41.9582C48.5807 43.7152 47.8822 45.3998 46.6398 46.6423C45.3974 47.8847 43.7128 48.5832 41.9557 48.5832H33.1224C31.9028 48.5832 30.9141 47.5945 30.9141 46.3748C30.9141 45.1552 31.9028 44.1665 33.1224 44.1665H41.9557C42.5414 44.1665 43.103 43.9337 43.5171 43.5195C43.9312 43.1054 44.1641 42.5439 44.1641 41.9582ZM20.5194 13.8968C21.3818 13.0344 22.7797 13.0344 23.6421 13.8968L34.6838 24.9385C35.5462 25.8009 35.5462 27.1988 34.6838 28.0612L23.6421 39.1029C22.7797 39.9653 21.3818 39.9653 20.5194 39.1029C19.657 38.2405 19.657 36.8426 20.5194 35.9801L27.7913 28.7082H6.6224C5.40277 28.7082 4.41406 27.7195 4.41406 26.4998C4.41406 25.2802 5.40277 24.2915 6.6224 24.2915H27.7913L20.5194 17.0195C19.657 16.1571 19.657 14.7592 20.5194 13.8968Z" fill="white"/>
</svg>
