<svg width="41" height="42" viewBox="0 0 41 42" fill="none" xmlns="http://www.w3.org/2000/svg">
<path d="M24.6562 0.506836C27.3466 0.64448 29.5078 2.89065 29.5078 5.61328V10.249C29.5077 11.2192 28.721 12.0052 27.7529 12.0088H27.751C26.7786 12.0088 25.9913 11.2215 25.9912 10.249V5.61328C25.9912 4.71984 25.2912 4.02248 24.3945 4.02246H4.61328C3.71683 4.02265 3.01762 4.71996 3.01758 5.61328V36.3838C3.01758 37.279 3.71623 37.9803 4.61328 37.9805H24.3945C25.2896 37.9804 25.9912 37.2788 25.9912 36.3838V31.9336C25.9912 31.4671 26.1763 31.017 26.5068 30.6865C26.8366 30.3568 27.2836 30.1709 27.751 30.1709H27.7529C28.7248 30.1745 29.5078 30.9621 29.5078 31.9336V36.3838C29.5078 39.1912 27.2056 41.5 24.3945 41.5H4.61328C1.80258 41.4998 -0.5 39.1937 -0.5 36.3838V5.61621L-0.493164 5.35352C-0.355216 2.66366 1.89089 0.503141 4.61328 0.50293L24.3945 0.5L24.6562 0.506836ZM31.9277 12.291H32.0371L32.0742 12.2959C32.1452 12.3065 32.21 12.3234 32.2705 12.3418L32.3828 12.3594V12.3809C32.6295 12.4829 32.788 12.6434 32.9277 12.7812L33.0762 12.9287V12.9307L39.9111 19.6895L39.917 19.6924L39.9746 19.749C40.0025 19.7769 40.027 19.8062 40.0518 19.835C40.0577 19.8411 40.0633 19.846 40.0674 19.8506L40.0801 19.8652L40.0918 19.876L40.1064 19.8936C40.1411 19.9351 40.1695 19.9798 40.1904 20.0117C40.1946 20.0171 40.1996 20.0214 40.2031 20.0264C40.2191 20.0487 40.2309 20.0683 40.2373 20.0801C40.2395 20.0841 40.2416 20.0879 40.2432 20.0908C40.272 20.1374 40.299 20.1849 40.3223 20.2344H40.3203C40.3529 20.2992 40.3786 20.3605 40.3926 20.3965L40.4258 20.4844V20.5059C40.4713 20.661 40.5 20.8263 40.5 21.001C40.5 21.4972 40.2899 21.9689 39.9229 22.3018L39.8965 22.3242L32.9307 29.2178C32.2395 29.902 31.1258 29.8948 30.4424 29.208V29.207C29.7586 28.5165 29.7638 27.3995 30.4551 26.7178L34.4551 22.7607H16.7598C16.2922 22.7607 15.8454 22.5749 15.5156 22.2451C15.1876 21.9171 14.9971 21.471 14.9971 21.001C14.9971 20.5321 15.1869 20.0836 15.5156 19.7549C15.8445 19.426 16.2909 19.2387 16.7598 19.2412H34.4551L30.4551 15.2842C29.7653 14.6012 29.7574 13.4882 30.4404 12.7969C30.8295 12.4011 31.381 12.2165 31.9277 12.291Z" fill="white" stroke="white"/>
</svg>
