<svg width="53" height="53" viewBox="0 0 53 53" fill="none" xmlns="http://www.w3.org/2000/svg">
<path d="M46.375 44.1666V28.7083C46.375 25.7799 45.2109 22.9722 43.1401 20.9015C41.0694 18.8308 38.2618 17.6666 35.3333 17.6666H14.1644L21.4364 10.3946C22.2988 9.53224 22.2988 8.13434 21.4364 7.27193C20.574 6.40952 19.176 6.40952 18.3136 7.27193L7.27197 18.3136C6.40957 19.176 6.40957 20.5739 7.27197 21.4363L18.3136 32.478C19.176 33.3404 20.574 33.3404 21.4364 32.478C22.2988 31.6156 22.2988 30.2177 21.4364 29.3553L14.1644 22.0833H35.3333C37.0904 22.0833 38.775 22.7818 40.0174 24.0242C41.2598 25.2666 41.9583 26.9512 41.9583 28.7083V44.1666C41.9583 45.3862 42.947 46.375 44.1667 46.375C45.3863 46.375 46.375 45.3862 46.375 44.1666Z" fill="white"/>
</svg>
