<svg width="61" height="65" viewBox="0 0 61 65" fill="none" xmlns="http://www.w3.org/2000/svg">
<path d="M53.3672 54.2227C53.3672 55.8795 52.024 57.2227 50.3672 57.2227C48.7103 57.2227 47.3672 55.8795 47.3672 54.2227H53.3672ZM50.3672 23L50.3672 20H53.3672L53.3672 23H50.3672ZM7.88059 25.1213C6.70902 23.9497 6.70902 22.0503 7.88059 20.8787L26.9725 1.7868C28.144 0.615223 30.0435 0.615223 31.2151 1.7868C32.3867 2.95837 32.3867 4.85786 31.2151 6.02944L14.2446 23L31.2151 39.9706C32.3867 41.1421 32.3867 43.0416 31.2151 44.2132C30.0435 45.3848 28.144 45.3848 26.9725 44.2132L7.88059 25.1213ZM50.3672 54.2227H47.3672L47.3672 23H50.3672H53.3672L53.3672 54.2227H50.3672ZM50.3672 23L50.3672 26L10.0019 26L10.0019 23L10.0019 20L50.3672 20L50.3672 23Z" fill="white"/>
</svg>
