<svg width="53" height="53" viewBox="0 0 53 53" fill="none" xmlns="http://www.w3.org/2000/svg">
<path d="M6.625 44.1665V28.7082C6.625 25.7797 7.78915 22.9721 9.85986 20.9014C11.9306 18.8306 14.7382 17.6665 17.6667 17.6665H38.8356L31.5636 10.3945C30.7012 9.53212 30.7012 8.13421 31.5636 7.27181C32.426 6.4094 33.824 6.4094 34.6864 7.27181L45.728 18.3135C46.5904 19.1759 46.5904 20.5738 45.728 21.4362L34.6864 32.4779C33.824 33.3403 32.426 33.3403 31.5636 32.4779C30.7012 31.6155 30.7012 30.2175 31.5636 29.3551L38.8356 22.0832H17.6667C15.9096 22.0832 14.225 22.7817 12.9826 24.0241C11.7402 25.2665 11.0417 26.9511 11.0417 28.7082V44.1665C11.0417 45.3861 10.053 46.3748 8.83333 46.3748C7.6137 46.3748 6.625 45.3861 6.625 44.1665Z" fill="white"/>
</svg>
