<svg width="61" height="65" viewBox="0 0 61 65" fill="none" xmlns="http://www.w3.org/2000/svg">
<path d="M7 54.2227C7 55.8795 8.34315 57.2227 10 57.2227C11.6569 57.2227 13 55.8795 13 54.2227H7ZM10 23L10 20H7L7 23H10ZM52.4866 25.1213C53.6582 23.9497 53.6582 22.0503 52.4866 20.8787L33.3947 1.7868C32.2231 0.615223 30.3236 0.615223 29.1521 1.7868C27.9805 2.95837 27.9805 4.85786 29.1521 6.02944L46.1226 23L29.1521 39.9706C27.9805 41.1421 27.9805 43.0416 29.1521 44.2132C30.3236 45.3848 32.2231 45.3848 33.3947 44.2132L52.4866 25.1213ZM10 54.2227H13L13 23H10H7L7 54.2227H10ZM10 23L10 26L50.3653 26L50.3653 23L50.3653 20L10 20L10 23Z" fill="white"/>
</svg>
