<svg width="28" height="26" viewBox="0 0 28 26" fill="none" xmlns="http://www.w3.org/2000/svg">
<path d="M13.2162 0.00844238L27.5093 3.33967C27.5093 3.33967 28.4443 3.88386 27.7319 4.85822C27.0195 5.83258 16.1772 18.2728 16.1772 18.2728C16.1772 18.2728 15.6208 18.9751 14.6635 18.4765C13.7061 17.9779 4.17738 15.5078 4.17738 15.5078C3.94961 15.5496 3.02512 15.7449 2.57407 16.5278C2.00952 17.509 2.38589 19.0701 3.6875 20.0399C7.67299 21.3016 11.6577 22.5625 15.6432 23.8241L25.3056 11.9509C25.1899 11.5116 25.0585 10.7888 25.172 9.91169C25.2571 9.25502 25.4505 8.73059 25.617 8.3711C25.6701 8.32625 26.1099 7.96752 26.6857 8.099C27.1404 8.20313 27.5026 8.5725 27.6206 9.05057C27.4817 9.40854 27.3465 9.85012 27.2644 10.3647C27.0986 11.4029 27.2211 12.2815 27.3533 12.8576C23.9025 17.0499 20.4517 21.2415 17.0008 25.4339C16.8978 25.5395 16.7514 25.6664 16.5558 25.7736C16.1555 25.9925 15.7739 26.0077 15.576 26.0001C11.4128 24.7232 7.24957 23.4471 3.08635 22.1703C2.59274 21.9035 1.01856 20.9702 0.325557 19.0435C-0.451079 16.885 0.189646 14.3442 1.95052 12.5399C5.476 8.46762 9.00074 4.39688 12.5262 0.325377C12.5262 0.325377 12.9272 -0.0599607 13.2162 0.00844238Z" fill="white"/>
</svg>
