<svg width="30" height="25" viewBox="0 0 30 25" fill="none" xmlns="http://www.w3.org/2000/svg">
<path fill-rule="evenodd" clip-rule="evenodd" d="M0.648855 0.505815C0.0523002 1.00104 0 2.29562 0 2.29562V7.23705C0 7.23705 0.00014367 8.05527 0.229025 8.48213C0.395304 8.79225 0.846073 9.09865 1.27787 9.39217C1.60791 9.61651 1.92687 9.83332 2.09924 10.0385C2.58955 10.6221 3.05004 11.1967 2.93893 12.4897C2.84366 13.5985 2.09924 14.513 1.71756 14.7465C1.61318 14.8103 1.50124 14.8735 1.38669 14.9382C0.9444 15.1879 0.463296 15.4594 0.229025 15.8748C0.0126752 16.2584 0 17.0032 0 17.0032V22.0613C0 22.0613 0.144447 23.1995 0.648855 23.6566C1.33588 24.2791 2.32824 24.4737 2.32824 24.4737H27.6336C27.6336 24.4737 28.788 24.1314 29.2748 23.6177C29.7335 23.1336 30 22.0613 30 22.0613V17.0032C30 17.0032 29.8926 16.3075 29.6947 15.9137C29.5186 15.5634 29.1908 15.3183 28.8088 15.0327C28.6886 14.9428 28.563 14.8489 28.4351 14.7465C27.6288 14.1006 27.1856 13.6696 27.0229 12.4897C26.8222 11.034 27.661 10.2843 28.4351 9.72722C29.084 9.26031 29.4616 8.82747 29.6947 8.44323C29.9456 8.02947 30 7.23705 30 7.23705V2.29562C30 2.29562 29.7155 1.14235 29.1985 0.661451C28.7097 0.206899 27.6336 0 27.6336 0H2.32824C2.32824 0 1.24541 0.0105925 0.648855 0.505815ZM15.9157 5.45534C15.6227 4.52095 14.3003 4.52095 14.0073 5.45534L13.0989 8.35226C12.9682 8.76926 12.5817 9.05305 12.1447 9.05305H9.13157C8.17148 9.05305 7.76309 10.2745 8.53012 10.852L11.0283 12.7327C11.3664 12.9872 11.5076 13.427 11.381 13.8308L10.4414 16.8274C10.1505 17.755 11.2203 18.5102 11.997 17.9255L14.36 16.1465C14.7162 15.8784 15.2068 15.8784 15.5629 16.1465L17.926 17.9255C18.7026 18.5102 19.7725 17.755 19.4816 16.8274L18.542 13.8308C18.4153 13.427 18.5566 12.9872 18.8947 12.7327L21.3929 10.852C22.1599 10.2745 21.7515 9.05305 20.7914 9.05305H17.7783C17.3412 9.05305 16.9548 8.76926 16.8241 8.35226L15.9157 5.45534Z" fill="white"/>
</svg>
