<svg width="21" height="27" viewBox="0 0 21 27" fill="none" xmlns="http://www.w3.org/2000/svg">
<path d="M8.42469 7.55855C8.53364 10.1224 7.89297 11.2433 6.62033 12.1022H6.62469C6.2938 12.2786 5.93104 12.3895 5.55689 12.4286L5.99273 25.1362C5.99851 25.3764 5.95599 25.6153 5.86762 25.8393C5.77925 26.0632 5.64678 26.2677 5.47784 26.4409C5.30889 26.6142 5.10682 26.7528 4.88327 26.8487C4.65972 26.9447 4.4191 26.9961 4.1753 27H3.97481C3.75773 26.9972 3.54338 26.952 3.34419 26.8669C3.14501 26.7818 2.96497 26.6586 2.81453 26.5043C2.66409 26.3501 2.54625 26.168 2.46786 25.9685C2.38946 25.769 2.35207 25.5561 2.35787 25.3423L2.85036 12.4329C2.55156 12.3942 2.25877 12.3192 1.97869 12.2095C0.518644 11.574 0.0305084 10.0837 0 8.24997L0.209201 1.94127C0.235351 1.29708 0.113317 0.536948 0.714769 0.159027C0.846001 0.0697163 0.998731 0.0159227 1.15768 0.00302715C1.31663 -0.00986842 1.47624 0.0185856 1.62053 0.0855438C1.76482 0.152502 1.88873 0.255617 1.97989 0.384576C2.07104 0.513534 2.12624 0.663816 2.13995 0.820389L2.07457 6.31312C2.05904 6.40653 2.06431 6.50215 2.09002 6.59335C2.11572 6.68455 2.16125 6.76915 2.22344 6.84129C2.28563 6.91343 2.36299 6.97137 2.45018 7.01112C2.53736 7.05086 2.63227 7.07144 2.72833 7.07144C2.82438 7.07144 2.91929 7.05086 3.00647 7.01112C3.09366 6.97137 3.17102 6.91343 3.23321 6.84129C3.2954 6.76915 3.34093 6.68455 3.36664 6.59335C3.39234 6.50215 3.39761 6.40653 3.38208 6.31312C3.38208 4.77997 3.44745 2.31919 3.44745 0.781738C3.46489 -0.304784 5.10798 -0.20601 5.10798 0.781738L5.04261 6.31312C5.04261 6.51245 5.12297 6.70361 5.266 6.84455C5.40904 6.98549 5.60304 7.06467 5.80532 7.06467C6.0076 7.06467 6.2016 6.98549 6.34464 6.84455C6.48767 6.70361 6.56803 6.51245 6.56803 6.31312L6.63341 0.966404C6.71622 -0.0642893 8.42469 0.0473692 8.42469 0.966404V7.55855Z" fill="white"/>
<path d="M14.4436 13.5366L14.4654 24.8785H14.4523C14.4523 27.8117 18.0131 27.5669 17.939 24.9343L17.5598 13.4936C22.7026 12.1666 21.9922 0.0774305 16.0126 0.00871759C11.092 -0.0514062 9.52299 10.7365 14.4436 13.5366Z" fill="white"/>
</svg>
