<svg width="15" height="32" viewBox="0 0 15 32" fill="none" xmlns="http://www.w3.org/2000/svg">
<path fill-rule="evenodd" clip-rule="evenodd" d="M0 31.4178H11.4924C11.4924 31.4178 12.8651 31.1477 13.4044 30.6076C13.8372 30.174 14.0417 29.2573 14.0417 29.2573V12.8738C14.0417 12.8738 13.8484 11.9018 13.4044 11.4335C12.8693 10.8693 11.4924 10.5333 11.4924 10.5333H8.85268C8.86585 9.45593 8.88556 7.30534 8.84413 6.57264C8.73772 4.69033 5.99957 -0.0472934 0 0.000347545V2.97052C3.87042 2.92653 5.28623 6.21803 5.33826 6.48262C5.4951 7.28011 5.47861 9.45138 5.45924 10.5333H0V18.0968C0.0408524 18.0956 0.0818824 18.095 0.123078 18.095C2.05895 18.095 3.62829 19.425 3.62829 21.0656C3.62829 22.7063 2.05895 24.0363 0.123078 24.0363C0.0818824 24.0363 0.0408524 24.0357 0 24.0345V31.4178Z" fill="#828282"/>
</svg>
