<svg width="800" height="800" viewBox="0 0 800 800" fill="none" xmlns="http://www.w3.org/2000/svg">
<path d="M390.88 643.448C393.856 647.864 398.832 650.504 404.144 649.504C409.472 649.504 414.448 647.848 417.408 643.448L568.384 418.16C586.432 389.376 595.984 356.32 595.984 322.544C595.984 220.528 509.856 137.52 403.984 137.52C298.112 137.52 211.984 220.528 211.984 322.544C211.984 356.368 221.568 389.488 239.968 418.736L390.88 643.448ZM404 169.504C492.224 169.504 564 238.16 564 322.528C564 350.272 556.144 377.456 541.568 400.704L404.128 605.864L266.784 401.248C251.872 377.536 244 350.32 244 322.528C244 238.16 315.776 169.504 404 169.504Z" fill="black"/>
<path d="M404 409.856C454.16 409.856 494.976 370.384 494.976 321.856C494.976 273.328 454.176 233.856 404 233.856C353.824 233.856 313.024 273.328 313.024 321.856C313.024 370.384 353.84 409.856 404 409.856ZM404 265.856C436.512 265.856 462.976 290.976 462.976 321.856C462.976 352.736 436.528 377.856 404 377.856C371.472 377.856 345.024 352.736 345.024 321.856C345.024 290.976 371.488 265.856 404 265.856Z" fill="black"/>
</svg>
