<svg width="20" height="20" viewBox="0 0 20 20" fill="none" xmlns="http://www.w3.org/2000/svg">
<path d="M16.3632 16.5927H16.0771V2.9173C16.0774 2.4665 15.7927 2.1001 15.441 2.1001H4.55913C4.20758 2.1001 3.92276 2.4663 3.92276 2.9181V16.5927H3.63638C3.28482 16.5927 3 16.8859 3 17.2475C3 17.6087 3.28482 17.9017 3.63638 17.9017H16.3632C16.7146 17.9017 17 17.6085 17 17.2475C17 16.8859 16.7149 16.5927 16.3632 16.5927ZM7.9 13.0135H5.73653V11.0503H7.9V13.0135ZM7.9 9.7407H5.73653V7.7771H7.9V9.7407ZM7.9 6.4679H5.73653V4.5047H7.9V6.4679ZM11.0819 15.7485H8.91811V12.1485H8.93476C9.02202 11.4927 9.46551 10.9929 10.0003 10.9929C10.5353 10.9929 10.9783 11.4927 11.0656 12.1485H11.0819V15.7485ZM11.0819 9.7407H8.91811V7.7771H11.0819V9.7407ZM11.0819 6.4679H8.91811V4.5047H11.0819V6.4679ZM14.2635 13.0135H12.1V11.0503H14.2635V13.0135ZM14.2635 9.7407H12.1V7.7771H14.2635V9.7407ZM14.2635 6.4679H12.1V4.5047H14.2635V6.4679Z" fill="#828282"/>
</svg>
