<svg width="57" height="57" viewBox="0 0 57 57" fill="none" xmlns="http://www.w3.org/2000/svg">
<circle cx="28.5" cy="28.5" r="28.5" fill="#6F8FE3"/>
<path d="M21.4466 20.7041C21.6435 20.5072 21.9106 20.3966 22.1891 20.3966C22.4675 20.3966 22.7346 20.5072 22.9315 20.7041L28.5 26.2726L34.0685 20.7041C34.2654 20.5072 34.5324 20.3966 34.8109 20.3966C35.0894 20.3966 35.3565 20.5072 35.5534 20.7041L36.2959 21.4466C36.4928 21.6435 36.6034 21.9106 36.6034 22.1891C36.6034 22.4675 36.4928 22.7346 36.2959 22.9315L30.7274 28.5L36.2959 34.0685C36.4928 34.2654 36.6034 34.5325 36.6034 34.8109C36.6034 35.0894 36.4928 35.3565 36.2959 35.5534L35.5534 36.2959C35.3565 36.4928 35.0894 36.6034 34.8109 36.6034C34.5324 36.6034 34.2654 36.4928 34.0685 36.2959L28.5 30.7274L22.9315 36.2959C22.7346 36.4928 22.4675 36.6034 22.1891 36.6034C21.9106 36.6034 21.6435 36.4928 21.4466 36.2959L20.7041 35.5534C20.5072 35.3565 20.3966 35.0894 20.3966 34.8109C20.3966 34.5325 20.5072 34.2654 20.7041 34.0685L26.2726 28.5L20.7041 22.9315C20.5072 22.7346 20.3966 22.4675 20.3966 22.1891C20.3966 21.9106 20.5072 21.6435 20.7041 21.4466L21.4466 20.7041Z" fill="black"/>
</svg>
