<svg width="16" height="17" viewBox="0 0 16 17" fill="none" xmlns="http://www.w3.org/2000/svg">
<path d="M14.2699 15.9157C14.6213 16.2672 15.1912 16.2672 15.5426 15.9157C15.8941 15.5642 15.8941 14.9944 15.5426 14.6429L14.2699 15.9157ZM10.1929 6.37264C10.1929 8.68855 8.31551 10.566 5.99959 10.566V12.366C9.30962 12.366 11.9929 9.68266 11.9929 6.37264H10.1929ZM5.99959 10.566C3.68367 10.566 1.80625 8.68855 1.80625 6.37264H0.00625002C0.00625002 9.68266 2.68956 12.366 5.99959 12.366V10.566ZM1.80625 6.37264C1.80625 4.05672 3.68367 2.1793 5.99959 2.1793V0.379297C2.68956 0.379297 0.00625002 3.06261 0.00625002 6.37264H1.80625ZM5.99959 2.1793C8.31551 2.1793 10.1929 4.05672 10.1929 6.37264H11.9929C11.9929 3.06261 9.30962 0.379297 5.99959 0.379297V2.1793ZM15.5426 14.6429L10.136 9.23624L8.86318 10.509L14.2699 15.9157L15.5426 14.6429Z" fill="white"/>
</svg>
