<svg width="56" height="56" viewBox="0 0 56 56" fill="none" xmlns="http://www.w3.org/2000/svg">
<path d="M8.5 42.502V7.00195L49.5 5V37.5H15L8.5 42.502Z" fill="white"/>
<path d="M6 49V7.6C6 6.335 6.45042 5.25208 7.35125 4.35125C8.25208 3.45042 9.335 3 10.6 3H47.4C48.665 3 49.7479 3.45042 50.6488 4.35125C51.5496 5.25208 52 6.335 52 7.6V35.2C52 36.465 51.5496 37.5479 50.6488 38.4488C49.7479 39.3496 48.665 39.8 47.4 39.8H15.2L6 49ZM13.245 35.2H47.4V7.6H10.6V37.7875L13.245 35.2Z" fill="#3D83D3"/>
<path d="M34.6895 11.8496C36.0392 11.8496 37.1484 12.9565 37.1484 14.3066L37.1504 29.6924C37.1502 31.041 36.0403 32.1504 34.6904 32.1504H24.8037C23.4539 32.1504 22.3439 31.0423 22.3438 29.6924V27.4668C22.3425 27.2595 22.4252 27.0602 22.5713 26.9141C22.7177 26.7677 22.9171 26.6855 23.124 26.6855C23.3312 26.6855 23.5296 26.7679 23.6758 26.9141C23.822 27.0604 23.9043 27.26 23.9043 27.4668V29.6924C23.9044 30.1949 24.2992 30.5897 24.8018 30.5898H34.6895C35.1921 30.5898 35.5877 30.195 35.5879 29.6924V14.3076C35.5877 13.8054 35.1937 13.4121 34.6895 13.4121H24.8018C24.2988 13.4123 23.9045 13.8056 23.9043 14.3076V16.626C23.9042 16.8315 23.8218 17.0306 23.6758 17.1768C23.5295 17.323 23.3298 17.4053 23.124 17.4053C22.9168 17.4053 22.7184 17.3229 22.5723 17.1768C22.4621 17.0665 22.389 16.926 22.3594 16.7754H22.3428V14.3076C22.3429 12.9577 23.4522 11.8517 24.8018 11.8516L34.6895 11.8496ZM25.0898 17.7354C25.297 17.7338 25.4963 17.8162 25.6426 17.9619L29.165 21.4453H29.166C29.1904 21.4697 29.2126 21.4962 29.2344 21.5254H29.2354C29.2774 21.5799 29.3112 21.6398 29.3369 21.7031H29.3359C29.3488 21.7328 29.3586 21.7622 29.3652 21.7832L29.3691 21.791L29.373 21.8066L29.3906 21.8975L29.3916 21.9014H29.3906C29.3981 21.9658 29.399 22.0315 29.3916 22.0967L29.3906 22.1045L29.2422 22.0791L29.3896 22.1045V22.1094H29.3887V22.1152H29.3877V22.1211H29.3867V22.125L29.375 22.1836C29.371 22.202 29.3646 22.2176 29.3613 22.2275C29.3567 22.2425 29.3505 22.259 29.3438 22.2764L29.3447 22.2773C29.3437 22.2805 29.3385 22.2915 29.332 22.3057L29.333 22.3066C29.3311 22.3114 29.3282 22.3157 29.3262 22.3203V22.3223C29.3178 22.3415 29.3093 22.3591 29.3008 22.375L29.2969 22.3818C29.2965 22.3824 29.2963 22.3832 29.2949 22.3857C29.2935 22.3884 29.2904 22.3939 29.2871 22.3994L29.2861 22.3984C29.2761 22.4162 29.2661 22.4319 29.2588 22.4424V22.4502L29.2227 22.4922C29.2058 22.5118 29.1883 22.5312 29.1729 22.5479L29.1689 22.5527L29.168 22.5518L29.167 22.5537L28.9111 22.8096V22.8057L25.6445 26.0381C25.4982 26.1841 25.2982 26.2662 25.0908 26.2646C24.885 26.263 24.6856 26.1809 24.54 26.0322C24.2374 25.7247 24.2417 25.2313 24.5479 24.9297L26.7207 22.7803H17.6299C17.4241 22.7803 17.2244 22.698 17.0781 22.5518C16.9321 22.4056 16.8497 22.2065 16.8496 22.001C16.8496 21.7939 16.932 21.5954 17.0781 21.4492C17.2244 21.3029 17.4241 21.2207 17.6299 21.2207H26.7197L24.5479 19.0713C24.2424 18.7689 24.2368 18.2755 24.54 17.9688C24.6847 17.8199 24.8834 17.736 25.0898 17.7354Z" fill="#3D83D3" stroke="#3D83D3" stroke-width="0.3"/>
</svg>
