<svg width="56" height="56" viewBox="0 0 56 56" fill="none" xmlns="http://www.w3.org/2000/svg">
<path d="M8 41.502V6.00195L49 4V36.5H14.5L8 41.502Z" fill="white"/>
<path d="M6 49V7.6C6 6.335 6.45042 5.25208 7.35125 4.35125C8.25208 3.45042 9.335 3 10.6 3H47.4C48.665 3 49.7479 3.45042 50.6488 4.35125C51.5496 5.25208 52 6.335 52 7.6V35.2C52 36.465 51.5496 37.5479 50.6488 38.4488C49.7479 39.3496 48.665 39.8 47.4 39.8H15.2L6 49ZM13.245 35.2H47.4V7.6H10.6V37.7875L13.245 35.2Z" fill="#828282"/>
<path d="M33.1973 11.8496C34.5473 11.8496 35.6543 12.9567 35.6543 14.3066V16.624C35.6543 17.0539 35.3052 17.4027 34.876 17.4043H34.875C34.4442 17.4041 34.0957 17.0549 34.0957 16.624V14.3066C34.0957 13.8044 33.7005 13.4111 33.1973 13.4111H23.3066C22.8035 13.4112 22.4082 13.8044 22.4082 14.3066V29.6924C22.4083 30.195 22.8029 30.5897 23.3066 30.5898H33.1973C33.6999 30.5898 34.0956 30.195 34.0957 29.6924V27.4668C34.0957 27.2599 34.1778 27.0605 34.3242 26.9141C34.4703 26.768 34.668 26.6857 34.875 26.6855H34.876C35.3068 26.6871 35.6543 27.0361 35.6543 27.4668V29.6924C35.6541 31.0408 34.5474 32.1504 33.1973 32.1504H23.3066C21.9567 32.1503 20.8498 31.0421 20.8496 29.6924V14.3076C20.8498 12.9578 21.9568 11.8517 23.3066 11.8516L33.1973 11.8496ZM36.9531 17.7451H37.0107L37.0225 17.7471C37.2063 17.7746 37.2985 17.8681 37.3936 17.9619L37.4385 18.0059V18.0068L40.8965 21.4268L40.8994 21.4287L40.917 21.4453C40.9292 21.4575 40.9393 21.4707 40.9502 21.4834C40.9567 21.4899 40.9631 21.496 40.9648 21.498L40.9668 21.501L40.9766 21.5107L41.0117 21.5615C41.0148 21.5652 41.0182 21.5681 41.0205 21.5713C41.0254 21.5781 41.0292 21.5841 41.0312 21.5879C41.0328 21.5907 41.0337 21.5937 41.0342 21.5947L41.0361 21.5977H41.0352C41.0464 21.6157 41.057 21.634 41.0664 21.6533C41.0822 21.6831 41.0945 21.7136 41.1025 21.7344L41.1133 21.7607V21.7744C41.135 21.846 41.1504 21.9216 41.1504 22.001C41.1503 22.2206 41.0572 22.4297 40.8945 22.5771L40.8711 22.5977L37.3945 26.0381C37.1075 26.322 36.6564 26.3367 36.3516 26.0869L36.292 26.0332C35.9889 25.7271 35.9914 25.2316 36.2979 24.9297L38.4707 22.7803H29.3799C29.1727 22.7803 28.9743 22.6979 28.8281 22.5518C28.6827 22.4062 28.5987 22.2086 28.5986 22.001C28.5986 21.7935 28.6824 21.5941 28.8281 21.4482C28.974 21.3023 29.1723 21.2195 29.3799 21.2207H38.4707L36.2979 19.0713C35.9918 18.7683 35.9887 18.2741 36.292 17.9678C36.4649 17.7922 36.7102 17.7111 36.9531 17.7451Z" fill="#828282" stroke="#828282" stroke-width="0.3"/>
</svg>
