<svg width="48" height="48" viewBox="0 0 48 48" fill="none" xmlns="http://www.w3.org/2000/svg">
<path d="M8 30C8 30 10 28 16 28C22 28 26 32 32 32C38 32 40 30 40 30V6C40 6 38 8 32 8C26 8 22 4 16 4C10 4 8 6 8 6V30ZM8 30V44" stroke="black" stroke-width="4" stroke-linecap="round" stroke-linejoin="round"/>
<path d="M22 5L8.5 6L10 27.5L28.5 32L40 29.5L39 8L22 5Z" fill="black" stroke="black"/>
<path d="M13.3291 6C14.473 6.00017 15.458 6.40527 16.8545 7.01758C18.1631 7.59136 19.8842 8.37206 21.9863 8.37207C22.8743 8.37204 23.6468 8.29283 24.3154 8.16699V18.2793C23.8647 18.4369 23.1187 18.6074 21.9863 18.6074C20.8423 18.6074 19.8574 18.2021 18.4609 17.5898C17.1524 17.0161 15.4312 16.2355 13.3291 16.2354C12.4413 16.2354 11.6686 16.3146 11 16.4404V6.32812C11.4509 6.17057 12.197 6 13.3291 6Z" fill="white"/>
<path d="M25.522 19.6505C27.947 20.1419 30.6204 20.6922 33.7947 20.5212C36.2836 20.3871 38.1301 20.0645 39.4704 19.7127L39.9934 29.4213L34.5491 31.4926C34.4952 31.4957 34.441 31.5004 34.3863 31.5033C31.7857 31.6434 29.5778 31.2047 27.123 30.7074C26.5449 30.5902 25.9526 30.4696 25.3428 30.3563L24.7578 19.498C25.0102 19.5483 25.2649 19.5984 25.522 19.6505Z" fill="white"/>
</svg>
