<?xml version="1.0" encoding="UTF-8"?>
<svg id="uuid-06bd271a-1de3-4618-82d7-c81ec3882d59" data-name="Layer_1" xmlns="http://www.w3.org/2000/svg" viewBox="0 0 12644.97 14163.21">
  <defs>
    <style>
      .uuid-92b25fb4-d0d1-4fae-a4ab-9325eacc053b {
        fill: #fff;
      }
    </style>
  </defs>
  <path class="uuid-92b25fb4-d0d1-4fae-a4ab-9325eacc053b" d="M2609.69,0h3161.42c207.19,0,375.41,168.21,375.41,375.41v95.87c0,207.19-168.21,375.41-375.41,375.41h-3161.42c-207.19,0-375.4-168.21-375.4-375.4v-95.88c0-207.19,168.21-375.4,375.4-375.4Z"/>
  <path class="uuid-92b25fb4-d0d1-4fae-a4ab-9325eacc053b" d="M11788.73,13128.71V3224.7h-3862v9904.01h-349.17V573.24h-1091.23c-53.56,347.06-353.4,613.91-715.21,613.91h-3161.42c-361.82,0-661.66-266.85-715.21-613.91H828.88v12555.47H0v1034.5h12644.97v-1034.5h-856.24ZM2950.63,11390.68h-1125.11v-1125.1h1125.11v1125.1ZM2950.63,9382.95h-1125.11v-1125.1h1125.11v1125.1ZM2950.63,7375.22h-1125.11v-1125.1h1125.11v1125.1ZM2950.63,5367.49h-1125.11v-1125.1h1125.11v1125.1ZM2950.63,3359.76h-1125.11v-1125.1h1125.11v1125.1ZM4752.95,11390.68h-1125.1v-1125.1h1125.1v1125.1ZM4752.95,9382.95h-1125.1v-1125.1h1125.1v1125.1ZM4752.95,7375.22h-1125.1v-1125.1h1125.1v1125.1ZM4752.95,5367.49h-1125.1v-1125.1h1125.1v1125.1ZM4752.95,3359.76h-1125.1v-1125.1h1125.1v1125.1ZM6555.26,11390.68h-1125.1v-1125.1h1125.1v1125.1ZM6555.26,9382.95h-1125.1v-1125.1h1125.1v1125.1ZM6555.26,7375.22h-1125.1v-1125.1h1125.1v1125.1ZM6555.26,5367.49h-1125.1v-1125.1h1125.1v1125.1ZM6555.26,3359.76h-1125.1v-1125.1h1125.1v1125.1ZM9557.71,11768.88h-888.66v-888.67h888.66v888.67ZM9557.71,10183.07h-888.66v-888.67h888.66v888.67ZM9557.71,8597.26h-888.66v-888.66h888.66v888.66ZM9557.71,7011.44h-888.66v-888.66h888.66v888.66ZM9557.71,5425.64h-888.66v-888.67h888.66v888.67ZM10981.27,11768.88h-888.67v-888.67h888.67v888.67ZM10981.27,10183.07h-888.67v-888.67h888.67v888.67ZM10981.27,8597.26h-888.67v-888.66h888.67v888.66ZM10981.27,7011.44h-888.67v-888.66h888.67v888.66ZM10981.27,5425.64h-888.67v-888.67h888.67v888.67Z"/>
</svg>