<svg width="31" height="23" viewBox="0 0 31 23" fill="none" xmlns="http://www.w3.org/2000/svg">
<path d="M15.5004 -0.00012207C15.108 -0.00012207 14.7205 0.0717387 14.3524 0.210328L0.76604 5.40998C0.305895 5.58963 0.000745506 6.05159 0.000745506 6.57002C0.000745506 7.08844 0.305895 7.55041 0.76604 7.73006L3.5705 8.80284C2.77615 10.1271 2.32569 11.6927 2.32569 13.3403V14.7827C2.32569 16.2404 1.80258 17.7444 1.24556 18.9301C0.930723 19.5974 0.572294 20.2544 0.155742 20.8601C0.000745595 21.0808 -0.0428472 21.3682 0.0443382 21.63C0.131524 21.8918 0.334956 22.0868 0.586825 22.1536L3.68675 22.9748C3.89018 23.0313 4.10815 22.9902 4.28736 22.8722C4.46658 22.7541 4.59251 22.5591 4.63126 22.3384C5.04781 20.1415 4.83953 18.1704 4.52954 16.7589C4.37455 16.03 4.16627 15.2857 3.87565 14.603V13.3403C3.87565 11.7902 4.3697 10.3273 5.22703 9.15701C5.85185 8.36141 6.66074 7.71979 7.61009 7.32456L15.2146 4.15755C15.6118 3.99329 16.0622 4.19861 16.2172 4.61951C16.3722 5.04041 16.1785 5.51777 15.7813 5.68202L8.1768 8.84904C7.57619 9.10055 7.04823 9.48552 6.61715 9.95775L14.3476 12.9143C14.7157 13.0529 15.1032 13.1248 15.4955 13.1248C15.8879 13.1248 16.2754 13.0529 16.6435 12.9143L30.2347 7.73006C30.6948 7.55554 31 7.08844 31 6.57002C31 6.05159 30.6948 5.58963 30.2347 5.40998L16.6483 0.210328C16.2802 0.0717387 15.8927 -0.00012207 15.5004 -0.00012207ZM6.2006 19.2997C6.2006 21.1116 10.3661 22.9954 15.5004 22.9954C20.6346 22.9954 24.8001 21.1116 24.8001 19.2997L24.0591 11.8364L17.1714 14.4747C16.6338 14.68 16.0671 14.7827 15.5004 14.7827C14.9337 14.7827 14.3621 14.68 13.8293 14.4747L6.94167 11.8364L6.2006 19.2997Z" fill="white"/>
</svg>
