<svg width="24" height="24" viewBox="0 0 24 24" fill="none" xmlns="http://www.w3.org/2000/svg">
<path d="M17 6C17 5.73478 16.8946 5.48051 16.707 5.29297C16.5195 5.10543 16.2652 5 16 5H8C7.73478 5 7.4805 5.10543 7.29297 5.29297C7.10543 5.4805 7 5.73478 7 6V19H17V6ZM10.0098 11C10.5621 11 11.0098 11.4477 11.0098 12C11.0098 12.5523 10.5621 13 10.0098 13H10C9.44772 13 9 12.5523 9 12C9 11.4477 9.44772 11 10 11H10.0098ZM19 19H22C22.5523 19 23 19.4477 23 20C23 20.5523 22.5523 21 22 21H2C1.44772 21 1 20.5523 1 20C1 19.4477 1.44772 19 2 19H5V6C5 5.20435 5.3163 4.44152 5.87891 3.87891C6.44152 3.3163 7.20435 3 8 3H16C16.7956 3 17.5585 3.3163 18.1211 3.87891C18.6837 4.44152 19 5.20435 19 6V19Z" fill="black"/>
</svg>
