<svg width="22" height="26" viewBox="0 0 22 26" fill="none" xmlns="http://www.w3.org/2000/svg">
<path d="M16.0391 10.3519C16.0391 9.9032 15.6753 9.53943 15.2266 9.53943V9.53943C14.7778 9.53943 14.4141 9.9032 14.4141 10.3519V20.1369C14.4141 20.5856 14.7778 20.9494 15.2266 20.9494V20.9494C15.6753 20.9494 16.0391 20.5856 16.0391 20.1369V10.3519Z" fill="white"/>
<rect width="2.46796" height="9.66895" rx="1" transform="matrix(-0.676014 0.736888 0.574086 0.818795 2.48438 1.13379)" fill="white"/>
<rect width="2.16666" height="10.6022" rx="1" transform="matrix(-0.717233 -0.696833 -0.525577 0.850746 21.2734 2.02954)" fill="white"/>
<rect width="1.625" height="7.54115" rx="0.812498" transform="matrix(-0.484918 -0.874559 -0.7537 0.657218 7.58594 20.9495)" fill="white"/>
<rect width="1.625" height="7.53342" rx="0.812498" transform="matrix(0.481327 -0.876541 -0.756847 -0.653592 20.1719 25.4884)" fill="white"/>
<rect width="1.625" height="9.09849" rx="0.812498" transform="matrix(3.48561e-08 1 1 -5.48164e-08 6.94531 8.72693)" fill="white"/>
<rect width="1.625" height="9.24765" rx="0.812498" transform="matrix(3.48561e-08 1 1 -5.48164e-08 6.79688 19.8273)" fill="white"/>
<rect width="2.16666" height="20.1804" rx="1" transform="matrix(3.48561e-08 1 1 -5.48164e-08 0.84375 23.8331)" fill="white"/>
<rect width="2.16666" height="20.4343" rx="1" transform="matrix(3.32207e-08 1 1 -5.7515e-08 0.84375 0)" fill="white"/>
<rect width="2.16666" height="25.9998" rx="1" transform="matrix(1 -1.09633e-07 -6.97122e-08 -1 19.1016 26)" fill="white"/>
<rect width="2.16666" height="25.9998" rx="1" transform="matrix(1 -1.09633e-07 -6.97122e-08 -1 0.6875 25.9998)" fill="white"/>
<rect width="1.625" height="11.41" rx="0.812498" transform="matrix(-1 0 0 1 7.6875 9.53943)" fill="white"/>
</svg>
