<svg width="24" height="24" viewBox="0 0 24 24" fill="none" xmlns="http://www.w3.org/2000/svg">
<path d="M17 8C17 6.67403 16.4727 5.4025 15.5352 4.46484C14.5976 3.52728 13.3259 3.00013 12 3C10.6739 3 9.40156 3.52716 8.46388 4.46484C7.52635 5.4025 7.00001 6.67403 7.00001 8C7.00001 9.48054 7.8095 11.122 8.93067 12.6484C10.001 14.1056 11.2532 15.3215 11.999 15.9951C12.745 15.3218 13.9978 14.1061 15.0684 12.6484C16.1894 11.1221 17 9.48061 17 8ZM3.00001 21H20.999L18.999 15H15.7549C14.8073 16.115 13.8663 17.0096 13.2744 17.54C13.255 17.5575 13.2346 17.574 13.2139 17.5898C12.8653 17.8561 12.4386 17.9999 12 18C11.5613 18 11.1338 17.8562 10.7852 17.5898C10.7643 17.5739 10.7441 17.5566 10.7246 17.5391C10.1333 17.0087 9.19164 16.1149 8.24415 15H5.00392L3.00001 21ZM13 8C13 7.44788 12.5521 7.00026 12 7C11.4477 7 11 7.44772 11 8C11 8.55228 11.4477 9 12 9C12.5521 8.99974 13 8.55212 13 8ZM15 8C15 9.65669 13.6566 10.9997 12 11C10.3432 11 9.00001 9.65685 9.00001 8C9.00001 6.34315 10.3432 5 12 5C13.6566 5.00026 15 6.34331 15 8ZM19 8C19 9.78393 18.2115 11.5259 17.2549 13H18.999C19.4187 13 19.8275 13.1325 20.168 13.3779C20.5086 13.6235 20.7638 13.9698 20.8965 14.3682L22.8965 20.3682C22.9965 20.6686 23.0234 20.9887 22.9756 21.3018C22.9278 21.6147 22.8071 21.9121 22.6221 22.1689C22.437 22.4259 22.193 22.6358 21.9111 22.7803C21.6997 22.8886 21.471 22.9573 21.2363 22.9854L21 23H2.99903C2.68223 22.9998 2.36985 22.9247 2.0879 22.7803C1.80582 22.6357 1.56214 22.4252 1.37696 22.168C1.19188 21.9108 1.07003 21.6131 1.02247 21.2998C0.974985 20.9866 1.00311 20.6667 1.10352 20.3662L3.10743 14.3662C3.24036 13.9685 3.49474 13.6221 3.83497 13.377C4.17511 13.132 4.58376 13.0002 5.00294 13H6.74415C5.78748 11.5259 5.00001 9.78391 5.00001 8C5.00001 6.14348 5.73706 4.36256 7.04981 3.0498C8.36255 1.7372 10.1436 1 12 1C13.8562 1.00013 15.6366 1.73732 16.9492 3.0498C18.262 4.36256 19 6.14349 19 8Z" fill="black"/>
</svg>
