<svg width="20" height="26" viewBox="0 0 20 26" fill="none" xmlns="http://www.w3.org/2000/svg">
<path fill-rule="evenodd" clip-rule="evenodd" d="M19.4375 1C19.4375 0.447715 18.9898 0 18.4375 0H1.4375C0.885215 0 0.4375 0.447716 0.4375 1V25C0.4375 25.5523 0.885215 26 1.4375 26H18.4375C18.9898 26 19.4375 25.5523 19.4375 25V1ZM9.05021 5.70702C9.42362 4.98862 10.4514 4.98863 10.8248 5.70702L13.0764 10.0388C13.4224 10.7045 12.9394 11.5 12.1891 11.5H7.68588C6.93562 11.5 6.45256 10.7045 6.79859 10.0388L9.05021 5.70702ZM10.8248 20.293C10.4514 21.0114 9.42362 21.0114 9.05021 20.293L6.79859 15.9612C6.45256 15.2955 6.93562 14.5 7.68588 14.5H12.1891C12.9394 14.5 13.4224 15.2955 13.0764 15.9612L10.8248 20.293Z" fill="white"/>
</svg>
