<svg width="24" height="24" viewBox="0 0 24 24" fill="none" xmlns="http://www.w3.org/2000/svg">
<path d="M3 20V4C3 3.44772 3.44772 3 4 3C4.55228 3 5 3.44772 5 4V20C5 20.5523 4.55228 21 4 21C3.44772 21 3 20.5523 3 20ZM7 20V8C7 7.44772 7.44772 7 8 7C8.55228 7 9 7.44772 9 8V20C9 20.5523 8.55228 21 8 21C7.44772 21 7 20.5523 7 20ZM11 20V6C11 5.44772 11.4477 5 12 5C12.5523 5 13 5.44772 13 6V20C13 20.5523 12.5523 21 12 21C11.4477 21 11 20.5523 11 20ZM15.7256 5.03809C16.2565 4.88662 16.8102 5.19468 16.9619 5.72559L20.9619 19.7256C21.1134 20.2565 20.8053 20.8102 20.2744 20.9619C19.7435 21.1134 19.1898 20.8053 19.0381 20.2744L15.0381 6.27441C14.8866 5.7435 15.1947 5.18977 15.7256 5.03809Z" fill="black"/>
</svg>
