<svg width="20" height="20" viewBox="0 0 20 20" fill="none" xmlns="http://www.w3.org/2000/svg">
<g clip-path="url(#clip0_4827_22992)">
<path d="M9.16927 18.333V17.4517C5.69309 17.0673 2.93415 14.3092 2.5498 10.833H1.66927C1.20903 10.833 0.835938 10.4599 0.835938 9.99967C0.835938 9.53944 1.20903 9.16634 1.66927 9.16634H2.5498C2.93416 5.69012 5.69305 2.93123 9.16927 2.54688V1.66634C9.16927 1.2061 9.54237 0.833008 10.0026 0.833008C10.4628 0.833008 10.8359 1.2061 10.8359 1.66634V2.54688C14.3122 2.93123 17.0711 5.69012 17.4554 9.16634H18.3359C18.7962 9.16634 19.1693 9.53944 19.1693 9.99967C19.1693 10.4599 18.7962 10.833 18.3359 10.833H17.4554C17.0711 14.3092 14.3121 17.0673 10.8359 17.4517V18.333C10.8359 18.7932 10.4628 19.1663 10.0026 19.1663C9.54237 19.1663 9.16927 18.7932 9.16927 18.333ZM10.0026 4.16634C6.78094 4.16634 4.16927 6.77801 4.16927 9.99967C4.16927 13.2213 6.78094 15.833 10.0026 15.833C13.2243 15.833 15.8359 13.2213 15.8359 9.99967C15.8359 6.77801 13.2243 4.16634 10.0026 4.16634ZM11.6693 9.99967C11.6693 9.0792 10.9231 8.33301 10.0026 8.33301C9.08213 8.33301 8.33594 9.0792 8.33594 9.99967C8.33594 10.9201 9.08213 11.6663 10.0026 11.6663C10.9231 11.6663 11.6693 10.9201 11.6693 9.99967ZM13.3359 9.99967C13.3359 11.8406 11.8436 13.333 10.0026 13.333C8.16166 13.333 6.66927 11.8406 6.66927 9.99967C6.66927 8.15873 8.16166 6.66634 10.0026 6.66634C11.8436 6.66634 13.3359 8.15873 13.3359 9.99967Z" fill="#0D89BE"/>
</g>
<defs>
<clipPath id="clip0_4827_22992">
<rect width="20" height="20" fill="white"/>
</clipPath>
</defs>
</svg>
