<svg width="24" height="24" viewBox="0 0 24 24" fill="none" xmlns="http://www.w3.org/2000/svg">
<path d="M5.00001 21V12H4.4004C3.99524 12 3.63747 12.0009 3.34278 11.9795C3.03936 11.9575 2.72029 11.9079 2.40626 11.7656C1.94726 11.5577 1.55179 11.2158 1.29591 10.7695C1.11432 10.4527 1.05148 10.1283 1.02442 9.83398C0.998806 9.55529 1.00001 9.22104 1.00001 8.86621V3C1.00001 2.44772 1.44772 2 2.00001 2C2.55229 2 3.00001 2.44772 3.00001 3V8.86621C3.00001 9.25777 3.00139 9.48445 3.01661 9.65039C3.02967 9.79246 3.04756 9.80503 3.03419 9.7793C3.06674 9.83356 3.12927 9.89702 3.23145 9.94336C3.23829 9.94646 3.29048 9.97008 3.48731 9.98438C3.69279 9.99929 3.96572 10 4.4004 10H5.00001V3C5.00001 2.44772 5.44773 2 6.00001 2C6.55229 2 7.00001 2.44772 7.00001 3V10H7.59962C8.0343 10 8.30723 9.99929 8.5127 9.98438C8.70954 9.97008 8.76172 9.94646 8.76856 9.94336C8.87048 9.89714 8.93222 9.83347 8.96485 9.7793C8.96921 9.76224 8.97673 9.72303 8.98341 9.65039C8.99862 9.48445 9.00001 9.25777 9.00001 8.86621V3C9.00001 2.44772 9.44773 2 10 2C10.5523 2 11 2.44772 11 3V8.86621C11 9.22104 11.0012 9.55529 10.9756 9.83398C10.9485 10.1283 10.8857 10.4527 10.7041 10.7695C10.4482 11.2158 10.0528 11.5577 9.59376 11.7656C9.27973 11.9079 8.96066 11.9575 8.65724 11.9795C8.50986 11.9902 8.3468 11.9955 8.16993 11.998L7.59962 12H7.00001V21C7.00001 21.5523 6.55229 22 6.00001 22C5.44773 22 5.00001 21.5523 5.00001 21ZM14 2C14.3834 2 14.9786 2.10729 15.583 2.26953C16.2108 2.43806 16.9472 2.69248 17.6221 3.03809C18.9541 3.72024 20.1142 4.7095 21.0137 5.92676C21.9129 7.14373 22.5283 8.55678 22.8154 10.0557C23.1026 11.5547 23.0539 13.1023 22.6729 14.5791C22.2918 16.0559 21.588 17.4248 20.6133 18.5791C19.6384 19.7335 18.418 20.6428 17.0449 21.2334C15.6717 21.8241 14.1841 22.0796 12.6983 21.9785C11.2437 21.8795 10.2954 21.6428 8.98536 20.8574C8.51202 20.5733 8.35868 19.9589 8.64259 19.4854C8.92669 19.012 9.54113 18.8587 10.0147 19.1426C11.0067 19.7373 11.6362 19.9018 12.834 19.9834C14.0012 20.0628 15.1718 19.8624 16.2549 19.3965C17.3381 18.9305 18.3069 18.2103 19.085 17.2891C19.8632 16.3675 20.4293 15.2692 20.7363 14.0791C21.0433 12.8892 21.083 11.6413 20.8516 10.4326C20.62 9.22381 20.1244 8.08853 19.4053 7.11523C18.6863 6.14214 17.7633 5.35735 16.7109 4.81836C16.1937 4.55349 15.5967 4.34405 15.0645 4.20117C14.5087 4.05198 14.1166 4 14 4C13.4477 4 13 3.55228 13 3C13 2.44772 13.4477 2 14 2Z" fill="black"/>
</svg>
