<svg width="29" height="23" viewBox="0 0 29 23" fill="none" xmlns="http://www.w3.org/2000/svg">
<rect x="0.0390625" y="19.7605" width="9.03226" height="2.70968" rx="1" fill="white"/>
<path d="M6.35938 14.4379C6.35938 13.8856 6.80709 13.4379 7.35937 13.4379H14.3916C14.9439 13.4379 15.3916 13.8856 15.3916 14.4379V15.1475C15.3916 15.6998 14.9439 16.1475 14.3916 16.1475H7.35937C6.80709 16.1475 6.35938 15.6998 6.35938 15.1475V14.4379Z" fill="white"/>
<path d="M12.6875 8.11536C12.6875 7.56307 13.1352 7.11536 13.6875 7.11536H20.7198C21.272 7.11536 21.7198 7.56307 21.7198 8.11536V8.82503C21.7198 9.37732 21.272 9.82503 20.7198 9.82503H13.6875C13.1352 9.82503 12.6875 9.37732 12.6875 8.82503V8.11536Z" fill="white"/>
<rect x="9.07031" y="13.4379" width="9.03226" height="2.70968" rx="1" transform="rotate(90 9.07031 13.4379)" fill="white"/>
<rect x="15.3906" y="7.11536" width="9.03226" height="2.70968" rx="1" transform="rotate(90 15.3906 7.11536)" fill="white"/>
<path d="M19.0078 1.79272C19.0078 1.24044 19.4555 0.792725 20.0078 0.792725H27.0401C27.5924 0.792725 28.0401 1.24044 28.0401 1.79272V2.5024C28.0401 3.05469 27.5924 3.5024 27.0401 3.5024H20.0078C19.4555 3.5024 19.0078 3.05469 19.0078 2.5024V1.79272Z" fill="white"/>
<rect x="21.7188" y="0.792725" width="9.03226" height="2.70968" rx="1" transform="rotate(90 21.7188 0.792725)" fill="white"/>
</svg>
