<svg width="24" height="24" viewBox="0 0 24 24" fill="none" xmlns="http://www.w3.org/2000/svg">
<path d="M16 14.5006V12.6178L12.8047 14.2154C12.7253 14.2551 12.515 14.3708 12.2764 14.4156C12.0937 14.4498 11.9063 14.4498 11.7236 14.4156C11.485 14.3708 11.2747 14.2551 11.1953 14.2154L5 11.1178V16.3072C5 16.5049 5.00017 16.6072 5.00488 16.6812C5.005 16.6831 5.00476 16.6854 5.00488 16.6871C5.00701 16.6883 5.00933 16.6897 5.01172 16.691C5.07704 16.7261 5.16962 16.7696 5.34961 16.8521L11.75 19.7857C11.8811 19.8458 11.9472 19.8756 11.9961 19.8951C11.9973 19.8956 11.9989 19.8956 12 19.8961C12.0011 19.8956 12.0027 19.8956 12.0039 19.8951C12.0528 19.8756 12.1189 19.8458 12.25 19.7857L18.6504 16.8521C18.8304 16.7696 18.923 16.7261 18.9883 16.691C18.9904 16.6899 18.9922 16.6881 18.9941 16.6871C18.9943 16.6853 18.995 16.6831 18.9951 16.6812C18.9998 16.6072 19 16.5049 19 16.3072V11.1178L18 11.6178V14.5006C17.9998 15.0527 17.5521 15.5006 17 15.5006C16.4479 15.5006 16.0002 15.0527 16 14.5006ZM4.23535 8.49959L12 12.3814L14.7627 10.9996L11.5527 9.39412C11.059 9.14712 10.8588 8.54714 11.1055 8.0533C11.3525 7.55932 11.9533 7.35905 12.4473 7.60604L17 9.88143L19.7637 8.49959L12 4.61776L4.23535 8.49959ZM21 16.5455C20.9978 16.7988 20.9812 17.0894 20.8838 17.3629C20.7812 17.6507 20.6144 17.9114 20.3955 18.1246C20.1182 18.3946 19.7529 18.547 19.4834 18.6705L13.083 21.6041C12.8859 21.6944 12.6269 21.8212 12.3418 21.8707C12.1156 21.9099 11.8844 21.9099 11.6582 21.8707C11.3731 21.8212 11.1141 21.6944 10.917 21.6041L4.5166 18.6705C4.24711 18.547 3.88182 18.3946 3.60449 18.1246C3.38563 17.9114 3.21876 17.6507 3.11621 17.3629C3.01879 17.0894 3.00218 16.7988 3 16.5455V10.1178L1.55273 9.39412C1.2142 9.22475 1.00016 8.87909 1 8.50057C1 8.12186 1.21405 7.77546 1.55273 7.60604L11.1953 2.78475C11.2748 2.745 11.4851 2.62931 11.7236 2.58455L11.8613 2.566C11.9536 2.55743 12.0464 2.55743 12.1387 2.566L12.2764 2.58455L12.4482 2.62947C12.6119 2.68261 12.745 2.75492 12.8047 2.78475L22.4473 7.60604C22.786 7.77546 23 8.12186 23 8.50057C22.9998 8.87909 22.7858 9.22475 22.4473 9.39412L21 10.1178V16.5455Z" fill="black"/>
</svg>
