<svg width="25" height="25" viewBox="0 0 25 25" fill="none" xmlns="http://www.w3.org/2000/svg">
<path d="M19.2895 10.0505C19.2895 6.16488 16.108 3.01501 12.1834 3.01501C8.25874 3.01501 5.0772 6.16488 5.0772 10.0505C5.0772 12.3613 6.35275 14.1234 8.09395 15.9189C8.52606 16.3645 8.97463 16.8012 9.43329 17.2478C9.88786 17.6905 10.3524 18.143 10.7944 18.6043C11.2827 19.1137 11.7576 19.6502 12.1834 20.2198C12.6092 19.6502 13.084 19.1137 13.5723 18.6043C14.0143 18.143 14.4788 17.6905 14.9334 17.2478C15.3921 16.8012 15.8407 16.3645 16.2728 15.9189C18.014 14.1234 19.2895 12.3613 19.2895 10.0505ZM14.2137 9.54792C14.2137 8.43776 13.3047 7.53779 12.1834 7.53779C11.062 7.53779 10.153 8.43776 10.153 9.54792C10.153 10.6581 11.062 11.558 12.1834 11.558C13.3047 11.558 14.2137 10.6581 14.2137 9.54792ZM21.3198 10.0505C21.3198 13.1853 19.5498 15.4433 17.738 17.3116C17.2819 17.782 16.8104 18.2393 16.357 18.6808C15.8996 19.1262 15.4598 19.5559 15.0454 19.9882C14.2123 20.8575 13.532 21.6884 13.0915 22.5607C12.9195 22.9012 12.5679 23.1163 12.1834 23.1163C11.7988 23.1163 11.4472 22.9012 11.2753 22.5607C10.8347 21.6884 10.1544 20.8575 9.32127 19.9882C8.90688 19.5559 8.46707 19.1262 8.00968 18.6808C7.55628 18.2393 7.08486 17.782 6.6287 17.3116C4.81687 15.4433 3.04688 13.1853 3.04688 10.0505C3.04688 5.05472 7.13742 1.00488 12.1834 1.00488C17.2293 1.00488 21.3198 5.05472 21.3198 10.0505ZM16.244 9.54792C16.244 11.7682 14.426 13.5682 12.1834 13.5682C9.94072 13.5682 8.1227 11.7682 8.1227 9.54792C8.1227 7.3276 9.94072 5.52767 12.1834 5.52767C14.426 5.52767 16.244 7.3276 16.244 9.54792Z" fill="#C41230"/>
</svg>
