<svg width="5" height="19" viewBox="0 0 5 19" fill="none" xmlns="http://www.w3.org/2000/svg">
<path d="M0 16.081C0 14.9709 0.909009 14.0709 2.03033 14.0709C3.15165 14.0709 4.06066 14.9709 4.06066 16.081C4.06066 17.1912 3.15165 18.0911 2.03033 18.0911C0.909009 18.0911 0 17.1912 0 16.081ZM0 9.04557C0 7.93541 0.909009 7.03544 2.03033 7.03544C3.15165 7.03544 4.06066 7.93541 4.06066 9.04557C4.06066 10.1557 3.15165 11.0557 2.03033 11.0557C0.909009 11.0557 0 10.1557 0 9.04557ZM0 2.01013C0 0.899964 0.909009 0 2.03033 0C3.15165 0 4.06066 0.899964 4.06066 2.01013C4.06066 3.12029 3.15165 4.02025 2.03033 4.02025C0.909009 4.02025 0 3.12029 0 2.01013Z" fill="#828282"/>
</svg>
