<svg width="33" height="84" viewBox="0 0 33 84" fill="none" xmlns="http://www.w3.org/2000/svg">
<g filter="url(#filter0_d_61_106)">
<circle cx="16.5" cy="16.5" r="11.2826" transform="rotate(90 16.5 16.5)" fill="#1E86FF"/>
<circle cx="16.5" cy="16.5" r="9.97826" transform="rotate(90 16.5 16.5)" stroke="white" stroke-width="2.6087"/>
</g>
<path d="M16.5 46C17.6046 46 18.5 46.8954 18.5 48C18.5 49.1046 17.6046 50 16.5 50C15.3954 50 14.5 49.1046 14.5 48C14.5 46.8954 15.3954 46 16.5 46ZM16.5 40C17.6046 40 18.5 40.8954 18.5 42C18.5 43.1046 17.6046 44 16.5 44C15.3954 44 14.5 43.1046 14.5 42C14.5 40.8954 15.3954 40 16.5 40ZM16.5 34C17.6046 34 18.5 34.8954 18.5 36C18.5 37.1046 17.6046 38 16.5 38C15.3954 38 14.5 37.1046 14.5 36C14.5 34.8954 15.3954 34 16.5 34Z" fill="#ECEEF2"/>
<g filter="url(#filter1_d_61_106)">
<circle cx="16.5" cy="67.5" r="11.2826" transform="rotate(90 16.5 67.5)" fill="#C41230"/>
<circle cx="16.5" cy="67.5" r="9.97826" transform="rotate(90 16.5 67.5)" stroke="white" stroke-width="2.6087"/>
</g>
<defs>
<filter id="filter0_d_61_106" x="2.6087" y="2.6087" width="27.7826" height="27.7826" filterUnits="userSpaceOnUse" color-interpolation-filters="sRGB">
<feFlood flood-opacity="0" result="BackgroundImageFix"/>
<feColorMatrix in="SourceAlpha" type="matrix" values="0 0 0 0 0 0 0 0 0 0 0 0 0 0 0 0 0 0 127 0" result="hardAlpha"/>
<feMorphology radius="1.30435" operator="dilate" in="SourceAlpha" result="effect1_dropShadow_61_106"/>
<feOffset/>
<feGaussianBlur stdDeviation="0.652174"/>
<feComposite in2="hardAlpha" operator="out"/>
<feColorMatrix type="matrix" values="0 0 0 0 0.529412 0 0 0 0 0.737255 0 0 0 0 0.984314 0 0 0 0.44 0"/>
<feBlend mode="normal" in2="BackgroundImageFix" result="effect1_dropShadow_61_106"/>
<feBlend mode="normal" in="SourceGraphic" in2="effect1_dropShadow_61_106" result="shape"/>
</filter>
<filter id="filter1_d_61_106" x="2.6087" y="53.6087" width="27.7826" height="27.7826" filterUnits="userSpaceOnUse" color-interpolation-filters="sRGB">
<feFlood flood-opacity="0" result="BackgroundImageFix"/>
<feColorMatrix in="SourceAlpha" type="matrix" values="0 0 0 0 0 0 0 0 0 0 0 0 0 0 0 0 0 0 127 0" result="hardAlpha"/>
<feMorphology radius="1.30435" operator="dilate" in="SourceAlpha" result="effect1_dropShadow_61_106"/>
<feOffset/>
<feGaussianBlur stdDeviation="0.652174"/>
<feComposite in2="hardAlpha" operator="out"/>
<feColorMatrix type="matrix" values="0 0 0 0 0.529412 0 0 0 0 0.737255 0 0 0 0 0.984314 0 0 0 0.44 0"/>
<feBlend mode="normal" in2="BackgroundImageFix" result="effect1_dropShadow_61_106"/>
<feBlend mode="normal" in="SourceGraphic" in2="effect1_dropShadow_61_106" result="shape"/>
</filter>
</defs>
</svg>
