<svg width="24" height="24" viewBox="0 0 24 24" fill="none" xmlns="http://www.w3.org/2000/svg">
<path d="M5.29289 6.29289C5.68342 5.90237 6.31643 5.90237 6.70696 6.29289L11.707 11.2929C12.0975 11.6834 12.0975 12.3164 11.707 12.707L6.70696 17.707C6.31643 18.0975 5.68342 18.0975 5.29289 17.707C4.90237 17.3164 4.90237 16.6834 5.29289 16.2929L9.58586 11.9999L5.29289 7.70696C4.90237 7.31643 4.90237 6.68342 5.29289 6.29289ZM12.2929 6.29289C12.6834 5.90237 13.3164 5.90237 13.707 6.29289L18.707 11.2929C19.0975 11.6834 19.0975 12.3164 18.707 12.707L13.707 17.707C13.3164 18.0975 12.6834 18.0975 12.2929 17.707C11.9024 17.3164 11.9024 16.6834 12.2929 16.2929L16.5859 11.9999L12.2929 7.70696L12.2245 7.63078C11.9042 7.23801 11.9268 6.65901 12.2929 6.29289Z" fill="white"/>
</svg>
