<svg width="25" height="25" viewBox="0 0 25 25" fill="none" xmlns="http://www.w3.org/2000/svg">
<path d="M11.1673 22.1112V21.0482C6.9326 20.5846 3.57166 17.2582 3.10345 13.0656H2.03079C1.47013 13.0656 1.01562 12.6157 1.01562 12.0606C1.01562 11.5055 1.47013 11.0555 2.03079 11.0555H3.10345C3.57167 6.86293 6.93255 3.53549 11.1673 3.07194V2.00995C11.1673 1.45486 11.6218 1.00488 12.1824 1.00488C12.7431 1.00488 13.1976 1.45486 13.1976 2.00995V3.07194C17.4323 3.53549 20.7932 6.86293 21.2614 11.0555H22.3341C22.8947 11.0555 23.3492 11.5055 23.3492 12.0606C23.3492 12.6157 22.8947 13.0656 22.3341 13.0656H21.2614C20.7932 17.2582 17.4323 20.5846 13.1976 21.0482V22.1112C13.1976 22.6663 12.7431 23.1163 12.1824 23.1163C11.6218 23.1163 11.1673 22.6663 11.1673 22.1112ZM12.1824 5.02514C8.25782 5.02514 5.07628 8.17501 5.07628 12.0606C5.07628 15.9461 8.25782 19.096 12.1824 19.096C16.1071 19.096 19.2886 15.9461 19.2886 12.0606C19.2886 8.17501 16.1071 5.02514 12.1824 5.02514ZM14.2128 12.0606C14.2128 10.9504 13.3038 10.0505 12.1824 10.0505C11.0611 10.0505 10.1521 10.9504 10.1521 12.0606C10.1521 13.1707 11.0611 14.0707 12.1824 14.0707C13.3038 14.0707 14.2128 13.1707 14.2128 12.0606ZM16.2431 12.0606C16.2431 14.2809 14.4251 16.0808 12.1824 16.0808C9.9398 16.0808 8.12178 14.2809 8.12178 12.0606C8.12178 9.84025 9.9398 8.04033 12.1824 8.04033C14.4251 8.04033 16.2431 9.84025 16.2431 12.0606Z" fill="#0E96D1"/>
</svg>
