<svg width="19" height="19" viewBox="0 0 19 19" fill="none" xmlns="http://www.w3.org/2000/svg">
<g clip-path="url(#clip0_5320_31796)">
<path d="M10.808 2.26127H6.46806C6.09053 2.26127 5.97531 2.26327 5.88885 2.27452C5.20554 2.36358 4.66796 2.89581 4.57801 3.57231C4.56664 3.65791 4.56462 3.77199 4.56462 4.14576C4.56462 4.56207 4.22374 4.89956 3.80325 4.89956C3.38275 4.89956 3.04187 4.56207 3.04187 4.14576C3.04187 3.81964 3.0402 3.58331 3.0679 3.37503C3.24791 2.02222 4.32318 0.957655 5.68958 0.779436C5.89996 0.752016 6.13866 0.753672 6.46806 0.753672H10.808C11.435 0.753672 11.9511 0.752901 12.3702 0.786797C12.7981 0.821419 13.1918 0.89559 13.5613 1.08199C14.1343 1.37104 14.6003 1.83242 14.8922 2.39966C15.0805 2.76548 15.1554 3.15526 15.1904 3.57894C15.2246 3.99382 15.2238 4.5048 15.2238 5.12555V8.73332L16.2083 7.75869L16.2663 7.70716C16.5653 7.46568 17.0062 7.48271 17.2849 7.75869C17.5637 8.03466 17.5809 8.47111 17.337 8.76719L17.2849 8.8246L15.0008 11.086C14.7035 11.3804 14.2215 11.3804 13.9242 11.086L11.64 8.8246C11.3427 8.53023 11.3427 8.05306 11.64 7.75869C11.9374 7.46431 12.4193 7.46431 12.7167 7.75869L13.7011 8.73332V5.12555C13.7011 4.48001 13.7008 4.04111 13.6728 3.70187C13.6456 3.3714 13.596 3.20215 13.5353 3.08426C13.3893 2.80064 13.1563 2.56995 12.8698 2.42542C12.7508 2.36535 12.5798 2.31624 12.246 2.28924C11.9034 2.26153 11.4601 2.26127 10.808 2.26127ZM11.7977 17.3372H7.45769C6.83071 17.3372 6.31458 17.338 5.89554 17.3041C5.4676 17.2695 5.0739 17.1953 4.70441 17.0089C4.13147 16.7198 3.66545 16.2585 3.37349 15.6912C3.18522 15.3254 3.1103 14.9356 3.07533 14.5119C3.0411 14.0971 3.04187 13.5861 3.04187 12.9653V9.35756L2.05744 10.3322L1.99945 10.3837C1.7004 10.6252 1.25956 10.6082 0.980814 10.3322C0.683479 10.0378 0.683479 9.56066 0.980814 9.26628L3.26493 7.00489C3.56227 6.71051 4.04423 6.71051 4.34156 7.00489L6.62568 9.26628C6.92302 9.56066 6.92302 10.0378 6.62568 10.3322C6.32835 10.6266 5.84639 10.6266 5.54905 10.3322L4.56462 9.35756V12.9653C4.56462 13.6109 4.56489 14.0498 4.59288 14.389C4.62015 14.7195 4.66975 14.8887 4.73043 15.0066C4.87641 15.2902 5.10942 15.5209 5.39589 15.6655C5.51497 15.7255 5.68591 15.7746 6.01971 15.8016C6.36235 15.8294 6.80566 15.8296 7.45769 15.8296H11.7977C12.1752 15.8296 12.2904 15.8276 12.3769 15.8164C13.0602 15.7273 13.5978 15.1951 13.6877 14.5186C13.6991 14.433 13.7011 14.3189 13.7011 13.9451C13.7011 13.5288 14.042 13.1913 14.4625 13.1913C14.883 13.1913 15.2238 13.5288 15.2238 13.9451C15.2238 14.2712 15.2255 14.5076 15.1978 14.7159C15.0178 16.0687 13.9425 17.1332 12.5761 17.3115C12.3658 17.3389 12.1271 17.3372 11.7977 17.3372Z" fill="#828282"/>
</g>
<defs>
<clipPath id="clip0_5320_31796">
<path d="M9.04557 18.0911C4.04984 18.0911 0 14.0413 0 9.04557C0 4.04984 4.04984 0 9.04557 0H18.273V18.0911H9.04557Z" fill="white"/>
</clipPath>
</defs>
</svg>
