<svg width="157" height="205" viewBox="0 0 157 205" fill="none" xmlns="http://www.w3.org/2000/svg">
<path d="M64.0773 176.632C53.2803 159.6 41.5775 151.632 28.5773 139.132C15.5771 126.633 8.8706 118.418 3.57733 101.632C-1.24372 86.344 -0.422563 70.6323 1.57733 60.6324C3.57723 50.6326 12.0298 34.6099 24.5773 22.6324C35.8423 11.8793 44.0053 6.55198 59.0773 2.63243C73.2506 -1.0534 82.3162 -0.697027 96.5773 2.63243C112.74 6.40581 122.217 11.0216 134.077 22.6324C146.193 34.4937 153.077 49.6326 155.077 60.6324C157.077 71.6323 157.73 86.2918 153.077 101.632C148.062 118.171 141.577 127.633 129.577 139.132C117.578 150.632 103.638 159.449 92.0773 176.632C85.2036 186.849 80.0771 204.633 77.5773 204.632C75.0775 204.632 70.5768 186.885 64.0773 176.632Z" fill="#31B777"/>
<circle cx="78.5" cy="79.5" r="44.5" fill="white"/>
</svg>
