<svg width="17" height="15" viewBox="0 0 17 15" fill="none" xmlns="http://www.w3.org/2000/svg">
<path fill-rule="evenodd" clip-rule="evenodd" d="M0.359375 1.34197C0.359375 0.734713 0.851655 0.242432 1.45891 0.242432H15.2598C15.8671 0.242432 16.3594 0.734712 16.3594 1.34197V11.0258C16.3594 11.633 15.8671 12.1253 15.2598 12.1253H1.45891C0.851656 12.1253 0.359375 11.633 0.359375 11.0258V1.34197ZM1.78018 2.25032C1.78018 1.88596 2.07555 1.5906 2.43991 1.5906H14.2788C14.6432 1.5906 14.9386 1.88596 14.9386 2.25032V8.66736C14.9386 9.03171 14.6432 9.32708 14.2788 9.32708H2.43991C2.07555 9.32708 1.78018 9.03171 1.78018 8.66736V2.25032ZM8.35528 11.4747C8.75891 11.4747 9.08611 11.1475 9.08611 10.7438C9.08611 10.3402 8.75891 10.013 8.35528 10.013C7.95165 10.013 7.62445 10.3402 7.62445 10.7438C7.62445 11.1475 7.95165 11.4747 8.35528 11.4747Z" fill="#1E86FF"/>
<path d="M7.04737 12.0741C7.10254 11.8871 7.27424 11.7588 7.4692 11.7588H9.22085C9.41478 11.7588 9.58582 11.8858 9.64189 12.0714L10.0558 13.4419C10.1411 13.7243 9.92971 14.0089 9.63475 14.0089H7.06488C6.7711 14.0089 6.55991 13.7264 6.64304 13.4446L7.04737 12.0741Z" fill="#1E86FF"/>
<rect x="5.30469" y="13.4797" width="6.09557" height="1.05825" rx="0.529126" fill="#1E86FF"/>
</svg>
