<svg width="17" height="12" viewBox="0 0 17 12" fill="none" xmlns="http://www.w3.org/2000/svg">
<path d="M14.0769 0.752686H1.98562C0.908026 0.752686 0.03125 1.62946 0.03125 2.70705V9.66049C0.03125 10.7381 0.908026 11.6149 1.98562 11.6149H14.0769C15.1545 11.6149 16.0312 10.7381 16.0312 9.66049V2.70726C16.0315 1.62946 15.1547 0.752686 14.0769 0.752686ZM13.1219 2.02769L8.03125 5.30742L2.94059 2.02769H13.1219ZM14.0769 10.3401H1.98562C1.61098 10.3401 1.30625 10.0351 1.30625 9.6607V2.74339L7.63791 6.8149C7.64641 6.82021 7.65555 6.82382 7.66426 6.82871C7.6734 6.83381 7.68275 6.8387 7.6921 6.84337C7.74119 6.86866 7.79176 6.88906 7.8434 6.90245C7.84871 6.90393 7.85403 6.90457 7.85934 6.90585C7.91608 6.91923 7.97345 6.92752 8.03083 6.92752H8.03125C8.03168 6.92752 8.0321 6.92752 8.0321 6.92752C8.08948 6.92752 8.14685 6.91945 8.20359 6.90585C8.2089 6.90457 8.21421 6.90393 8.21953 6.90245C8.27116 6.88906 8.32153 6.86866 8.37083 6.84337C8.38018 6.8387 8.38953 6.83381 8.39866 6.82871C8.40738 6.82382 8.41651 6.82021 8.42501 6.8149L14.7567 2.74339V9.66049C14.7565 10.0351 14.4515 10.3401 14.0769 10.3401Z" fill="#1E86FF"/>
</svg>
