<svg width="20" height="20" viewBox="0 0 20 20" fill="none" xmlns="http://www.w3.org/2000/svg">
<path d="M2.5 13.8929C2.5 12.4304 3.18333 11.1313 4.2391 10.2064C4.58519 9.90321 5.11174 9.93778 5.41504 10.2837C5.71825 10.6298 5.68379 11.1564 5.33773 11.4596C4.59329 12.1117 4.16667 12.973 4.16667 13.8929C4.16674 15.8265 5.68572 17.4996 8.05908 17.4997C9.23224 17.4997 10.4522 16.9134 10.988 16.161C11.2549 15.7861 11.7751 15.698 12.1501 15.9648C12.5249 16.2317 12.6122 16.752 12.3454 17.127C11.4381 18.4013 9.66136 19.1663 8.05908 19.1663C4.80703 19.1662 2.50007 16.7882 2.5 13.8929ZM10 10.833V9.16634C10 8.7061 9.6269 8.33301 9.16667 8.33301C8.70643 8.33301 8.33333 8.7061 8.33333 9.16634V11.6663C8.33333 12.1266 8.70643 12.4997 9.16667 12.4997H13.0949C13.402 12.4997 13.6846 12.6685 13.8298 12.9391L15.38 15.833H16.6667C17.1269 15.833 17.5 16.2061 17.5 16.6663C17.5 17.1266 17.1269 17.4997 16.6667 17.4997H14.8812C14.5741 17.4997 14.2914 17.3309 14.1463 17.0602L12.596 14.1663H9.16667C7.914 14.1663 6.87599 13.2451 6.69434 12.0431C6.67687 11.976 6.66668 11.9058 6.66667 11.8332V9.16634C6.66667 7.78563 7.78595 6.66634 9.16667 6.66634C10.5474 6.66634 11.6667 7.78563 11.6667 9.16634V10.833C11.6667 11.2932 11.2936 11.6663 10.8333 11.6663C10.3731 11.6663 10 11.2932 10 10.833ZM10 3.33301C10 2.87277 9.6269 2.49967 9.16667 2.49967C8.70643 2.49968 8.33333 2.87277 8.33333 3.33301C8.33333 3.79324 8.70643 4.16634 9.16667 4.16634C9.6269 4.16634 10 3.79324 10 3.33301ZM11.6667 3.33301C11.6667 4.71372 10.5474 5.83301 9.16667 5.83301C7.78596 5.83301 6.66667 4.71372 6.66667 3.33301C6.66667 1.9523 7.78596 0.83301 9.16667 0.833008C10.5474 0.833008 11.6667 1.9523 11.6667 3.33301Z" fill="#808080"/>
</svg>
