<svg width="24" height="24" viewBox="0 0 24 24" fill="none" xmlns="http://www.w3.org/2000/svg">
<rect width="24" height="24" rx="4" fill="#BEC1C6"/>
<path d="M8.3877 12.1016C7.70671 12.7074 7.28439 13.5492 7.28418 14.4795C7.28431 16.3256 8.94596 17.8222 10.9951 17.8223C12.6158 17.822 13.9909 16.8851 14.4961 15.5801L14.9912 16.7275L15.1523 17.1152C14.2359 18.2553 12.74 18.999 11.0488 18.999C8.26051 18.9988 6 16.9799 6 14.4893C6.00031 12.9255 6.89157 11.5471 8.24512 10.7383L8.3877 12.1016ZM9.73242 6C10.5918 6 11.2891 6.6281 11.2891 7.40234C11.2888 8.02032 10.8439 8.54311 10.2275 8.72949L10.3438 10.2354H13.9453C14.281 10.2354 14.5527 10.5071 14.5527 10.8428C14.5527 11.1785 14.281 11.4512 13.9453 11.4512H10.4385L10.5459 12.8428H15.1084C15.3842 12.8428 15.6135 13.0303 15.6826 13.2842L17.1348 16.5947L18.2041 16.3652C18.544 16.2922 18.8923 16.5057 18.9814 16.8418C19.0706 17.178 18.8664 17.5099 18.5264 17.583L16.8672 17.9404C16.5562 18.0071 16.2411 17.8331 16.1211 17.5459C16.1129 17.5306 16.1028 17.5161 16.0957 17.5L14.5781 14.0391H9.8623C9.5902 14.0389 9.36232 13.8563 9.29004 13.6074C9.25646 13.5352 9.23304 13.4568 9.22656 13.373L8.85449 8.55859C8.44544 8.3061 8.17693 7.88277 8.17676 7.40234C8.17676 6.62814 8.87309 6.00007 9.73242 6Z" fill="white"/>
</svg>
