<svg width="24" height="24" viewBox="0 0 24 24" fill="none" xmlns="http://www.w3.org/2000/svg">
<rect width="24" height="24" rx="4" fill="#1E86FF"/>
<path d="M14.9553 5.05988C15.0443 5.10953 15.1132 5.18674 15.1506 5.27892C15.1881 5.37109 15.192 5.47277 15.1617 5.56735L13.5245 10.6876H16.5453C16.6341 10.6875 16.7209 10.7125 16.7951 10.7594C16.8693 10.8064 16.9276 10.8732 16.9628 10.9516C16.998 11.0301 17.0085 11.1167 16.9931 11.2009C16.9777 11.285 16.9371 11.363 16.8762 11.4251L9.60372 18.8622C9.53336 18.9342 9.43972 18.9812 9.33807 18.9954C9.23643 19.0097 9.13277 18.9904 9.04399 18.9406C8.95521 18.8909 8.88655 18.8137 8.8492 18.7216C8.81184 18.6295 8.808 18.528 8.8383 18.4335L10.4755 13.3124H7.45471C7.36594 13.3124 7.27909 13.2875 7.20491 13.2405C7.13072 13.1936 7.07243 13.1268 7.03724 13.0484C7.00205 12.9699 6.99149 12.8833 7.00688 12.7991C7.02226 12.715 7.06291 12.637 7.12381 12.5748L14.3963 5.13775C14.4666 5.06583 14.5601 5.01891 14.6616 5.00461C14.7631 4.99031 14.8666 5.00949 14.9553 5.05901V5.05988Z" fill="white"/>
</svg>
