<svg width="20" height="20" viewBox="0 0 20 20" fill="none" xmlns="http://www.w3.org/2000/svg">
<path d="M13.4914 2.01589C13.7138 1.70449 14.1194 1.58479 14.4753 1.72536C14.8311 1.86601 15.0457 2.23067 14.9953 2.60996L14.2881 7.91677H17.457C17.6497 7.91677 17.8521 7.91629 18.0177 7.93141C18.1533 7.9438 18.3862 7.9737 18.611 8.11126L18.707 8.17718L18.8112 8.26751C19.0423 8.49064 19.18 8.79582 19.1921 9.12038C19.2038 9.43841 19.0704 9.69002 18.9919 9.82432C18.9079 9.96787 18.7896 10.1323 18.6777 10.289L13.1805 17.9843C12.9581 18.2957 12.5525 18.4154 12.1966 18.2748C11.8408 18.1342 11.6261 17.7695 11.6766 17.3902L12.3838 12.0834H9.21484C9.02222 12.0834 8.8198 12.0839 8.65413 12.0688C8.49921 12.0546 8.21678 12.0175 7.96484 11.823C7.67118 11.5963 7.49359 11.2506 7.47982 10.8798C7.46803 10.5618 7.60149 10.3102 7.68001 10.1759C7.76399 10.0323 7.88223 9.86787 7.99414 9.7112L13.4914 2.01589ZM7.5026 13.7501C7.96284 13.7501 8.33594 14.1232 8.33594 14.5834C8.33594 15.0437 7.96284 15.4168 7.5026 15.4168H2.91927C2.45903 15.4168 2.08594 15.0437 2.08594 14.5834C2.08594 14.1232 2.45903 13.7501 2.91927 13.7501H7.5026ZM9.53874 10.4168H13.3359C13.576 10.4168 13.8043 10.5203 13.9626 10.7008C14.1207 10.8815 14.1936 11.1219 14.1619 11.36L13.7705 14.2897L17.1331 9.58343H13.3359C13.0959 9.58343 12.8675 9.47991 12.7093 9.29942C12.5511 9.11875 12.4783 8.87826 12.5099 8.64024L12.9006 5.70973L9.53874 10.4168ZM5.41927 9.16677C5.87951 9.16677 6.2526 9.53986 6.2526 10.0001C6.2526 10.4603 5.87951 10.8334 5.41927 10.8334H1.66927C1.20903 10.8334 0.835938 10.4603 0.835938 10.0001C0.835938 9.53986 1.20903 9.16677 1.66927 9.16677H5.41927ZM7.5026 4.58343C7.96284 4.58343 8.33594 4.95653 8.33594 5.41677C8.33594 5.877 7.96284 6.2501 7.5026 6.2501H3.33594C2.8757 6.2501 2.5026 5.877 2.5026 5.41677C2.5026 4.95653 2.8757 4.58343 3.33594 4.58343H7.5026Z" fill="#808080"/>
</svg>
