<svg width="20" height="20" viewBox="0 0 20 20" fill="none" xmlns="http://www.w3.org/2000/svg">
<path d="M16.6693 11.8338C16.6693 11.3534 16.6682 11.0429 16.6489 10.8068C16.6304 10.5805 16.5991 10.4964 16.5781 10.4552C16.4983 10.2986 16.371 10.1713 16.2144 10.0915C16.1732 10.0705 16.0891 10.0392 15.8628 10.0207C15.6267 10.0014 15.3162 10.0003 14.8358 10.0003H11.6693V16.667H16.6693V11.8338ZM7.91927 11.667C8.37951 11.667 8.7526 12.0401 8.7526 12.5003C8.7526 12.9606 8.37951 13.3337 7.91927 13.3337H5.41927C4.95903 13.3337 4.58594 12.9606 4.58594 12.5003C4.58594 12.0401 4.95903 11.667 5.41927 11.667H7.91927ZM7.91927 8.33366C8.37951 8.33366 8.7526 8.70676 8.7526 9.167C8.7526 9.62723 8.37951 10.0003 7.91927 10.0003H5.41927C4.95903 10.0003 4.58594 9.62723 4.58594 9.167C4.58594 8.70676 4.95903 8.33366 5.41927 8.33366H7.91927ZM7.91927 5.00033C8.37951 5.00033 8.7526 5.37343 8.7526 5.83366C8.7526 6.2939 8.37951 6.667 7.91927 6.667H5.41927C4.95903 6.667 4.58594 6.2939 4.58594 5.83366C4.58594 5.37343 4.95903 5.00033 5.41927 5.00033H7.91927ZM10.0026 5.16716C10.0026 4.6867 10.0016 4.37625 9.98226 4.14014C9.96376 3.91382 9.93245 3.82978 9.91146 3.78858C9.83159 3.63194 9.70433 3.50467 9.54769 3.42481C9.50649 3.40382 9.42245 3.3725 9.19613 3.35401C8.96001 3.33472 8.64957 3.33366 8.16911 3.33366H5.16943C4.68897 3.33366 4.37853 3.33472 4.14242 3.35401C3.91609 3.3725 3.83205 3.40382 3.79085 3.42481C3.63421 3.50468 3.50695 3.63194 3.42708 3.78858C3.40609 3.82978 3.37478 3.91382 3.35628 4.14014C3.33699 4.37625 3.33594 4.6867 3.33594 5.16716V16.667H10.0026V5.16716ZM11.6693 8.33366H14.8358C15.2887 8.33366 15.679 8.33277 15.9987 8.35889C16.3281 8.38582 16.6559 8.44566 16.9712 8.60629C17.4414 8.84593 17.8237 9.22822 18.0633 9.69841C18.2239 10.0137 18.2838 10.3415 18.3107 10.6709C18.3368 10.9906 18.3359 11.3809 18.3359 11.8338V16.667C18.7962 16.667 19.1693 17.0401 19.1693 17.5003C19.1693 17.9606 18.7962 18.3337 18.3359 18.3337H1.66927C1.20903 18.3337 0.835938 17.9606 0.835938 17.5003C0.835938 17.0401 1.20903 16.667 1.66927 16.667V5.16716C1.66927 4.7142 1.66838 4.32396 1.6945 4.00424C1.72142 3.67485 1.78127 3.34699 1.94189 3.03174C2.18154 2.56156 2.56383 2.17926 3.03402 1.93962C3.34926 1.77899 3.67713 1.71915 4.00651 1.69222C4.32624 1.6661 4.71647 1.667 5.16943 1.667H8.16911C8.62207 1.667 9.01231 1.6661 9.33203 1.69222C9.66141 1.71915 9.98928 1.77899 10.3045 1.93962C10.7747 2.17927 11.157 2.56156 11.3966 3.03174C11.5573 3.34699 11.6171 3.67485 11.644 4.00424C11.6702 4.32396 11.6693 4.7142 11.6693 5.16716V8.33366Z" fill="#156588"/>
</svg>
