<svg width="24" height="24" viewBox="0 0 24 24" fill="none" xmlns="http://www.w3.org/2000/svg">
<rect width="24" height="24" rx="4" fill="#BEC1C6"/>
<path d="M17.4541 17.4222H17.2089V5.70046C17.2092 5.31406 16.9652 5 16.6637 5H7.3364C7.03507 5 6.79093 5.31389 6.79093 5.70114V17.4222H6.54547C6.24413 17.4222 6 17.6735 6 17.9835C6 18.2931 6.24413 18.5442 6.54547 18.5442H17.4541C17.7553 18.5442 18 18.2929 18 17.9835C18 17.6735 17.7556 17.4222 17.4541 17.4222ZM10.2 14.3543H8.3456V12.6716H10.2V14.3543ZM10.2 11.5491H8.3456V9.866H10.2V11.5491ZM10.2 8.74383H8.3456V7.06109H10.2V8.74383ZM12.9273 16.6986H11.0727V13.6129H11.0869C11.1617 13.0508 11.5419 12.6224 12.0003 12.6224C12.4588 12.6224 12.8385 13.0508 12.9133 13.6129H12.9273V16.6986ZM12.9273 11.5491H11.0727V9.866H12.9273V11.5491ZM12.9273 8.74383H11.0727V7.06109H12.9273V8.74383ZM15.6544 14.3543H13.8V12.6716H15.6544V14.3543ZM15.6544 11.5491H13.8V9.866H15.6544V11.5491ZM15.6544 8.74383H13.8V7.06109H15.6544V8.74383Z" fill="white"/>
</svg>
