<svg width="20" height="20" viewBox="0 0 20 20" fill="none" xmlns="http://www.w3.org/2000/svg">
<path d="M11.9142 1.07707C12.2396 0.751642 12.7671 0.751669 13.0926 1.07707C13.418 1.4025 13.418 1.93001 13.0926 2.25545L10.8367 4.51131V8.55591L14.3393 6.53279L15.1653 3.45255C15.2844 3.00809 15.7414 2.74361 16.1858 2.86255C16.6304 2.98167 16.8942 3.43931 16.775 3.88387L16.0752 6.49292L18.6858 7.19279C19.1303 7.31188 19.394 7.76883 19.275 8.2133C19.1559 8.65785 18.6991 8.92242 18.2545 8.8033L15.1727 7.97648L11.6701 9.99959L15.1727 12.0219L18.2545 11.1959C18.699 11.0768 19.1558 11.3408 19.275 11.7851C19.3941 12.2296 19.1304 12.6873 18.6858 12.8064L16.0752 13.5055L16.775 16.1153C16.8942 16.5599 16.6304 17.0167 16.1858 17.1358C15.7413 17.2549 15.2845 16.9911 15.1653 16.5466L14.3393 13.4656L10.8367 11.4425V15.4879L13.0926 17.7437L13.1495 17.8072C13.4165 18.1345 13.3977 18.617 13.0926 18.9221C12.7671 19.2475 12.2396 19.2475 11.9142 18.9221L10.0034 17.0113L8.09258 18.9221C7.76714 19.2475 7.23962 19.2475 6.9142 18.9221C6.58881 18.5967 6.58881 18.0692 6.9142 17.7437L9.17006 15.4879V11.4425L5.66745 13.4648L4.84144 16.5466C4.72233 16.9911 4.26545 17.2557 3.82093 17.1366C3.37638 17.0175 3.11262 16.5599 3.23174 16.1153L3.9308 13.5055L1.32093 12.8064C0.876488 12.6873 0.612841 12.2303 0.731742 11.7859C0.850849 11.3414 1.30773 11.0768 1.75225 11.1959L4.8333 12.0219L8.33591 9.99959L4.8333 7.97648L1.75225 8.8033L1.66924 8.82121C1.25234 8.88885 0.843558 8.63077 0.731742 8.21411C0.612592 7.76956 0.876388 7.31194 1.32093 7.19279L3.9308 6.49292L3.23174 3.88387L3.21384 3.80005C3.14641 3.38322 3.40433 2.97508 3.82093 2.86336C4.23772 2.7517 4.66545 2.97629 4.8154 3.37117L4.84144 3.45255L5.66664 6.53279L9.17006 8.55591V4.51131L6.9142 2.25545C6.58881 1.93002 6.58881 1.40249 6.9142 1.07707C7.23962 0.751642 7.76714 0.751669 8.09258 1.07707L10.0034 2.98787L11.9142 1.07707Z" fill="#156588"/>
</svg>
