<svg width="24" height="24" viewBox="0 0 24 24" fill="none" xmlns="http://www.w3.org/2000/svg">
<rect width="24" height="24" rx="4" fill="#BEC1C6"/>
<path d="M18.7508 14.7125L17.526 14.0836L18.5915 13.8293C18.8539 13.7664 19.0102 13.5258 18.9383 13.2934L18.8102 12.8695C18.7415 12.6371 18.4696 12.4977 18.2072 12.5605L15.7169 13.1539L13.4735 12L15.7201 10.8461L18.2103 11.4395C18.4727 11.5023 18.7415 11.3629 18.8133 11.1305L18.9414 10.7066C19.0102 10.4742 18.8571 10.2336 18.5946 10.1707L17.5291 9.91641L18.754 9.2875C18.9883 9.16719 19.0695 8.89922 18.9352 8.68867L18.6883 8.30859C18.554 8.09805 18.2509 8.02695 18.0166 8.14727L16.7918 8.77617L17.0761 7.82734C17.1448 7.59492 16.9917 7.3543 16.7293 7.29141L16.2544 7.1793C15.9919 7.11641 15.7232 7.25586 15.6513 7.48828L14.9858 9.70312L12.7393 10.857V8.54648L14.5609 6.925C14.7515 6.75547 14.7515 6.47656 14.5609 6.30703L14.214 5.99805C14.0235 5.82852 13.711 5.82852 13.5204 5.99805L12.7424 6.69258V5.4375C12.7424 5.19688 12.5237 5 12.2519 5H11.7613C11.4895 5 11.2708 5.19688 11.2708 5.4375V6.69805L10.4928 6.00352C10.3022 5.83398 9.98972 5.83398 9.79913 6.00352L9.43981 6.3125C9.24922 6.48203 9.24922 6.76094 9.43981 6.93047L11.2614 8.55195V10.8625L9.01488 9.70859L8.34936 7.49375C8.28062 7.26133 8.00879 7.12188 7.74633 7.18477L7.27141 7.29688C7.00895 7.35977 6.85272 7.60039 6.92459 7.83281L7.20891 8.78164L5.98411 8.15273C5.74977 8.03242 5.44982 8.10352 5.31234 8.31406L5.06551 8.69414C4.93115 8.90469 5.00927 9.16992 5.24673 9.29297L6.47153 9.92188L5.40608 10.1707C5.14362 10.2336 4.98739 10.4742 5.05926 10.7066L5.18736 11.1305C5.2561 11.3629 5.52793 11.5023 5.79039 11.4395L8.28062 10.8461L10.5271 12L8.28062 13.1539L5.79039 12.5605C5.52793 12.4977 5.25923 12.6371 5.18736 12.8695L5.05926 13.2934C4.99052 13.5258 5.14362 13.7664 5.40608 13.8293L6.47153 14.0836L5.24673 14.7125C5.01239 14.8328 4.93115 15.1008 5.06551 15.3113L5.31234 15.6914C5.4467 15.902 5.74977 15.973 5.98411 15.8527L7.20891 15.2238L6.92459 16.1727C6.85585 16.4051 7.00895 16.6457 7.27141 16.7086L7.74633 16.8207C8.00879 16.8836 8.27749 16.7441 8.34936 16.5117L9.01488 14.2969L11.2614 13.143V15.4535L9.43981 17.075C9.24922 17.2445 9.24922 17.5234 9.43981 17.693L9.78663 18.002C9.97722 18.1715 10.2897 18.1715 10.4803 18.002L11.2583 17.3074V18.5625C11.2583 18.8031 11.477 19 11.7488 19H12.2394C12.5112 19 12.7299 18.8031 12.7299 18.5625V17.302L13.5079 17.9965C13.6985 18.166 14.011 18.166 14.2016 17.9965L14.5484 17.6875C14.739 17.518 14.739 17.2391 14.5484 17.0695L12.7268 15.448V13.1375L14.9733 14.2914L15.6388 16.5062C15.7076 16.7387 15.9794 16.8781 16.2419 16.8152L16.7168 16.7031C16.9792 16.6402 17.1355 16.3996 17.0636 16.1672L16.7793 15.2184L18.0041 15.8473C18.2384 15.9676 18.5384 15.8965 18.6758 15.6859L18.9227 15.3059C19.0664 15.1008 18.9883 14.8328 18.7508 14.7125Z" fill="white"/>
</svg>
